<?xml version="1.0" encoding="utf-8"?>
<!-- Generator: Adobe Illustrator 16.0.0, SVG Export Plug-In . SVG Version: 6.00 Build 0)  -->
<!DOCTYPE svg PUBLIC "-//W3C//DTD SVG 1.0//EN" "http://www.w3.org/TR/2001/REC-SVG-20010904/DTD/svg10.dtd">
<svg version="1.0" id="layer1" xmlns="http://www.w3.org/2000/svg" xmlns:xlink="http://www.w3.org/1999/xlink" x="0px" y="0px"
	 width="195.333px" height="98.133px" viewBox="0 0 195.333 98.133" enable-background="new 0 0 195.333 98.133"
	 xml:space="preserve">
<pattern  x="-5.667" y="226.8" width="71.999" height="72" patternUnits="userSpaceOnUse" id="对角线" viewBox="28.856 -76.621 71.999 72" overflow="visible">
	<g>
		<polygon fill="none" points="28.856,-4.621 28.856,-76.621 100.855,-76.621 100.855,-4.621 		"/>
		<line fill="#FFFFFF" x1="5.106" y1="-10.621" x2="11.106" y2="-4.621"/>
		<line fill="#FFFFFF" x1="5.106" y1="-4.621" x2="11.106" y2="-10.621"/>
		
			<line fill="none" stroke="#231815" stroke-width="0.3" stroke-linejoin="round" x1="21.372" y1="-66.105" x2="39.371" y2="-84.105"/>
		
			<line fill="none" stroke="#231815" stroke-width="0.3" stroke-linejoin="round" x1="21.372" y1="-60.105" x2="45.371" y2="-84.105"/>
		
			<line fill="none" stroke="#231815" stroke-width="0.3" stroke-linejoin="round" x1="21.372" y1="-54.105" x2="51.371" y2="-84.105"/>
		
			<line fill="none" stroke="#231815" stroke-width="0.3" stroke-linejoin="round" x1="21.372" y1="-48.105" x2="57.371" y2="-84.105"/>
		
			<line fill="none" stroke="#231815" stroke-width="0.3" stroke-linejoin="round" x1="21.372" y1="-42.105" x2="63.371" y2="-84.105"/>
		
			<line fill="none" stroke="#231815" stroke-width="0.3" stroke-linejoin="round" x1="21.372" y1="-36.105" x2="69.371" y2="-84.105"/>
		
			<line fill="none" stroke="#231815" stroke-width="0.3" stroke-linejoin="round" x1="21.372" y1="-30.105" x2="75.371" y2="-84.105"/>
		
			<line fill="none" stroke="#231815" stroke-width="0.3" stroke-linejoin="round" x1="21.372" y1="-24.105" x2="81.371" y2="-84.105"/>
		
			<line fill="none" stroke="#231815" stroke-width="0.3" stroke-linejoin="round" x1="21.372" y1="-18.105" x2="87.371" y2="-84.105"/>
		
			<line fill="none" stroke="#231815" stroke-width="0.3" stroke-linejoin="round" x1="21.372" y1="-12.105" x2="93.371" y2="-84.105"/>
		
			<line fill="none" stroke="#231815" stroke-width="0.3" stroke-linejoin="round" x1="21.372" y1="-6.105" x2="99.371" y2="-84.105"/>
		
			<line fill="none" stroke="#231815" stroke-width="0.3" stroke-linejoin="round" x1="21.372" y1="-0.106" x2="105.371" y2="-84.105"/>
		
			<line fill="none" stroke="#231815" stroke-width="0.3" stroke-linejoin="round" x1="27.372" y1="-0.106" x2="105.371" y2="-78.105"/>
		
			<line fill="none" stroke="#231815" stroke-width="0.3" stroke-linejoin="round" x1="33.371" y1="-0.106" x2="105.371" y2="-72.105"/>
		
			<line fill="none" stroke="#231815" stroke-width="0.3" stroke-linejoin="round" x1="39.371" y1="-0.106" x2="105.371" y2="-66.105"/>
		
			<line fill="none" stroke="#231815" stroke-width="0.3" stroke-linejoin="round" x1="45.371" y1="-0.106" x2="105.371" y2="-60.105"/>
		
			<line fill="none" stroke="#231815" stroke-width="0.3" stroke-linejoin="round" x1="51.371" y1="-0.106" x2="105.371" y2="-54.105"/>
		
			<line fill="none" stroke="#231815" stroke-width="0.3" stroke-linejoin="round" x1="57.371" y1="-0.106" x2="105.371" y2="-48.105"/>
		
			<line fill="none" stroke="#231815" stroke-width="0.3" stroke-linejoin="round" x1="63.371" y1="-0.106" x2="105.371" y2="-42.105"/>
		
			<line fill="none" stroke="#231815" stroke-width="0.3" stroke-linejoin="round" x1="69.371" y1="-0.106" x2="105.371" y2="-36.105"/>
		
			<line fill="none" stroke="#231815" stroke-width="0.3" stroke-linejoin="round" x1="75.371" y1="-0.106" x2="105.371" y2="-30.105"/>
		
			<line fill="none" stroke="#231815" stroke-width="0.3" stroke-linejoin="round" x1="81.371" y1="-0.106" x2="105.371" y2="-24.105"/>
		
			<line fill="none" stroke="#231815" stroke-width="0.3" stroke-linejoin="round" x1="87.371" y1="-0.106" x2="105.371" y2="-18.105"/>
		
			<line fill="none" stroke="#231815" stroke-width="0.3" stroke-linejoin="round" x1="93.371" y1="-0.106" x2="105.371" y2="-12.105"/>
		
			<line fill="none" stroke="#231815" stroke-width="0.3" stroke-linejoin="bevel" x1="0.106" y1="-63.121" x2="10.106" y2="-73.121"/>
	</g>
</pattern>
<rect fill-rule="evenodd" clip-rule="evenodd" fill="#FFFFFF" width="195.333" height="98.133"/>
<rect x="3.933" y="55.32" fill-rule="evenodd" clip-rule="evenodd" fill="url(#对角线)" width="184.08" height="23.16"/>
<rect x="65.853" y="54.24" fill-rule="evenodd" clip-rule="evenodd" fill="#FFFFFF" width="122.4" height="18.36"/>
<line fill="none" stroke="#000000" stroke-miterlimit="10" x1="4.173" y1="55.08" x2="65.452" y2="55.08"/>
<line fill="none" stroke="#000000" stroke-miterlimit="10" x1="65.373" y1="72.24" x2="187.933" y2="72.24"/>
<line fill="none" stroke="#000000" stroke-miterlimit="10" x1="65.373" y1="55.08" x2="65.373" y2="72.26"/>
<rect x="3.453" y="61.8" fill-rule="evenodd" clip-rule="evenodd" fill="#FFFFFF" width="53.4" height="18.36"/>
<path fill="#00B0F0" d="M75.631,63.69l-4.46-0.32L74.1,60L75.631,63.69z M73.836,61.74l1.931-0.42c0.052-0.01,0.106-0.02,0.159-0.01
	l1.057,0.11c0.025,0.01,0.049,0.01,0.072,0.02l1.02,0.26c0.026,0.01,0.052,0.01,0.077,0.02l0.953,0.42l0.491,0.3l0.423,0.31
	l0.379,0.33l0.33,0.36l0.28,0.4l0.226,0.39c0.013,0.02,0.024,0.04,0.033,0.07l0.142,0.36l0.115,0.43l0.064,0.44l0.005,0.45
	c0,0.02-0.002,0.05-0.006,0.07l-0.06,0.39l-0.117,0.43l-0.18,0.43l-0.235,0.42l-0.299,0.4l-0.347,0.37
	c-0.019,0.02-0.039,0.04-0.06,0.06l-0.758,0.58c-0.024,0.02-0.049,0.04-0.076,0.05l-0.885,0.46c-0.024,0.01-0.049,0.02-0.075,0.03
	l-0.967,0.32c-0.023,0-0.046,0.01-0.069,0.01l-1.035,0.18c-0.024,0.01-0.048,0.01-0.072,0.01l-1.057,0.03L74.17,70.1
	c-0.024,0-0.048,0-0.072-0.01l-1.02-0.26c-0.026-0.01-0.052-0.02-0.077-0.03l-0.952-0.42l-0.539-0.32l-0.473-0.36l-0.411-0.39
	l-0.362-0.44l0.778-0.62l0.268,0.34l0.339,0.32l0.382,0.3l0.421,0.26l0.953,0.42l-0.077-0.03l1.02,0.26l-0.072-0.01l0.99,0.11
	l1.058-0.03l-0.072,0.01l1.035-0.18l-0.069,0.01l0.968-0.31l-0.075,0.03l0.885-0.46l-0.076,0.05l0.757-0.58l-0.06,0.05l0.283-0.3
	l0.226-0.29l0.185-0.31l0.136-0.31l0.092-0.32l0.06-0.38l-0.006,0.08l0.005-0.32l-0.041-0.31l-0.08-0.32l-0.143-0.37l0.033,0.07
	l-0.179-0.32l-0.2-0.29l-0.255-0.29l-0.311-0.28l-0.342-0.26l-0.379-0.23l-0.952-0.42l0.077,0.03l-1.02-0.27l0.072,0.02L75.82,62.3
	h0.159l-1.931,0.41L73.836,61.74z"/>
<path fill="#BFBFBF" d="M176.983,64.18l6,3l-6,3V64.18z M9.001,44.81h0.277h0.348l0.469,0.01h0.528h0.623h0.697h0.78l0.841-0.01
	h0.929h0.984l1.066-0.01h1.123l1.18-0.01l1.245-0.01h1.305h1.355l1.406-0.01l1.455-0.01h1.511l1.541-0.01h3.22h3.369h3.497l3.6,0.01
	l3.691,0.02l3.761,0.03l3.802,0.03l3.835,0.04l7.669,0.13l3.797,0.07l3.748,0.1l3.678,0.11l3.581,0.13l3.471,0.15l3.34,0.16
	l3.189,0.19l1.534,0.09l1.49,0.11l1.437,0.11l1.39,0.11l1.34,0.13l1.28,0.12l1.23,0.14l1.16,0.14l1.11,0.15l1.04,0.15l1.99,0.35
	l1.87,0.39l1.78,0.42l1.7,0.45l1.61,0.5l1.53,0.52l1.46,0.55l1.38,0.58l1.31,0.6l1.25,0.63l1.18,0.63l1.13,0.66l1.08,0.66l1.02,0.67
	l0.97,0.68l0.93,0.69l1.74,1.34l1.61,1.33l1.5,1.27l1.44,1.19l1.39,1.09l1.37,0.97l1.38,0.82l0.68,0.35l0.72,0.31l0.63,0.24
	l0.72,0.21l0.83,0.2l0.94,0.18l1.04,0.16l1.14,0.15l1.21,0.13l1.3,0.11l1.37,0.09l1.44,0.08l1.5,0.07l1.55,0.06l3.22,0.06l3.36,0.04
	h3.44l3.48-0.02l3.46-0.04l3.41-0.04l3.28-0.04l1.59-0.02l2.12-0.01l0.01,1.5l-2.11,0.01l-1.59,0.02l-3.29,0.04l-3.4,0.04
	l-3.47,0.04l-3.49,0.02h-3.46l-3.38-0.04l-3.24-0.07l-1.56-0.06l-1.51-0.06l-1.46-0.08l-1.39-0.1l-1.33-0.11l-1.26-0.13l-1.17-0.15
	l-1.09-0.17l-1.01-0.2l-0.92-0.22l-0.82-0.25l-0.69-0.27l-0.79-0.35l-0.78-0.39l-1.48-0.88l-1.43-1.02l-1.42-1.11l-1.44-1.21
	l-1.5-1.25l-1.57-1.3l-1.71-1.32l-0.9-0.67l-0.93-0.65l-0.99-0.65l-1.04-0.65l-1.08-0.63l-1.15-0.61l-1.2-0.6l-1.27-0.59l-1.33-0.56
	l-1.41-0.53l-1.49-0.51l-1.56-0.48l-1.65-0.44l-1.74-0.41l-1.84-0.38l-1.94-0.35l-1.02-0.15l-1.08-0.15l-1.16-0.13l-1.2-0.13
	l-1.27-0.13l-1.33-0.12l-1.386-0.11l-1.427-0.11l-1.48-0.11l-1.526-0.1l-3.171-0.18l-3.335-0.16l-3.459-0.15l-3.574-0.13
	l-3.672-0.11l-3.737-0.1l-3.793-0.07l-7.661-0.13l-3.83-0.05L49.79,46.3l-3.755-0.03l-3.689-0.01l-3.6-0.01h-3.493h-3.366h-3.215
	l-1.549,0.01h-1.504l-1.454,0.01l-1.414,0.01l-1.346-0.01L20.1,46.28l-1.245,0.01l-1.189,0.01h-1.113h-1.064l-0.996,0.01h-0.916
	l-0.854,0.01h-0.78h-0.697h-0.623h-0.552l-0.445-0.01H9.238L8.96,46.3L9.001,44.81z"/>
<rect x="71.796" y="44.357" transform="matrix(-0.9732 -0.2301 0.2301 -0.9732 181.0077 118.2544)" fill-rule="evenodd" clip-rule="evenodd" fill="#FFFFFF" width="51.204" height="8.436"/>
<path fill="none" stroke="#00B0F0" stroke-width="0.75" stroke-miterlimit="10" d="M76.571,42.48c-1.511-0.23-1.915,0.5-2.136,0.88
	c-0.221,0.37,0.049,1.04,0.811,1.37c0.762,0.33,2.539,0.61,3.761,0.61c1.222,0,2.751-0.42,3.57-0.62c0.818-0.2,1.39-0.48,2.332-0.64
	c0.942-0.17,2.258-0.61,3.319-0.34c1.062,0.26,1.793,1.19,1.935,1.7c0.142,0.51-0.614,1.18-1.083,1.34
	c-0.47,0.17-1.319,0.34-2.373-0.39"/>
<path fill="none" stroke="#00B0F0" stroke-width="0.75" stroke-miterlimit="10" d="M86.353,45.3c-1.511-0.24-1.915,0.5-2.136,0.87
	c-0.221,0.38,0.049,1.05,0.811,1.38c0.762,0.33,2.54,0.61,3.761,0.61c1.222,0,2.751-0.43,3.57-0.63c0.819-0.19,1.39-0.47,2.334-0.64
	c0.94-0.16,2.26-0.61,3.32-0.34s1.79,1.2,1.93,1.71c0.14,0.51-0.61,1.17-1.08,1.34c-0.47,0.16-1.32,0.33-2.37-0.4"/>
<path fill="none" stroke="#00B0F0" stroke-width="0.75" stroke-miterlimit="10" d="M96.323,47.99c-1.51-0.24-1.92,0.5-2.137,0.87
	c-0.221,0.38,0.049,1.04,0.807,1.37c0.77,0.34,2.54,0.62,3.76,0.62c1.23-0.01,2.76-0.43,3.57-0.63c0.82-0.2,1.39-0.47,2.34-0.64
	c0.94-0.16,2.25-0.61,3.32-0.34c1.06,0.27,1.79,1.2,1.93,1.71c0.14,0.5-0.61,1.17-1.08,1.34c-0.47,0.16-1.32,0.33-2.38-0.4"/>
<path fill="#00B0F0" d="M96.673,54.38l6.27,2.38l-5.67,3.59L96.673,54.38z M116.993,60.89l0.41,0.64c0.02,0.03,0.03,0.06,0.04,0.09
	l0.25,0.64c0.01,0.03,0.02,0.06,0.03,0.09l0.11,0.64c0.01,0.04,0.01,0.08,0.01,0.11l-0.04,0.64c0,0.04-0.01,0.07-0.02,0.1
	l-0.16,0.62c-0.01,0.04-0.02,0.07-0.04,0.1l-0.3,0.6c-0.01,0.03-0.02,0.05-0.04,0.08l-0.43,0.59l-0.59,0.62l-0.71,0.59l-0.82,0.54
	l-0.93,0.5l-1.03,0.46l-1.12,0.41l-1.23,0.36l-1.3,0.31l-1.39,0.25l-1.43,0.19l-1.45,0.11l-1.43,0.06l-1.43-0.02l-1.4-0.08
	l-1.37-0.14l-1.33-0.2l-1.29-0.25l-1.23-0.3l-1.165-0.36l-1.086-0.41l-1.009-0.46l-0.919-0.52l-0.815-0.56l-0.708-0.61l-0.589-0.67
	c-0.017-0.01-0.032-0.04-0.046-0.06l-0.405-0.63c-0.018-0.03-0.032-0.06-0.044-0.09l-0.248-0.64c-0.011-0.03-0.02-0.06-0.026-0.09
	l-0.112-0.64c-0.007-0.04-0.009-0.08-0.007-0.12l0.037-0.63c0.002-0.04,0.008-0.07,0.016-0.1l0.165-0.63
	c0.009-0.03,0.02-0.06,0.035-0.09l0.3-0.61c0.012-0.02,0.027-0.05,0.043-0.07l0.428-0.59c0.014-0.02,0.03-0.04,0.047-0.06
	l0.555-0.57l0.699-0.58l0.825-0.54l0.93-0.51l1.022-0.45l1.127-0.42l1.22-0.36l2.28-0.4l0.17,0.99l-2.16,0.37l-1.17,0.34
	l-1.058,0.39l-0.958,0.43l-0.855,0.45l-0.735,0.48l-0.621,0.51l-0.555,0.57l0.047-0.05l-0.427,0.59l0.043-0.07l-0.3,0.6l0.035-0.09
	l-0.165,0.62l0.016-0.1l-0.038,0.64l-0.007-0.11l0.113,0.63l-0.026-0.09l0.247,0.64l-0.044-0.09l0.405,0.64L89.794,65l0.491,0.56
	l0.627,0.55l0.73,0.51l0.851,0.48l0.941,0.43l1.029,0.39l1.11,0.35l1.18,0.29l1.24,0.25l1.28,0.19l1.33,0.13l1.36,0.08l1.38,0.02
	l1.4-0.05l1.39-0.11l1.38-0.18l1.34-0.24l1.25-0.29l1.16-0.35l1.07-0.38l0.95-0.43l0.86-0.46l0.74-0.47l0.62-0.51l0.5-0.52
	l0.43-0.59l-0.04,0.07l0.3-0.61l-0.04,0.1l0.17-0.63l-0.02,0.1l0.04-0.63l0.01,0.11l-0.12-0.64l0.03,0.1l-0.25-0.64l0.05,0.09
	l-0.41-0.64L116.993,60.89z"/>
<path fill="none" stroke="#00B0F0" stroke-width="0.75" stroke-miterlimit="10" d="M107.323,50.79c-1.51-0.24-1.92,0.5-2.14,0.87
	c-0.22,0.38,0.05,1.04,0.81,1.37c0.77,0.34,2.54,0.62,3.76,0.62c1.23-0.01,2.76-0.43,3.57-0.63c0.82-0.2,1.39-0.47,2.34-0.64
	c0.94-0.16,2.25-0.61,3.32-0.34c1.06,0.27,1.79,1.2,1.93,1.71c0.14,0.5-0.61,1.17-1.08,1.34c-0.47,0.16-1.32,0.33-2.38-0.4"/>
<text transform="matrix(1 0 0 1 55.437 93.77)"><tspan x="0" y="0" font-family="'Verdana'" font-size="9">S</tspan><tspan x="6.152" y="0" font-family="'Verdana'" font-size="9">epa</tspan><tspan x="22.581" y="0" font-family="'Verdana'" font-size="9">r</tspan><tspan x="26.421" y="0" font-family="'Verdana'" font-size="9">a</tspan><tspan x="31.844" y="0" font-family="'Verdana'" font-size="9">t</tspan><tspan x="35.391" y="0" font-family="'Verdana'" font-size="9">i</tspan><tspan x="37.906" y="0" font-family="'Verdana'" font-size="9">on</tspan><tspan x="49.099" y="0" font-family="'Verdana'" font-size="9"> </tspan><tspan x="51.93" y="0" font-family="'Verdana'" font-size="9">bubb</tspan><tspan x="74.52" y="0" font-family="'Verdana'" font-size="9">l</tspan><tspan x="77.017" y="0" font-family="'Verdana'" font-size="9">e</tspan></text>
<line fill="none" stroke="#000000" stroke-width="0.5" stroke-linejoin="round" stroke-miterlimit="10" x1="93.977" y1="41.82" x2="105.853" y2="29.22"/>
<text transform="matrix(1 0 0 1 87.2129 24.6699)"><tspan x="0" y="0" font-family="'Verdana'" font-size="9">S</tspan><tspan x="6.152" y="0" font-family="'Verdana'" font-size="9">hea</tspan><tspan x="22.668" y="0" font-family="'Verdana'" font-size="9">r</tspan><tspan x="26.509" y="0" font-family="'Verdana'" font-size="9"> </tspan><tspan x="29.583" y="0" font-family="'Verdana'" font-size="9">l</tspan><tspan x="32.08" y="0" font-family="'Verdana'" font-size="9">a</tspan><tspan x="37.503" y="0" font-family="'Verdana'" font-size="9">y</tspan><tspan x="42.766" y="0" font-family="'Verdana'" font-size="9">e</tspan><tspan x="48.146" y="0" font-family="'Verdana'" font-size="9">r</tspan></text>
<line fill="none" stroke="#000000" stroke-width="0.5" stroke-linejoin="round" stroke-miterlimit="10" x1="96.273" y1="85.73" x2="102.983" y2="69.77"/>
<line fill="none" stroke="#000000" stroke-width="0.5" stroke-linejoin="round" stroke-miterlimit="10" x1="84.333" y1="83.76" x2="74.133" y2="69.72"/>
<text transform="matrix(1 0 0 1 19.8208 13.3198)"><tspan x="0" y="0" font-family="'Verdana'" font-size="9">At</tspan><tspan x="9.699" y="0" font-family="'Verdana'" font-size="9">t</tspan><tspan x="13.272" y="0" font-family="'Verdana'" font-size="9">a</tspan><tspan x="18.695" y="0" font-family="'Verdana'" font-size="9">c</tspan><tspan x="23.438" y="0" font-family="'Verdana'" font-size="9">hed</tspan><tspan x="40.156" y="0" font-family="'Verdana'" font-size="9"> </tspan></text>
<text transform="matrix(1 0 0 1 7.9409 24.1196)"><tspan x="0" y="0" font-family="'Verdana'" font-size="9">bounda</tspan><tspan x="33.581" y="0" font-family="'Verdana'" font-size="9">r</tspan><tspan x="37.422" y="0" font-family="'Verdana'" font-size="9">y</tspan><tspan x="42.694" y="0" font-family="'Verdana'" font-size="9"> </tspan><tspan x="45.642" y="0" font-family="'Verdana'" font-size="9">l</tspan><tspan x="48.139" y="0" font-family="'Verdana'" font-size="9">a</tspan><tspan x="53.562" y="0" font-family="'Verdana'" font-size="9">y</tspan><tspan x="58.834" y="0" font-family="'Verdana'" font-size="9">e</tspan><tspan x="64.214" y="0" font-family="'Verdana'" font-size="9">r</tspan></text>
<line fill="none" stroke="#000000" stroke-width="0.5" stroke-linejoin="round" stroke-miterlimit="10" x1="33.16" y1="49.18" x2="33.006" y2="28.43"/>
<text transform="matrix(1 0 0 1 131.3931 37.54)"><tspan x="0" y="0" font-family="'Verdana'" font-size="9">R</tspan><tspan x="6.24" y="0" font-family="'Verdana'" font-size="9">e</tspan></text>
<text transform="matrix(1 0 0 1 142.9131 37.54)" font-family="'Verdana'" font-size="9">-</text>
<text transform="matrix(1 0 0 1 145.9131 37.54)"><tspan x="0" y="0" font-family="'Verdana'" font-size="9">a</tspan><tspan x="5.423" y="0" font-family="'Verdana'" font-size="9">t</tspan><tspan x="8.97" y="0" font-family="'Verdana'" font-size="9">t</tspan><tspan x="12.543" y="0" font-family="'Verdana'" font-size="9">a</tspan><tspan x="17.966" y="0" font-family="'Verdana'" font-size="9">c</tspan><tspan x="22.709" y="0" font-family="'Verdana'" font-size="9">hed</tspan><tspan x="39.427" y="0" font-family="'Verdana'" font-size="9"> </tspan></text>
<text transform="matrix(1 0 0 1 126.353 48.3398)"><tspan x="0" y="0" font-family="'Verdana'" font-size="9">bounda</tspan><tspan x="33.581" y="0" font-family="'Verdana'" font-size="9">r</tspan><tspan x="37.422" y="0" font-family="'Verdana'" font-size="9">y</tspan><tspan x="42.694" y="0" font-family="'Verdana'" font-size="9"> </tspan><tspan x="45.642" y="0" font-family="'Verdana'" font-size="9">l</tspan><tspan x="48.139" y="0" font-family="'Verdana'" font-size="9">a</tspan><tspan x="53.562" y="0" font-family="'Verdana'" font-size="9">y</tspan><tspan x="58.825" y="0" font-family="'Verdana'" font-size="9">e</tspan><tspan x="64.205" y="0" font-family="'Verdana'" font-size="9">r</tspan></text>
<line fill="none" stroke="#000000" stroke-width="0.5" stroke-linejoin="round" stroke-miterlimit="10" x1="156.663" y1="69.15" x2="157.783" y2="50.79"/>
</svg>
