<?xml version="1.0" encoding="utf-8"?>
<!-- Generator: Adobe Illustrator 16.0.0, SVG Export Plug-In . SVG Version: 6.00 Build 0)  -->
<!DOCTYPE svg PUBLIC "-//W3C//DTD SVG 1.1//EN" "http://www.w3.org/Graphics/SVG/1.1/DTD/svg11.dtd">
<svg version="1.1" id="layer1" xmlns="http://www.w3.org/2000/svg" xmlns:xlink="http://www.w3.org/1999/xlink" x="0px" y="0px"
	 width="169px" height="83.133px" viewBox="0 0 169 83.133" enable-background="new 0 0 169 83.133" xml:space="preserve">
<pattern  y="226.8" width="71.999" height="72" patternUnits="userSpaceOnUse" id="对角线" viewBox="28.856 -76.621 71.999 72" overflow="visible">
	<g>
		<polygon fill="none" points="28.856,-4.621 28.856,-76.621 100.855,-76.621 100.855,-4.621 		"/>
		<line fill="#FFFFFF" x1="5.106" y1="-10.621" x2="11.106" y2="-4.621"/>
		<line fill="#FFFFFF" x1="5.106" y1="-4.621" x2="11.106" y2="-10.621"/>
		
			<line fill="none" stroke="#231815" stroke-width="0.3" stroke-linejoin="round" x1="21.372" y1="-66.105" x2="39.371" y2="-84.105"/>
		
			<line fill="none" stroke="#231815" stroke-width="0.3" stroke-linejoin="round" x1="21.372" y1="-60.105" x2="45.371" y2="-84.105"/>
		
			<line fill="none" stroke="#231815" stroke-width="0.3" stroke-linejoin="round" x1="21.372" y1="-54.105" x2="51.371" y2="-84.105"/>
		
			<line fill="none" stroke="#231815" stroke-width="0.3" stroke-linejoin="round" x1="21.372" y1="-48.105" x2="57.371" y2="-84.105"/>
		
			<line fill="none" stroke="#231815" stroke-width="0.3" stroke-linejoin="round" x1="21.372" y1="-42.105" x2="63.371" y2="-84.105"/>
		
			<line fill="none" stroke="#231815" stroke-width="0.3" stroke-linejoin="round" x1="21.372" y1="-36.105" x2="69.371" y2="-84.105"/>
		
			<line fill="none" stroke="#231815" stroke-width="0.3" stroke-linejoin="round" x1="21.372" y1="-30.105" x2="75.371" y2="-84.105"/>
		
			<line fill="none" stroke="#231815" stroke-width="0.3" stroke-linejoin="round" x1="21.372" y1="-24.105" x2="81.371" y2="-84.105"/>
		
			<line fill="none" stroke="#231815" stroke-width="0.3" stroke-linejoin="round" x1="21.372" y1="-18.105" x2="87.371" y2="-84.105"/>
		
			<line fill="none" stroke="#231815" stroke-width="0.3" stroke-linejoin="round" x1="21.372" y1="-12.105" x2="93.371" y2="-84.105"/>
		
			<line fill="none" stroke="#231815" stroke-width="0.3" stroke-linejoin="round" x1="21.372" y1="-6.105" x2="99.371" y2="-84.105"/>
		
			<line fill="none" stroke="#231815" stroke-width="0.3" stroke-linejoin="round" x1="21.372" y1="-0.106" x2="105.371" y2="-84.105"/>
		
			<line fill="none" stroke="#231815" stroke-width="0.3" stroke-linejoin="round" x1="27.372" y1="-0.106" x2="105.371" y2="-78.105"/>
		
			<line fill="none" stroke="#231815" stroke-width="0.3" stroke-linejoin="round" x1="33.371" y1="-0.106" x2="105.371" y2="-72.105"/>
		
			<line fill="none" stroke="#231815" stroke-width="0.3" stroke-linejoin="round" x1="39.371" y1="-0.106" x2="105.371" y2="-66.105"/>
		
			<line fill="none" stroke="#231815" stroke-width="0.3" stroke-linejoin="round" x1="45.371" y1="-0.106" x2="105.371" y2="-60.105"/>
		
			<line fill="none" stroke="#231815" stroke-width="0.3" stroke-linejoin="round" x1="51.371" y1="-0.106" x2="105.371" y2="-54.105"/>
		
			<line fill="none" stroke="#231815" stroke-width="0.3" stroke-linejoin="round" x1="57.371" y1="-0.106" x2="105.371" y2="-48.105"/>
		
			<line fill="none" stroke="#231815" stroke-width="0.3" stroke-linejoin="round" x1="63.371" y1="-0.106" x2="105.371" y2="-42.105"/>
		
			<line fill="none" stroke="#231815" stroke-width="0.3" stroke-linejoin="round" x1="69.371" y1="-0.106" x2="105.371" y2="-36.105"/>
		
			<line fill="none" stroke="#231815" stroke-width="0.3" stroke-linejoin="round" x1="75.371" y1="-0.106" x2="105.371" y2="-30.105"/>
		
			<line fill="none" stroke="#231815" stroke-width="0.3" stroke-linejoin="round" x1="81.371" y1="-0.106" x2="105.371" y2="-24.105"/>
		
			<line fill="none" stroke="#231815" stroke-width="0.3" stroke-linejoin="round" x1="87.371" y1="-0.106" x2="105.371" y2="-18.105"/>
		
			<line fill="none" stroke="#231815" stroke-width="0.3" stroke-linejoin="round" x1="93.371" y1="-0.106" x2="105.371" y2="-12.105"/>
		
			<line fill="none" stroke="#231815" stroke-width="0.3" stroke-linejoin="bevel" x1="0.106" y1="-63.121" x2="10.106" y2="-73.121"/>
	</g>
</pattern>
<rect fill="#FFFFFF" width="169" height="83.133"/>
<line fill="none" stroke="#D9D9D9" stroke-linejoin="round" stroke-miterlimit="10" stroke-dasharray="4,3" x1="106.31" y1="12.36" x2="98.04" y2="50.82"/>
<path fill-rule="evenodd" clip-rule="evenodd" fill="url(#对角线)" d="M5.524,70.89h18.987l11.814-4.11l11.392-6.32l14.346-7.26
	l9.283-2.84l10.97-0.32l12.658,1.9l15.616,6.31l10.97,6.95l5.48,4.74l5.91,1.58l28.69-0.32v6.32l-35.02-0.32l-8.02-5.05l-7.17-5.05
	l-10.13-6.32l-7.592-2.84l-7.173-1.9l-6.328-0.63l-9.705,1.89l-7.595,2.85l-8.017,4.42l-10.126,4.74l-7.595,4.42l-6.329,1.89
	l-10.126,0.95c-2.391-0.52-13.643-0.42-16.034-0.95L5.524,70.89z"/>
<path fill="none" stroke="#000000" stroke-miterlimit="10" d="M4.8,70.85c6.71,0.21,13.384,0.32,17.841,0
	c4.456-0.31,6.495-1.12,8.896-1.89s3.621-1.68,5.508-2.72c1.887-1.05,3.897-2.33,5.812-3.54c1.915-1.2,3.562-2.48,5.678-3.67
	c2.115-1.19,4.582-2.36,7.015-3.47c2.433-1.12,5.234-2.44,7.581-3.22c2.346-0.78,4.469-1.06,6.498-1.46
	c2.029-0.41,3.865-0.82,5.677-0.98c1.813-0.16,2.964-0.1,5.196,0s5.742,0.26,8.197,0.6c2.455,0.33,4.372,0.82,6.533,1.42
	c2.161,0.59,4.514,1.4,6.428,2.15c1.92,0.74,3.19,1.32,5.08,2.29c1.9,0.98,4.61,2.61,6.29,3.57c1.69,0.96,2.43,1.33,3.84,2.17
	c1.4,0.84,3.12,1.84,4.62,2.89c1.49,1.05,3.26,2.59,4.34,3.42c1.08,0.84,1.23,1.1,2.14,1.59c0.92,0.49,2.2,1.21,3.34,1.34
	c1.14,0.12-0.71,0.15,4.45,0.18h26.48"/>
<radialGradient id="SVGID_1_" cx="4.882813e-004" cy="226.7998" r="0.9996" gradientTransform="matrix(-5.7813 22.809 -22.809 -5.7813 5262.9453 1342.1039)" gradientUnits="userSpaceOnUse">
	<stop  offset="0" style="stop-color:#EF7474"/>
	<stop  offset="0.65" style="stop-color:#F6B4A1"/>
	<stop  offset="1" style="stop-color:#FADAD0"/>
</radialGradient>
<path fill-rule="evenodd" clip-rule="evenodd" fill="url(#SVGID_1_)" d="M73.846,48.03c0.841-2.87,0.847-4.35,1.832-7.66
	c0.984-3.32,2.284-8.09,4.075-12.24c1.791-4.16,4.549-7.82,8.246-10.2c3.696-2.39,13.671-9.09,14.341-3.28
	c-0.67,7.83-4.64,32.96-5.649,35.97c-2.156-0.73-6.44-1.55-12.088-2.39C81.745,47.81,78.134,47.52,73.846,48.03z"/>
<radialGradient id="SVGID_2_" cx="0" cy="226.7998" r="1" gradientTransform="matrix(63.076 0 0 63.076 160.4347 -14258)" gradientUnits="userSpaceOnUse">
	<stop  offset="0" style="stop-color:#C4F2FF"/>
	<stop  offset="0.2167" style="stop-color:#C4F2FF"/>
	<stop  offset="0.4333" style="stop-color:#C3F1FF"/>
	<stop  offset="0.65" style="stop-color:#C4F2FF"/>
	<stop  offset="0.7667" style="stop-color:#82DCFA"/>
	<stop  offset="0.8833" style="stop-color:#41C5F5"/>
	<stop  offset="1" style="stop-color:#00B0F0"/>
</radialGradient>
<path fill-rule="evenodd" clip-rule="evenodd" fill="url(#SVGID_2_)" d="M111.14,56.35l-9.5-5.21c-1-1.42,1.31-2.54,3.48-3.32
	c2.17-0.77,11.37,1.08,15.86,2.08c4.49,1.01,7.18,2.67,11.07,3.95c3.89,1.28,8.72,2.62,12.29,3.74c4.27,1.13,6.59,1.35,9.16,1.69
	c2.57,0.33,5.83,0.29,6.27,0.35c-0.56,4.09,1.12,7.54,0.55,9.85c-3.48,0.83-6.54-0.2-10.16,0.1c-3.63,0.3-6.31,0.33-9.7,0.14
	c-3.4,0.04-6.32,0.21-9.64-1.1c-3.32-1.32-8.26-5.37-11.54-7.42C116,59.16,115,58.64,111.14,56.35z"/>
<text transform="matrix(1 0 0 1 52.312 75.6997)"><tspan x="0" y="0" font-family="'Verdana'" font-size="9.96">S</tspan><tspan x="6.779" y="0" font-family="'Verdana'" font-size="9.96">e</tspan><tspan x="12.712" y="0" font-family="'Verdana'" font-size="9.96">p</tspan><tspan x="18.877" y="0" font-family="'Verdana'" font-size="9.96">arat</tspan><tspan x="39.017" y="0" font-family="'Verdana'" font-size="9.96">i</tspan><tspan x="41.7" y="0" font-family="'Verdana'" font-size="9.96">on</tspan></text>
<linearGradient id="SVGID_3_" gradientUnits="userSpaceOnUse" x1="111.3394" y1="88.6431" x2="18.0624" y2="-83.8669">
	<stop  offset="0" style="stop-color:#00B0F0"/>
	<stop  offset="0.24" style="stop-color:#F2F2F2"/>
	<stop  offset="0.5" style="stop-color:#F18F72"/>
	<stop  offset="0.76" style="stop-color:#F2F2F2"/>
	<stop  offset="1" style="stop-color:#00B0F0"/>
</linearGradient>
<path fill="url(#SVGID_3_)" d="M158.7,49.62l5.76,3.44l-6.21,2.55L158.7,49.62z M9.565,32.18l0.28,0.06l0.297,0.05l0.375,0.04
	l0.46,0.04l0.509,0.04l0.57,0.03l0.628,0.03l0.674,0.02l0.745,0.03l0.781,0.02l1.724,0.02l1.897,0.01h2.066l2.22-0.01l2.36-0.01
	l2.478-0.03l2.599-0.03l2.694-0.04l2.777-0.03l2.855-0.04l2.905-0.03l5.931-0.07l5.999-0.05h5.961h2.928l2.881,0.03l2.808,0.04
	l2.74,0.05l2.639,0.07l2.544,0.1l2.418,0.11l2.289,0.13l2.145,0.16l1.984,0.18l3.701,0.41l3.62,0.49l3.504,0.56l3.387,0.6
	l3.272,0.67l3.15,0.7l3.04,0.74l2.92,0.78l2.8,0.8l2.68,0.81l2.57,0.83l2.44,0.83l2.32,0.83l2.2,0.84l2.08,0.8l1.96,0.81l1.56,0.69
	l1.61,0.67l1.68,0.65l1.75,0.64l1.84,0.61l1.92,0.6l1.99,0.57l2.08,0.53l2.16,0.5l2.25,0.46l2.33,0.42l2.42,0.38l2.51,0.33
	l3.07,0.29l-0.14,1.5l-3.13-0.31l-2.54-0.33l-2.46-0.38l-2.36-0.43l-2.28-0.47l-2.2-0.51l-2.12-0.54l-2.03-0.58l-1.95-0.6
	l-1.87-0.63l-1.79-0.65l-1.71-0.67l-1.64-0.68l-1.51-0.68l-1.94-0.79l-2.07-0.8l-2.17-0.83l-2.31-0.82l-2.41-0.83l-2.54-0.82
	l-2.66-0.8l-2.78-0.79l-2.88-0.77l-3.01-0.74l-3.13-0.69l-3.238-0.66l-3.356-0.6l-3.472-0.55L88.265,35l-3.674-0.4l-1.961-0.18
	l-2.12-0.16l-2.27-0.13l-2.408-0.11l-2.523-0.1l-2.634-0.07l-2.727-0.05l-2.805-0.04l-2.867-0.03h-2.924H53.4l-5.992,0.05
	l-5.93,0.07l-2.906,0.03l-2.854,0.04l-2.778,0.03l-2.693,0.04l-2.6,0.03l-2.487,0.03l-2.364,0.01l-2.223,0.01h-2.075l-1.915-0.01
	l-1.735-0.03l-0.791-0.01l-0.746-0.03l-0.697-0.02l-0.649-0.03l-0.593-0.04l-0.54-0.04l-0.476-0.04l-0.441-0.05l-0.391-0.06
	l-0.28-0.06L9.565,32.18z"/>
<text transform="matrix(1 0 0 1 33.8638 48.5996)"><tspan x="0" y="0" font-family="'Verdana'" font-size="9.984">S</tspan><tspan x="6.775" y="0" font-family="'Verdana'" font-size="9.984">ho</tspan><tspan x="19.093" y="0" font-family="'Verdana'" font-size="9.984">c</tspan><tspan x="24.334" y="0" font-family="'Verdana'" font-size="9.984">k</tspan></text>
<line fill="none" stroke="#000000" stroke-width="0.5" stroke-linejoin="round" stroke-miterlimit="10" x1="66.72" y1="45.12" x2="100.32" y2="41.52"/>
<line fill="none" stroke="#000000" stroke-width="0.5" stroke-linejoin="round" stroke-miterlimit="10" x1="129" y1="63.84" x2="107.88" y2="71.64"/>
<line fill="none" stroke="#000000" stroke-width="0.5" stroke-linejoin="round" stroke-miterlimit="10" x1="128.88" y1="34.92" x2="121.32" y2="46.68"/>
<path fill="#00B0F0" d="M131.55,69.36l-3.64-2.6l4.26-1.35L131.55,69.36z M126.19,59.73l0.64-0.79c0.02-0.02,0.04-0.05,0.07-0.07
	l0.75-0.63c0.03-0.02,0.05-0.03,0.08-0.05l0.86-0.47c0.02-0.02,0.05-0.03,0.08-0.04l0.92-0.3l0.53-0.11l0.54-0.04h0.52l0.53,0.05
	l0.52,0.11l0.52,0.16l0.5,0.21l0.48,0.26c0.02,0.02,0.05,0.03,0.07,0.05l0.79,0.6c0.02,0.03,0.05,0.05,0.07,0.08l0.62,0.73
	c0.02,0.03,0.04,0.05,0.05,0.08l0.46,0.83c0.02,0.03,0.03,0.06,0.04,0.09l0.28,0.89l0.09,0.54l0.03,0.52l-0.02,0.53l-0.07,0.52
	l-0.12,0.51l-0.17,0.51l-0.23,0.5l-0.29,0.49c-0.01,0.02-0.02,0.04-0.04,0.06l-0.64,0.79c-0.02,0.02-0.04,0.05-0.07,0.07l-0.76,0.63
	c-0.03,0.02-0.05,0.03-0.08,0.05l-0.84,0.47c-0.07,0.04-0.14,0.06-0.22,0.06l-1.78,0.11l-0.06-1l1.78-0.1l-0.21,0.06l0.85-0.47
	l-0.08,0.05l0.77-0.63l-0.07,0.07l0.63-0.79l-0.04,0.06l0.24-0.4l0.19-0.4l0.15-0.42l0.1-0.43l0.06-0.42l0.03-0.42l-0.03-0.42
	l-0.06-0.4l-0.27-0.89l0.04,0.09l-0.46-0.82l0.05,0.08l-0.61-0.74l0.07,0.08l-0.78-0.61l0.06,0.04l-0.4-0.22l-0.4-0.18l-0.42-0.13
	l-0.43-0.09l-0.42-0.05h-0.45l-0.42,0.03l-0.41,0.07l-0.92,0.3l0.09-0.04l-0.86,0.48l0.08-0.06l-0.76,0.63l0.07-0.07l-0.63,0.79
	L126.19,59.73z"/>
<text transform="matrix(1 0 0 1 61.2959 16.2197)"><tspan x="0" y="0" fill="#C00000" font-family="'Verdana'" font-size="9.96">M</tspan><tspan x="8.394" y="0" fill="#C00000" font-family="'Verdana'" font-size="9.96">&gt;</tspan><tspan x="16.485" y="0" fill="#C00000" font-family="'Verdana'" font-size="9.96">1</tspan></text>
<text transform="matrix(1 0 0 1 109.5801 16.3198)"><tspan x="0" y="0" fill="#17375E" font-family="'Verdana'" font-size="9.96">M</tspan><tspan x="8.394" y="0" fill="#17375E" font-family="'Verdana'" font-size="9.96">&lt;</tspan><tspan x="16.485" y="0" fill="#17375E" font-family="'Verdana'" font-size="9.96">1</tspan></text>
<text transform="matrix(1 0 0 1 108.9702 32.5898)"><tspan x="0" y="0" font-family="'Verdana'" font-size="9.96">S</tspan><tspan x="6.779" y="0" font-family="'Verdana'" font-size="9.96">h</tspan><tspan x="13.082" y="0" font-family="'Verdana'" font-size="9.96">e</tspan><tspan x="18.975" y="0" font-family="'Verdana'" font-size="9.96">ar </tspan><tspan x="32.709" y="0" font-family="'Verdana'" font-size="9.96">l</tspan><tspan x="35.412" y="0" font-family="'Verdana'" font-size="9.96">a</tspan><tspan x="41.394" y="0" font-family="'Verdana'" font-size="9.96">y</tspan><tspan x="46.979" y="0" font-family="'Verdana'" font-size="9.96">er</tspan></text>
<path fill="none" stroke="#00B0F0" stroke-width="0.75" stroke-miterlimit="8" d="M105.67,46.04c-1.51-0.23-1.92,0.5-2.14,0.88
	c-0.22,0.37,0.05,1.04,0.82,1.37c0.76,0.33,2.53,0.61,3.76,0.61c1.22,0,2.75-0.42,3.57-0.62c0.81-0.2,1.39-0.48,2.33-0.64
	c0.94-0.16,2.26-0.61,3.32-0.34c1.06,0.26,1.79,1.2,1.93,1.7c0.14,0.51-0.61,1.18-1.08,1.34c-0.47,0.17-1.32,0.34-2.37-0.39"/>
<path fill="none" stroke="#00B0F0" stroke-width="0.75" stroke-miterlimit="8" d="M115.45,48.86c-1.51-0.23-1.91,0.5-2.13,0.87
	c-0.22,0.38,0.05,1.05,0.81,1.38c0.76,0.33,2.54,0.61,3.76,0.61c1.22,0,2.75-0.43,3.57-0.62c0.82-0.2,1.39-0.48,2.33-0.65
	c0.94-0.16,2.26-0.61,3.32-0.34s1.79,1.2,1.93,1.71c0.15,0.51-0.61,1.17-1.08,1.34c-0.47,0.16-1.32,0.33-2.37-0.4"/>
<path fill="none" stroke="#00B0F0" stroke-width="0.75" stroke-miterlimit="8" d="M125.42,51.55c-1.51-0.24-1.91,0.5-2.14,0.87
	c-0.22,0.38,0.05,1.04,0.82,1.38c0.76,0.33,2.53,0.61,3.76,0.61c1.22-0.01,2.75-0.43,3.57-0.63c0.82-0.19,1.39-0.47,2.33-0.64
	c0.94-0.16,2.26-0.61,3.32-0.34s1.79,1.2,1.93,1.71c0.14,0.5-0.61,1.17-1.08,1.34c-0.47,0.16-1.32,0.33-2.37-0.4"/>
<path fill="none" stroke="#00B0F0" stroke-width="0.75" stroke-miterlimit="8" d="M136.42,54.35c-1.51-0.24-1.91,0.5-2.14,0.87
	c-0.22,0.38,0.05,1.04,0.82,1.38c0.76,0.33,2.53,0.61,3.76,0.61c1.22-0.01,2.75-0.43,3.57-0.63c0.82-0.19,1.39-0.47,2.33-0.64
	c0.94-0.16,2.26-0.61,3.32-0.34s1.79,1.2,1.93,1.71c0.14,0.5-0.61,1.17-1.08,1.34c-0.47,0.16-1.32,0.33-2.37-0.4"/>
</svg>
