<?xml version="1.0" encoding="utf-8"?>
<!-- Generator: Adobe Illustrator 16.0.0, SVG Export Plug-In . SVG Version: 6.00 Build 0)  -->
<!DOCTYPE svg PUBLIC "-//W3C//DTD SVG 1.1//EN" "http://www.w3.org/Graphics/SVG/1.1/DTD/svg11.dtd">
<svg version="1.1" id="layer1" xmlns="http://www.w3.org/2000/svg" xmlns:xlink="http://www.w3.org/1999/xlink" x="0px" y="0px"
	 width="161px" height="111.12px" viewBox="0 0 161 111.12" enable-background="new 0 0 161 111.12" xml:space="preserve">
<pattern  x="-4" y="226.8" width="71.999" height="72" patternUnits="userSpaceOnUse" id="对角线" viewBox="28.856 -76.621 71.999 72" overflow="visible">
	<g>
		<polygon fill="none" points="28.856,-4.621 28.856,-76.621 100.855,-76.621 100.855,-4.621 		"/>
		<line fill="#FFFFFF" x1="5.106" y1="-10.621" x2="11.106" y2="-4.621"/>
		<line fill="#FFFFFF" x1="5.106" y1="-4.621" x2="11.106" y2="-10.621"/>
		
			<line fill="none" stroke="#231815" stroke-width="0.3" stroke-linejoin="round" x1="21.372" y1="-66.105" x2="39.371" y2="-84.105"/>
		
			<line fill="none" stroke="#231815" stroke-width="0.3" stroke-linejoin="round" x1="21.372" y1="-60.105" x2="45.371" y2="-84.105"/>
		
			<line fill="none" stroke="#231815" stroke-width="0.3" stroke-linejoin="round" x1="21.372" y1="-54.105" x2="51.371" y2="-84.105"/>
		
			<line fill="none" stroke="#231815" stroke-width="0.3" stroke-linejoin="round" x1="21.372" y1="-48.105" x2="57.371" y2="-84.105"/>
		
			<line fill="none" stroke="#231815" stroke-width="0.3" stroke-linejoin="round" x1="21.372" y1="-42.105" x2="63.371" y2="-84.105"/>
		
			<line fill="none" stroke="#231815" stroke-width="0.3" stroke-linejoin="round" x1="21.372" y1="-36.105" x2="69.371" y2="-84.105"/>
		
			<line fill="none" stroke="#231815" stroke-width="0.3" stroke-linejoin="round" x1="21.372" y1="-30.105" x2="75.371" y2="-84.105"/>
		
			<line fill="none" stroke="#231815" stroke-width="0.3" stroke-linejoin="round" x1="21.372" y1="-24.105" x2="81.371" y2="-84.105"/>
		
			<line fill="none" stroke="#231815" stroke-width="0.3" stroke-linejoin="round" x1="21.372" y1="-18.105" x2="87.371" y2="-84.105"/>
		
			<line fill="none" stroke="#231815" stroke-width="0.3" stroke-linejoin="round" x1="21.372" y1="-12.105" x2="93.371" y2="-84.105"/>
		
			<line fill="none" stroke="#231815" stroke-width="0.3" stroke-linejoin="round" x1="21.372" y1="-6.105" x2="99.371" y2="-84.105"/>
		
			<line fill="none" stroke="#231815" stroke-width="0.3" stroke-linejoin="round" x1="21.372" y1="-0.106" x2="105.371" y2="-84.105"/>
		
			<line fill="none" stroke="#231815" stroke-width="0.3" stroke-linejoin="round" x1="27.372" y1="-0.106" x2="105.371" y2="-78.105"/>
		
			<line fill="none" stroke="#231815" stroke-width="0.3" stroke-linejoin="round" x1="33.371" y1="-0.106" x2="105.371" y2="-72.105"/>
		
			<line fill="none" stroke="#231815" stroke-width="0.3" stroke-linejoin="round" x1="39.371" y1="-0.106" x2="105.371" y2="-66.105"/>
		
			<line fill="none" stroke="#231815" stroke-width="0.3" stroke-linejoin="round" x1="45.371" y1="-0.106" x2="105.371" y2="-60.105"/>
		
			<line fill="none" stroke="#231815" stroke-width="0.3" stroke-linejoin="round" x1="51.371" y1="-0.106" x2="105.371" y2="-54.105"/>
		
			<line fill="none" stroke="#231815" stroke-width="0.3" stroke-linejoin="round" x1="57.371" y1="-0.106" x2="105.371" y2="-48.105"/>
		
			<line fill="none" stroke="#231815" stroke-width="0.3" stroke-linejoin="round" x1="63.371" y1="-0.106" x2="105.371" y2="-42.105"/>
		
			<line fill="none" stroke="#231815" stroke-width="0.3" stroke-linejoin="round" x1="69.371" y1="-0.106" x2="105.371" y2="-36.105"/>
		
			<line fill="none" stroke="#231815" stroke-width="0.3" stroke-linejoin="round" x1="75.371" y1="-0.106" x2="105.371" y2="-30.105"/>
		
			<line fill="none" stroke="#231815" stroke-width="0.3" stroke-linejoin="round" x1="81.371" y1="-0.106" x2="105.371" y2="-24.105"/>
		
			<line fill="none" stroke="#231815" stroke-width="0.3" stroke-linejoin="round" x1="87.371" y1="-0.106" x2="105.371" y2="-18.105"/>
		
			<line fill="none" stroke="#231815" stroke-width="0.3" stroke-linejoin="round" x1="93.371" y1="-0.106" x2="105.371" y2="-12.105"/>
		
			<line fill="none" stroke="#231815" stroke-width="0.3" stroke-linejoin="bevel" x1="0.106" y1="-63.121" x2="10.106" y2="-73.121"/>
	</g>
</pattern>
<rect fill-rule="evenodd" clip-rule="evenodd" fill="#FFFFFF" width="161" height="111.12"/>
<path fill-rule="evenodd" clip-rule="evenodd" fill="url(#对角线)" d="M8.564,42.68L41.24,42.6v12.03L8.248,67.2
	C8.204,61.74,8.347,48.14,8.564,42.68z"/>
<path fill="none" stroke="#000000" stroke-width="0.5" stroke-miterlimit="10" d="M8.564,42.68L41.24,42.6v12.03L8.248,67.2
	C8.204,61.74,8.347,48.14,8.564,42.68z"/>
<text transform="matrix(1 0 0 1 10.104 15.9399)"><tspan x="0" y="0" font-family="'Verdana'" font-size="7">M</tspan><tspan x="5.759" y="0" font-family="'Verdana'" font-size="7">a</tspan><tspan x="9.978" y="0" font-family="'Verdana'" font-size="7">i</tspan><tspan x="11.919" y="0" font-family="'Verdana'" font-size="7">n</tspan><tspan x="16.363" y="0" font-family="'Verdana'" font-size="7">s</tspan><tspan x="20.052" y="0" font-family="'Verdana'" font-size="7">tr</tspan><tspan x="25.798" y="0" font-family="'Verdana'" font-size="7">e</tspan><tspan x="29.996" y="0" font-family="'Verdana'" font-size="7">a</tspan><tspan x="34.214" y="0" font-family="'Verdana'" font-size="7">m</tspan></text>
<polygon fill-rule="evenodd" clip-rule="evenodd" fill="#C00000" points="18.56,21.87 31.22,21.87 31.22,18.6 37.76,25.14 
	31.22,31.68 31.22,28.41 18.56,28.41 "/>
<text transform="matrix(1 0 0 1 12.104 79.54)"><tspan x="0" y="0" font-family="'Verdana'" font-size="7">Co</tspan><tspan x="9.136" y="0" font-family="'Verdana'" font-size="7">o</tspan><tspan x="13.413" y="0" font-family="'Verdana'" font-size="7">l</tspan><tspan x="15.354" y="0" font-family="'Verdana'" font-size="7">an</tspan><tspan x="24.017" y="0" font-family="'Verdana'" font-size="7">t</tspan></text>
<polygon fill-rule="evenodd" clip-rule="evenodd" fill="#00B0F0" points="38.807,67.17 50.349,61.99 49.007,59 57.666,62.29 
	54.374,70.95 53.032,67.97 41.49,73.15 "/>
<line fill="none" stroke="#000000" stroke-width="0.5" stroke-linejoin="round" stroke-miterlimit="10" x1="90.532" y1="36.99" x2="102.41" y2="24.38"/>
<text transform="matrix(1 0 0 1 83.064 19.6597)"><tspan x="0" y="0" font-family="'Verdana'" font-size="7">S</tspan><tspan x="4.785" y="0" font-family="'Verdana'" font-size="7">hea</tspan><tspan x="17.631" y="0" font-family="'Verdana'" font-size="7">r</tspan><tspan x="20.618" y="0" font-family="'Verdana'" font-size="7"> </tspan><tspan x="23.009" y="0" font-family="'Verdana'" font-size="7">l</tspan><tspan x="24.951" y="0" font-family="'Verdana'" font-size="7">a</tspan><tspan x="29.169" y="0" font-family="'Verdana'" font-size="7">y</tspan><tspan x="33.263" y="0" font-family="'Verdana'" font-size="7">e</tspan><tspan x="37.447" y="0" font-family="'Verdana'" font-size="7">r</tspan></text>
<rect x="1.52" y="38.64" fill-rule="evenodd" clip-rule="evenodd" fill="#FFFFFF" width="9.84" height="32.52"/>
<polygon fill-rule="evenodd" clip-rule="evenodd" fill="url(#对角线)" points="5.555,98.89 137.27,52.13 153.08,51.84 
	153.08,108.31 5.36,108.6 "/>
<polygon fill="none" stroke="#000000" stroke-width="0.5" stroke-miterlimit="10" points="5.555,98.89 137.27,52.13 153.08,51.84 
	153.08,108.31 5.36,108.6 "/>
<path fill-rule="evenodd" clip-rule="evenodd" fill="#FFFFFF" d="M8.6,107.14l128.07-44.5l18.86,0.24
	c0.01,15.39,0.18,32.85,0.19,48.24L9.229,110.37L8.6,107.14z"/>
<rect x="1.76" y="90.466" fill-rule="evenodd" clip-rule="evenodd" fill="#FFFFFF" width="9.84" height="20.653"/>
<line fill="none" stroke="#000000" stroke-width="0.5" stroke-linejoin="round" stroke-miterlimit="10" x1="112.3" y1="83.59" x2="97.7" y2="69.83"/>
<rect x="151.16" y="48.12" fill-rule="evenodd" clip-rule="evenodd" fill="#FFFFFF" width="9.84" height="27.6"/>
<text transform="matrix(1 0 0 1 85.752 92.3296)"><tspan x="0" y="0" font-family="'Verdana'" font-size="7">Co</tspan><tspan x="9.136" y="0" font-family="'Verdana'" font-size="7">o</tspan><tspan x="13.413" y="0" font-family="'Verdana'" font-size="7">li</tspan><tspan x="17.296" y="0" font-family="'Verdana'" font-size="7">ng</tspan><tspan x="26.116" y="0" font-family="'Verdana'" font-size="7"> </tspan><tspan x="28.409" y="0" font-family="'Verdana'" font-size="7">s</tspan><tspan x="32.098" y="0" font-family="'Verdana'" font-size="7">u</tspan><tspan x="36.541" y="0" font-family="'Verdana'" font-size="7">rf</tspan><tspan x="41.989" y="0" font-family="'Verdana'" font-size="7">a</tspan><tspan x="46.222" y="0" font-family="'Verdana'" font-size="7">c</tspan><tspan x="49.911" y="0" font-family="'Verdana'" font-size="7">e</tspan></text>
<path fill="none" stroke="#FFC000" stroke-width="0.75" stroke-miterlimit="10" d="M52.712,44.307
	c-2.619,0.26-2.978,1.66-3.185,2.38c-0.208,0.72,0.528,1.72,1.94,1.939c1.412,0.23,4.495-0.07,6.531-0.59
	c2.036-0.529,4.404-1.89,5.683-2.57c1.28-0.68,2.114-1.39,3.614-2.069c1.5-0.67,3.502-1.98,5.386-1.99
	c1.884-0.01,3.502,1.23,3.956,2.02c0.454,0.78-0.52,2.22-1.232,2.69c-0.712,0.48-2.054,1.13-4.125,0.359"/>
<path fill="none" stroke="#FFC000" stroke-width="0.75" stroke-miterlimit="10" d="M70.225,44.817
	c-2.619,0.26-2.979,1.649-3.186,2.37c-0.208,0.72,0.529,1.72,1.941,1.939c1.411,0.23,4.494-0.06,6.53-0.59
	c2.036-0.529,4.404-1.88,5.684-2.57c1.28-0.68,2.113-1.39,3.613-2.06c1.5-0.68,3.502-1.99,5.386-2c1.885,0,3.502,1.23,3.955,2.02
	c0.455,0.79-0.519,2.22-1.231,2.7c-0.712,0.471-2.054,1.12-4.125,0.35"/>
<path fill="none" stroke="#FFC000" stroke-width="0.75" stroke-miterlimit="10" d="M87.993,45.027
	c-2.619,0.26-2.978,1.65-3.186,2.37c-0.207,0.72,0.529,1.72,1.941,1.95c1.412,0.22,4.495-0.07,6.531-0.601
	c2.035-0.521,4.408-1.88,5.688-2.56c1.27-0.69,2.11-1.39,3.61-2.07c1.5-0.68,3.5-1.99,5.38-1.99c1.891-0.01,3.51,1.23,3.96,2.01
	c0.45,0.79-0.521,2.22-1.229,2.701c-0.711,0.469-2.061,1.119-4.131,0.35"/>
<path fill="none" stroke="#FFC000" stroke-width="0.75" stroke-miterlimit="10" d="M107.527,44.977
	c-2.621,0.261-2.98,1.66-3.18,2.381c-0.211,0.72,0.52,1.72,1.939,1.939c1.41,0.23,4.49-0.06,6.529-0.59
	c2.031-0.529,4.4-1.89,5.681-2.57c1.28-0.68,2.11-1.39,3.61-2.069c1.5-0.67,3.51-1.98,5.39-1.99c1.88-0.01,3.5,1.23,3.96,2.02
	c0.449,0.78-0.52,2.22-1.24,2.69c-0.71,0.48-2.05,1.131-4.119,0.36"/>
</svg>
