<?xml version="1.0" encoding="utf-8"?>
<!-- Generator: Adobe Illustrator 16.0.0, SVG Export Plug-In . SVG Version: 6.00 Build 0)  -->
<!DOCTYPE svg PUBLIC "-//W3C//DTD SVG 1.1//EN" "http://www.w3.org/Graphics/SVG/1.1/DTD/svg11.dtd">
<svg version="1.1" id="layer1" xmlns="http://www.w3.org/2000/svg" xmlns:xlink="http://www.w3.org/1999/xlink" x="0px" y="0px"
	 width="164.667px" height="81.333px" viewBox="0 0 164.667 81.333" enable-background="new 0 0 164.667 81.333"
	 xml:space="preserve">
<pattern  x="-5.667" y="222" width="71.999" height="72" patternUnits="userSpaceOnUse" id="对角线" viewBox="28.856 -76.621 71.999 72" overflow="visible">
	<g>
		<polygon fill="none" points="28.856,-4.621 28.856,-76.621 100.855,-76.621 100.855,-4.621 		"/>
		<line fill="#FFFFFF" x1="5.106" y1="-10.621" x2="11.106" y2="-4.621"/>
		<line fill="#FFFFFF" x1="5.106" y1="-4.621" x2="11.106" y2="-10.621"/>
		
			<line fill="none" stroke="#231815" stroke-width="0.3" stroke-linejoin="round" x1="21.372" y1="-66.105" x2="39.371" y2="-84.105"/>
		
			<line fill="none" stroke="#231815" stroke-width="0.3" stroke-linejoin="round" x1="21.372" y1="-60.105" x2="45.371" y2="-84.105"/>
		
			<line fill="none" stroke="#231815" stroke-width="0.3" stroke-linejoin="round" x1="21.372" y1="-54.105" x2="51.371" y2="-84.105"/>
		
			<line fill="none" stroke="#231815" stroke-width="0.3" stroke-linejoin="round" x1="21.372" y1="-48.105" x2="57.371" y2="-84.105"/>
		
			<line fill="none" stroke="#231815" stroke-width="0.3" stroke-linejoin="round" x1="21.372" y1="-42.105" x2="63.371" y2="-84.105"/>
		
			<line fill="none" stroke="#231815" stroke-width="0.3" stroke-linejoin="round" x1="21.372" y1="-36.105" x2="69.371" y2="-84.105"/>
		
			<line fill="none" stroke="#231815" stroke-width="0.3" stroke-linejoin="round" x1="21.372" y1="-30.105" x2="75.371" y2="-84.105"/>
		
			<line fill="none" stroke="#231815" stroke-width="0.3" stroke-linejoin="round" x1="21.372" y1="-24.105" x2="81.371" y2="-84.105"/>
		
			<line fill="none" stroke="#231815" stroke-width="0.3" stroke-linejoin="round" x1="21.372" y1="-18.105" x2="87.371" y2="-84.105"/>
		
			<line fill="none" stroke="#231815" stroke-width="0.3" stroke-linejoin="round" x1="21.372" y1="-12.105" x2="93.371" y2="-84.105"/>
		
			<line fill="none" stroke="#231815" stroke-width="0.3" stroke-linejoin="round" x1="21.372" y1="-6.105" x2="99.371" y2="-84.105"/>
		
			<line fill="none" stroke="#231815" stroke-width="0.3" stroke-linejoin="round" x1="21.372" y1="-0.106" x2="105.371" y2="-84.105"/>
		
			<line fill="none" stroke="#231815" stroke-width="0.3" stroke-linejoin="round" x1="27.372" y1="-0.106" x2="105.371" y2="-78.105"/>
		
			<line fill="none" stroke="#231815" stroke-width="0.3" stroke-linejoin="round" x1="33.371" y1="-0.106" x2="105.371" y2="-72.105"/>
		
			<line fill="none" stroke="#231815" stroke-width="0.3" stroke-linejoin="round" x1="39.371" y1="-0.106" x2="105.371" y2="-66.105"/>
		
			<line fill="none" stroke="#231815" stroke-width="0.3" stroke-linejoin="round" x1="45.371" y1="-0.106" x2="105.371" y2="-60.105"/>
		
			<line fill="none" stroke="#231815" stroke-width="0.3" stroke-linejoin="round" x1="51.371" y1="-0.106" x2="105.371" y2="-54.105"/>
		
			<line fill="none" stroke="#231815" stroke-width="0.3" stroke-linejoin="round" x1="57.371" y1="-0.106" x2="105.371" y2="-48.105"/>
		
			<line fill="none" stroke="#231815" stroke-width="0.3" stroke-linejoin="round" x1="63.371" y1="-0.106" x2="105.371" y2="-42.105"/>
		
			<line fill="none" stroke="#231815" stroke-width="0.3" stroke-linejoin="round" x1="69.371" y1="-0.106" x2="105.371" y2="-36.105"/>
		
			<line fill="none" stroke="#231815" stroke-width="0.3" stroke-linejoin="round" x1="75.371" y1="-0.106" x2="105.371" y2="-30.105"/>
		
			<line fill="none" stroke="#231815" stroke-width="0.3" stroke-linejoin="round" x1="81.371" y1="-0.106" x2="105.371" y2="-24.105"/>
		
			<line fill="none" stroke="#231815" stroke-width="0.3" stroke-linejoin="round" x1="87.371" y1="-0.106" x2="105.371" y2="-18.105"/>
		
			<line fill="none" stroke="#231815" stroke-width="0.3" stroke-linejoin="round" x1="93.371" y1="-0.106" x2="105.371" y2="-12.105"/>
		
			<line fill="none" stroke="#231815" stroke-width="0.3" stroke-linejoin="bevel" x1="0.106" y1="-63.121" x2="10.106" y2="-73.121"/>
	</g>
</pattern>
<rect fill-rule="evenodd" clip-rule="evenodd" fill="#FFFFFF" width="164.667" height="81.333"/>
<linearGradient id="SVGID_1_" gradientUnits="userSpaceOnUse" x1="92.8867" y1="93.7705" x2="48.4657" y2="-20.8895">
	<stop  offset="0" style="stop-color:#00B0F0"/>
	<stop  offset="0.25" style="stop-color:#FFE699"/>
	<stop  offset="0.5" style="stop-color:#F18F72"/>
	<stop  offset="0.75" style="stop-color:#FFE699"/>
	<stop  offset="1" style="stop-color:#00B0F0"/>
</linearGradient>
<path fill="url(#SVGID_1_)" d="M149.673,59.95l5.98,3.03l-6.01,2.97L149.673,59.95z M6.193,61.41l1.097-0.03l1.21-0.03l1.332-0.04
	l1.435-0.04l1.532-0.05l1.616-0.06l1.696-0.05l1.763-0.06l1.833-0.06l1.881-0.07l3.889-0.14l4.002-0.15l4.04-0.16l4.01-0.15
	l3.914-0.17l1.897-0.08l1.851-0.09l1.791-0.08l1.723-0.08l1.645-0.08l1.572-0.08l1.463-0.08l1.371-0.07l1.257-0.08l1.139-0.07
	l1.011-0.07l0.873-0.07l1.162-0.23l1.14-0.29l1.086-0.36l1.037-0.4l0.976-0.45L65.382,57l0.889-0.53l0.855-0.57l1.622-1.22
	l1.497-1.32l1.407-1.35l1.338-1.37l1.311-1.36l1.292-1.3l1.312-1.21l0.687-0.57l0.696-0.52l0.707-0.48l0.736-0.43l0.766-0.38
	l0.799-0.31l0.833-0.25l0.866-0.17l0.902-0.09l0.934-0.01l0.973,0.08l0.99,0.16l0.997,0.23l1.031,0.3l1.026,0.36l1.052,0.42
	l1.064,0.48l1.064,0.53l1.077,0.56l1.078,0.6l2.17,1.32l2.19,1.42l2.16,1.49l2.13,1.52l2.09,1.52l2.02,1.49l1.93,1.42l1.83,1.31
	l0.86,0.6l0.83,0.56l0.8,0.52l0.76,0.48l0.71,0.4l0.67,0.36l-0.14-0.06l0.59,0.18l0.62,0.14l0.75,0.14l0.82,0.11l0.93,0.1l1.01,0.08
	l1.07,0.07l1.15,0.05l1.21,0.05l1.26,0.03l1.31,0.01l1.37,0.01l2.82-0.01l2.92-0.05l2.99-0.05l3-0.07l2.96-0.08l2.88-0.06l2.75-0.06
	l2.05-0.01l0.01,1.5l-2.02,0.01l-2.76,0.06l-2.87,0.06l-2.97,0.08l-3,0.07l-2.99,0.05l-2.95,0.05l-2.83,0.01l-1.38-0.01l-1.32-0.02
	l-1.29-0.02l-1.22-0.05l-1.17-0.06l-1.11-0.07l-1.05-0.08l-0.95-0.11l-0.91-0.12l-0.8-0.15l-0.73-0.16l-0.58-0.18
	c-0.05-0.02-0.09-0.03-0.14-0.06l-0.71-0.38l-0.76-0.44l-0.77-0.48l-0.83-0.53l-0.85-0.58l-0.88-0.61l-1.84-1.32l-1.94-1.42l-2-1.49
	l-2.08-1.51l-2.11-1.5l-2.13-1.48l-2.14-1.39l-2.12-1.29l-1.054-0.58l-1.042-0.55l-1.022-0.5l-1.004-0.45l-0.987-0.4l-0.963-0.34
	l-0.935-0.28l-0.909-0.21l-0.868-0.15l-0.838-0.07h-0.8l-0.757,0.07l-0.733,0.14l-0.713,0.21l-0.683,0.26l-0.668,0.33l-0.655,0.38
	l-0.645,0.43l-0.638,0.48l-0.629,0.51l-1.262,1.16l-1.277,1.29l-1.318,1.36l-1.369,1.41l-1.462,1.4l-1.58,1.38l-1.7,1.28
	l-0.913,0.61l-0.966,0.57l-1.011,0.52l-1.059,0.49l-1.118,0.43l-1.172,0.38l-1.229,0.31l-1.336,0.26l-0.878,0.06l-1.024,0.08
	l-1.139,0.07l-1.271,0.08l-1.372,0.07l-1.468,0.08l-1.57,0.08l-1.652,0.08l-1.722,0.08l-1.795,0.08l-1.851,0.08l-1.899,0.09
	l-3.92,0.16l-4.01,0.16l-4.041,0.16l-4.005,0.15l-3.886,0.14l-1.892,0.07l-1.823,0.05l-1.773,0.07l-1.69,0.05l-1.622,0.06
	l-1.536,0.05L9.88,62.81l-1.338,0.04l-1.209,0.03l-1.098,0.03L6.193,61.41z"/>
<rect x="58.573" y="47.525" transform="matrix(-0.8393 0.5436 -0.5436 -0.8393 162.2764 55.2955)" fill-rule="evenodd" clip-rule="evenodd" fill="#FFFFFF" width="28.787" height="8.21"/>
<rect x="3.933" y="68.16" fill-rule="evenodd" clip-rule="evenodd" fill="url(#对角线)" width="153.96" height="5.52"/>
<line fill="none" stroke="#000000" stroke-miterlimit="10" x1="3.933" y1="67.44" x2="157.993" y2="67.44"/>
<path fill="#00B0F0" d="M95.293,50.25l4.67,4.81l-6.654,0.85L95.293,50.25z M100.923,63.33l-0.76,0.52l-0.87,0.49l-0.95,0.43
	l-0.99,0.37l-1.05,0.31l-1.09,0.26l-1.125,0.2l-1.153,0.14l-1.167,0.07l-1.181,0.02l-1.178-0.04L88.236,66l-1.163-0.17l-1.137-0.22
	l-1.108-0.3l-1.075-0.36l-1.001-0.42l-0.903-0.45l-0.813-0.51l-0.707-0.55l-0.602-0.57l-0.506-0.62l-0.399-0.64
	c-0.013-0.02-0.024-0.04-0.034-0.06l-0.255-0.6c-0.011-0.03-0.021-0.06-0.027-0.09l-0.143-0.61c-0.006-0.03-0.01-0.06-0.012-0.08
	l-0.037-0.62c-0.002-0.03-0.001-0.06,0.003-0.1l0.083-0.62c0.003-0.03,0.009-0.05,0.017-0.08l0.188-0.61
	c0.008-0.03,0.018-0.05,0.03-0.08l0.3-0.61c0.011-0.02,0.025-0.04,0.04-0.06l0.42-0.6l0.583-0.63l0.694-0.59l0.799-0.55l0.871-0.49
	l0.935-0.43l1.002-0.37l1.041-0.32l1.097-0.26l1.124-0.19l1.15-0.14l1.167-0.08l1.178-0.02l1.184,0.05l1.17,0.09
	c0.027,0.01,0.053,0.01,0.078,0.02l1.895,0.47l-0.24,0.97l-1.895-0.47l0.078,0.01l-1.125-0.1l-1.126-0.04l-1.132,0.02l-1.113,0.07
	l-1.1,0.14l-1.066,0.18l-1.033,0.24l-0.984,0.29l-0.933,0.35l-0.865,0.39l-0.794,0.45l-0.716,0.48l-0.611,0.52l-0.497,0.52
	l-0.42,0.59l0.04-0.06l-0.3,0.6l0.03-0.07l-0.187,0.61l0.017-0.08l-0.082,0.63l0.003-0.1l0.038,0.61l-0.012-0.08l0.142,0.62
	l-0.027-0.09l0.255,0.6l-0.034-0.06l0.321,0.53l0.424,0.52l0.523,0.51l0.628,0.49l0.732,0.46l0.837,0.43L84.073,64l1.01,0.35
	l1.052,0.27l1.083,0.23l1.102,0.16l1.122,0.09l1.132,0.04l1.129-0.01l1.113-0.08l1.097-0.13l1.07-0.19l1.04-0.24l0.98-0.29
	l0.93-0.34l0.87-0.4l0.8-0.44l0.75-0.52L100.923,63.33z"/>
<path fill="none" stroke="#00B0F0" stroke-width="0.75" stroke-miterlimit="10" d="M58.349,62.2c-0.769,0.7-0.442,1.4-0.28,1.76
	c0.161,0.37,0.718,0.64,1.249,0.43c0.531-0.22,1.441-1.03,1.936-1.72s0.833-1.81,1.032-2.4c0.2-0.59,0.246-1.09,0.518-1.72
	c0.273-0.63,0.508-1.66,1.118-2.08c0.611-0.42,1.531-0.24,1.929,0.01s0.538,1.1,0.457,1.47c-0.08,0.37-0.31,0.95-1.229,1.07"/>
<path fill="none" stroke="#00B0F0" stroke-width="0.75" stroke-miterlimit="10" d="M64.504,57.98c-1.062,1.02-0.413,2.25-0.089,2.89
	c0.324,0.64,1.247,1.21,2.033,0.96c0.786-0.26,2.044-1.44,2.68-2.49c0.636-1.05,0.94-2.87,1.135-3.81
	c0.196-0.94,0.168-1.76,0.468-2.76c0.3-1.01,0.464-2.68,1.332-3.26c0.869-0.59,2.342-0.09,3.011,0.4
	c0.669,0.49,1.056,1.94,1.003,2.54c-0.052,0.6-0.294,1.54-1.704,1.55"/>
<path fill="none" stroke="#00B0F0" stroke-width="0.75" stroke-miterlimit="10" d="M73.422,52.38c-0.83,1.29,0.145,2.4,0.639,2.97
	c0.494,0.58,1.584,0.94,2.324,0.49c0.74-0.45,1.73-1.97,2.116-3.19c0.386-1.23,0.236-3.17,0.199-4.18
	c-0.038-1.01-0.275-1.85-0.222-2.95c0.054-1.1-0.201-2.85,0.541-3.66c0.741-0.81,2.374-0.66,3.183-0.32
	c0.808,0.34,1.572,1.73,1.669,2.36c0.098,0.62,0.088,1.64-1.351,2"/>
<text transform="matrix(1 0 0 1 110.3931 42.9102)"><tspan x="0" y="0" font-family="'ArialMT'" font-size="9">S</tspan><tspan x="6.003" y="0" font-family="'ArialMT'" font-size="9">epa</tspan><tspan x="21.073" y="0" font-family="'ArialMT'" font-size="9">r</tspan><tspan x="24.07" y="0" font-family="'ArialMT'" font-size="9">a</tspan><tspan x="29.093" y="0" font-family="'ArialMT'" font-size="9">t</tspan><tspan x="31.594" y="0" font-family="'ArialMT'" font-size="9">i</tspan><tspan x="33.639" y="0" font-family="'ArialMT'" font-size="9">on</tspan><tspan x="43.685" y="0" font-family="'ArialMT'" font-size="9"> </tspan></text>
<text transform="matrix(1 0 0 1 118.6729 53.71)"><tspan x="0" y="0" font-family="'ArialMT'" font-size="9.024">b</tspan><tspan x="5.019" y="0" font-family="'ArialMT'" font-size="9.024">u</tspan><tspan x="10.064" y="0" font-family="'ArialMT'" font-size="9.024">b</tspan><tspan x="15.083" y="0" font-family="'ArialMT'" font-size="9.024">b</tspan><tspan x="20.129" y="0" font-family="'ArialMT'" font-size="9.024">l</tspan><tspan x="22.152" y="0" font-family="'ArialMT'" font-size="9.024">e</tspan></text>
<line fill="none" stroke="#000000" stroke-width="0.5" stroke-linejoin="round" stroke-miterlimit="10" x1="55.143" y1="47.88" x2="66.437" y2="55.43"/>
<text transform="matrix(1 0 0 1 26.9009 43.1499)"><tspan x="0" y="0" font-family="'ArialMT'" font-size="9">S</tspan><tspan x="6.003" y="0" font-family="'ArialMT'" font-size="9">hea</tspan><tspan x="21.073" y="0" font-family="'ArialMT'" font-size="9">r </tspan></text>
<text transform="matrix(1 0 0 1 29.1812 53.9502)"><tspan x="0" y="0" font-family="'ArialMT'" font-size="9">l</tspan><tspan x="2.026" y="0" font-family="'ArialMT'" font-size="9">a</tspan><tspan x="7.05" y="0" font-family="'ArialMT'" font-size="9">y</tspan><tspan x="11.496" y="0" font-family="'ArialMT'" font-size="9">e</tspan><tspan x="16.519" y="0" font-family="'ArialMT'" font-size="9">r</tspan></text>
<line fill="none" stroke="#000000" stroke-width="0.5" stroke-linejoin="round" stroke-miterlimit="10" x1="108.693" y1="45.86" x2="95.813" y2="57.77"/>
<line fill="none" stroke="#D9D9D9" stroke-linejoin="round" stroke-miterlimit="10" stroke-dasharray="4,3" x1="97.573" y1="3.6" x2="55.893" y2="57.81"/>
<line fill="none" stroke="#D9D9D9" stroke-linejoin="round" stroke-miterlimit="10" stroke-dasharray="4,3" x1="61.773" y1="4.32" x2="107.343" y2="55.47"/>
<text transform="matrix(1 0 0 1 22.4609 14.5)"><tspan x="0" y="0" font-family="'ArialMT'" font-size="9">I</tspan><tspan x="2.5" y="0" font-family="'ArialMT'" font-size="9">n</tspan><tspan x="7.542" y="0" font-family="'ArialMT'" font-size="9">c</tspan><tspan x="12.087" y="0" font-family="'ArialMT'" font-size="9">i</tspan><tspan x="14.113" y="0" font-family="'ArialMT'" font-size="9">den</tspan><tspan x="29.184" y="0" font-family="'ArialMT'" font-size="9">t </tspan></text>
<text transform="matrix(1 0 0 1 26.541 25.2998)"><tspan x="0" y="0" font-family="'ArialMT'" font-size="9">s</tspan><tspan x="4.554" y="0" font-family="'ArialMT'" font-size="9">ho</tspan><tspan x="14.601" y="0" font-family="'ArialMT'" font-size="9">c</tspan><tspan x="19.155" y="0" font-family="'ArialMT'" font-size="9">k</tspan></text>
<line fill="none" stroke="#000000" stroke-width="0.5" stroke-linejoin="round" stroke-miterlimit="10" x1="55.871" y1="14.83" x2="69.306" y2="14.7"/>
<text transform="matrix(1 0 0 1 109.5532 15.0498)"><tspan x="0" y="0" font-family="'ArialMT'" font-size="9">Re</tspan><tspan x="11.505" y="0" font-family="'ArialMT'" font-size="9">fl</tspan><tspan x="16.059" y="0" font-family="'ArialMT'" font-size="9">e</tspan><tspan x="21.082" y="0" font-family="'ArialMT'" font-size="9">c</tspan><tspan x="25.636" y="0" font-family="'ArialMT'" font-size="9">t</tspan><tspan x="28.137" y="0" font-family="'ArialMT'" font-size="9">e</tspan><tspan x="33.178" y="0" font-family="'ArialMT'" font-size="9">d</tspan><tspan x="38.202" y="0" font-family="'ArialMT'" font-size="9"> </tspan></text>
<text transform="matrix(1 0 0 1 116.7529 25.8501)"><tspan x="0" y="0" font-family="'ArialMT'" font-size="9.024">s</tspan><tspan x="4.539" y="0" font-family="'ArialMT'" font-size="9.024">h</tspan><tspan x="9.558" y="0" font-family="'ArialMT'" font-size="9.024">o</tspan><tspan x="14.604" y="0" font-family="'ArialMT'" font-size="9.024">c</tspan><tspan x="19.152" y="0" font-family="'ArialMT'" font-size="9.024">k</tspan></text>
<line fill="none" stroke="#000000" stroke-width="0.5" stroke-linejoin="round" stroke-miterlimit="10" x1="93.177" y1="10.59" x2="106.173" y2="16.76"/>
</svg>
