<?xml version="1.0" encoding="utf-8"?>
<!-- Generator: Adobe Illustrator 16.0.0, SVG Export Plug-In . SVG Version: 6.00 Build 0)  -->
<!DOCTYPE svg PUBLIC "-//W3C//DTD SVG 1.1//EN" "http://www.w3.org/Graphics/SVG/1.1/DTD/svg11.dtd">
<svg version="1.1" id="layer1" xmlns="http://www.w3.org/2000/svg" xmlns:xlink="http://www.w3.org/1999/xlink" x="0px" y="0px"
	 width="305.334px" height="198.333px" viewBox="0 0 305.334 198.333" enable-background="new 0 0 305.334 198.333"
	 xml:space="preserve">
<path fill-rule="evenodd" clip-rule="evenodd" d="M11.758,14.563h2.87v0.55h-1.8v41.47h1.8v0.55h-2.87V14.563z M105.31,14.563h2.87
	v42.57h-2.87v-0.55h1.8v-41.47h-1.8V14.563z"/>
<path fill-rule="evenodd" clip-rule="evenodd" d="M15.958,16.273h2.646v0.48H16.96v28.59h1.644v0.47h-2.646V16.273z M101.35,16.273
	h2.64v29.54h-2.64v-0.47h1.64v-28.59h-1.64V16.273z"/>
<text transform="matrix(1 0 0 1 25.9038 19.3936)" font-family="'CambriaMath'" font-size="7.32">′</text>
<path d="M33.291,21.423c-0.071,0.311-0.107,0.551-0.107,0.72c0,0.129,0.021,0.224,0.063,0.282c0.042,0.059,0.108,0.088,0.199,0.088
	c0.097,0,0.201-0.04,0.311-0.119c0.11-0.08,0.266-0.231,0.467-0.455l0.277,0.272c-0.295,0.314-0.546,0.537-0.753,0.667
	c-0.208,0.129-0.428,0.194-0.662,0.194c-0.201,0-0.361-0.066-0.481-0.199c-0.12-0.133-0.18-0.31-0.18-0.53
	c0-0.175,0.039-0.366,0.117-0.574l-0.058-0.02c-0.321,0.451-0.625,0.783-0.912,0.997c-0.287,0.214-0.581,0.321-0.882,0.321
	c-0.302,0-0.534-0.086-0.696-0.26c-0.162-0.173-0.243-0.414-0.243-0.722c0-0.204,0.047-0.494,0.141-0.871l0.316-1.274
	c0.087-0.354,0.131-0.603,0.131-0.749c0-0.13-0.021-0.224-0.063-0.282c-0.042-0.058-0.108-0.087-0.199-0.087
	c-0.101,0-0.207,0.042-0.319,0.124s-0.265,0.232-0.459,0.45l-0.277-0.272c0.276-0.279,0.483-0.47,0.623-0.574
	c0.14-0.104,0.273-0.177,0.401-0.221s0.271-0.065,0.43-0.065c0.208,0,0.372,0.069,0.491,0.209c0.12,0.139,0.18,0.328,0.18,0.564
	c0,0.256-0.05,0.576-0.151,0.958l-0.214,0.841c-0.055,0.214-0.095,0.381-0.119,0.501c-0.024,0.12-0.042,0.224-0.054,0.312
	c-0.011,0.087-0.017,0.16-0.017,0.219c0,0.224,0.037,0.385,0.112,0.484c0.074,0.099,0.196,0.148,0.365,0.148
	c0.136,0,0.283-0.054,0.44-0.163c0.157-0.108,0.324-0.272,0.501-0.491s0.318-0.431,0.425-0.637c0.107-0.206,0.195-0.459,0.263-0.761
	l0.462-2.106H34L33.291,21.423z"/>
<text transform="matrix(1 0 0 1 34.9038 19.3936)" font-family="'CambriaMath'" font-size="7.32">′</text>
<path d="M24.291,21.423c-0.071,0.311-0.107,0.551-0.107,0.72c0,0.129,0.021,0.224,0.063,0.282c0.042,0.059,0.108,0.088,0.199,0.088
	c0.097,0,0.201-0.04,0.311-0.119c0.11-0.08,0.266-0.231,0.467-0.455l0.277,0.272c-0.295,0.314-0.546,0.537-0.753,0.667
	c-0.208,0.129-0.428,0.194-0.662,0.194c-0.201,0-0.361-0.066-0.481-0.199c-0.12-0.133-0.18-0.31-0.18-0.53
	c0-0.175,0.039-0.366,0.117-0.574l-0.058-0.02c-0.321,0.451-0.625,0.783-0.912,0.997c-0.287,0.214-0.581,0.321-0.882,0.321
	c-0.302,0-0.534-0.086-0.696-0.26c-0.162-0.173-0.243-0.414-0.243-0.722c0-0.204,0.047-0.494,0.141-0.871l0.316-1.274
	c0.087-0.354,0.131-0.603,0.131-0.749c0-0.13-0.021-0.224-0.063-0.282c-0.042-0.058-0.108-0.087-0.199-0.087
	c-0.101,0-0.207,0.042-0.319,0.124s-0.265,0.232-0.459,0.45l-0.277-0.272c0.276-0.279,0.483-0.47,0.623-0.574
	c0.14-0.104,0.273-0.177,0.401-0.221s0.271-0.065,0.43-0.065c0.208,0,0.372,0.069,0.491,0.209c0.12,0.139,0.18,0.328,0.18,0.564
	c0,0.256-0.05,0.576-0.151,0.958l-0.214,0.841c-0.055,0.214-0.095,0.381-0.119,0.501c-0.024,0.12-0.042,0.224-0.054,0.312
	c-0.011,0.087-0.017,0.16-0.017,0.219c0,0.224,0.037,0.385,0.112,0.484c0.074,0.099,0.196,0.148,0.365,0.148
	c0.136,0,0.283-0.054,0.44-0.163c0.157-0.108,0.324-0.272,0.501-0.491s0.318-0.431,0.425-0.637c0.107-0.206,0.195-0.459,0.263-0.761
	l0.462-2.106H25L24.291,21.423z"/>
<path d="M54.291,21.423c-0.071,0.311-0.107,0.551-0.107,0.72c0,0.129,0.021,0.224,0.063,0.282c0.042,0.059,0.108,0.088,0.199,0.088
	c0.097,0,0.201-0.04,0.311-0.119c0.11-0.08,0.266-0.231,0.467-0.455l0.277,0.272c-0.295,0.314-0.546,0.537-0.753,0.667
	c-0.208,0.129-0.428,0.194-0.662,0.194c-0.201,0-0.361-0.066-0.481-0.199c-0.12-0.133-0.18-0.31-0.18-0.53
	c0-0.175,0.039-0.366,0.117-0.574l-0.058-0.02c-0.321,0.451-0.625,0.783-0.912,0.997c-0.287,0.214-0.581,0.321-0.882,0.321
	c-0.302,0-0.534-0.086-0.696-0.26c-0.162-0.173-0.243-0.414-0.243-0.722c0-0.204,0.047-0.494,0.141-0.871l0.316-1.274
	c0.087-0.354,0.131-0.603,0.131-0.749c0-0.13-0.021-0.224-0.063-0.282c-0.042-0.058-0.108-0.087-0.199-0.087
	c-0.101,0-0.207,0.042-0.319,0.124s-0.265,0.232-0.459,0.45l-0.277-0.272c0.276-0.279,0.483-0.47,0.623-0.574
	c0.14-0.104,0.273-0.177,0.401-0.221s0.271-0.065,0.43-0.065c0.208,0,0.372,0.069,0.491,0.209c0.12,0.139,0.18,0.328,0.18,0.564
	c0,0.256-0.05,0.576-0.151,0.958l-0.214,0.841c-0.055,0.214-0.095,0.381-0.119,0.501c-0.024,0.12-0.042,0.224-0.054,0.312
	c-0.011,0.087-0.017,0.16-0.017,0.219c0,0.224,0.037,0.385,0.112,0.484c0.074,0.099,0.196,0.148,0.365,0.148
	c0.136,0,0.283-0.054,0.44-0.163c0.157-0.108,0.324-0.272,0.501-0.491s0.318-0.431,0.425-0.637c0.107-0.206,0.195-0.459,0.263-0.761
	l0.462-2.106H55L54.291,21.423z"/>
<text transform="matrix(1 0 0 1 55.9038 19.3936)" font-family="'CambriaMath'" font-size="7.32">′</text>
<path d="M60.635,23.076c-0.094,0-0.172-0.023-0.236-0.07c-0.063-0.047-0.114-0.114-0.153-0.2c-0.039-0.086-0.066-0.187-0.083-0.304
	s-0.024-0.245-0.024-0.384c0-0.185,0.011-0.383,0.034-0.593c0.022-0.211,0.052-0.423,0.087-0.637l0.205-1.347
	c0.013-0.078,0.023-0.151,0.031-0.221c0.008-0.07,0.012-0.121,0.012-0.153c0-0.101-0.016-0.183-0.048-0.248
	c-0.033-0.065-0.088-0.097-0.166-0.097c-0.062,0-0.128,0.019-0.199,0.056c-0.072,0.037-0.144,0.085-0.217,0.143
	c-0.073,0.059-0.143,0.121-0.211,0.188c-0.068,0.066-0.131,0.129-0.189,0.187l-0.233-0.272c0.1-0.104,0.207-0.207,0.321-0.309
	c0.113-0.102,0.233-0.194,0.36-0.277c0.126-0.083,0.259-0.149,0.399-0.199c0.139-0.05,0.282-0.075,0.428-0.075
	c0.123,0,0.224,0.02,0.302,0.061c0.078,0.041,0.139,0.094,0.182,0.161c0.044,0.066,0.074,0.139,0.09,0.219
	c0.017,0.08,0.024,0.158,0.024,0.236c0,0.045-0.001,0.089-0.005,0.131c-0.003,0.042-0.008,0.081-0.015,0.117l-0.272,1.761
	c-0.029,0.185-0.054,0.365-0.073,0.542s-0.029,0.333-0.029,0.469s0.008,0.247,0.024,0.331c0.016,0.084,0.047,0.126,0.093,0.126
	c0.107,0,0.241-0.042,0.403-0.129c0.162-0.085,0.333-0.204,0.511-0.355c0.178-0.15,0.356-0.329,0.535-0.535
	c0.178-0.206,0.338-0.429,0.481-0.669c0.143-0.24,0.258-0.493,0.348-0.758c0.089-0.266,0.134-0.534,0.134-0.803
	c0-0.117-0.025-0.207-0.076-0.27c-0.05-0.063-0.129-0.095-0.236-0.095c-0.136,0-0.262,0.053-0.377,0.158
	c-0.115,0.105-0.234,0.244-0.357,0.416l-0.277-0.248c0.078-0.117,0.169-0.229,0.274-0.336c0.105-0.107,0.217-0.201,0.336-0.282
	c0.118-0.081,0.241-0.146,0.367-0.195c0.126-0.048,0.25-0.073,0.37-0.073c0.233,0,0.402,0.061,0.505,0.182
	c0.104,0.122,0.156,0.285,0.156,0.489c0,0.156-0.027,0.334-0.083,0.535s-0.133,0.413-0.233,0.637
	c-0.101,0.224-0.221,0.453-0.36,0.688c-0.14,0.235-0.293,0.464-0.462,0.686c-0.168,0.222-0.348,0.431-0.54,0.627
	s-0.39,0.367-0.596,0.513c-0.206,0.146-0.415,0.262-0.627,0.348S60.846,23.076,60.635,23.076z"/>
<text transform="matrix(1 0 0 1 64.9038 19.3936)" font-family="'CambriaMath'" font-size="7.32">′</text>
<path d="M84.407,21.423c-0.071,0.311-0.107,0.551-0.107,0.72c0,0.129,0.021,0.224,0.063,0.282c0.042,0.059,0.109,0.088,0.2,0.088
	c0.097,0,0.201-0.04,0.311-0.119c0.11-0.08,0.266-0.231,0.467-0.455l0.277,0.272c-0.295,0.314-0.546,0.537-0.754,0.667
	c-0.208,0.129-0.428,0.194-0.661,0.194c-0.201,0-0.362-0.066-0.481-0.199c-0.12-0.133-0.18-0.31-0.18-0.53
	c0-0.175,0.039-0.366,0.117-0.574l-0.058-0.02c-0.321,0.451-0.625,0.783-0.912,0.997s-0.581,0.321-0.883,0.321
	c-0.301,0-0.533-0.086-0.695-0.26c-0.162-0.173-0.243-0.414-0.243-0.722c0-0.204,0.047-0.494,0.141-0.871l0.316-1.274
	c0.088-0.354,0.131-0.603,0.131-0.749c0-0.13-0.021-0.224-0.063-0.282c-0.042-0.058-0.109-0.087-0.2-0.087
	c-0.101,0-0.207,0.042-0.318,0.124s-0.265,0.232-0.459,0.45l-0.277-0.272c0.275-0.279,0.483-0.47,0.623-0.574
	c0.139-0.104,0.273-0.177,0.401-0.221c0.128-0.044,0.271-0.065,0.43-0.065c0.208,0,0.371,0.069,0.491,0.209
	c0.12,0.139,0.18,0.328,0.18,0.564c0,0.256-0.05,0.576-0.151,0.958l-0.214,0.841c-0.055,0.214-0.095,0.381-0.119,0.501
	c-0.024,0.12-0.042,0.224-0.054,0.312s-0.017,0.16-0.017,0.219c0,0.224,0.037,0.385,0.112,0.484
	c0.075,0.099,0.196,0.148,0.365,0.148c0.136,0,0.283-0.054,0.44-0.163c0.157-0.108,0.324-0.272,0.5-0.491s0.319-0.431,0.426-0.637
	c0.107-0.206,0.194-0.459,0.263-0.761l0.462-2.106h0.841L84.407,21.423z"/>
<text transform="matrix(1 0 0 1 86.02 19.3936)" font-family="'CambriaMath'" font-size="7.32">′</text>
<path d="M93.829,22.186c0.506-0.72,0.891-1.348,1.155-1.884s0.396-0.974,0.396-1.311c0-0.152-0.032-0.256-0.097-0.312
	s-0.175-0.087-0.331-0.097l0.048-0.238h1.255l0.131,0.243c-0.114,0.289-0.205,0.511-0.272,0.666
	c-0.068,0.156-0.157,0.343-0.268,0.562s-0.227,0.437-0.35,0.654c-0.123,0.217-0.268,0.457-0.435,0.718
	c-0.167,0.261-0.354,0.544-0.562,0.851c-0.208,0.306-0.452,0.651-0.734,1.033h-0.579l-0.199-2.033
	c-0.017-0.159-0.033-0.366-0.051-0.623c-0.018-0.256-0.03-0.454-0.037-0.593l-0.053-0.005c-0.175,0.431-0.414,0.911-0.715,1.439
	c-0.302,0.528-0.674,1.133-1.119,1.814h-0.652l-0.37-3.662c-0.019-0.188-0.043-0.34-0.073-0.457s-0.078-0.204-0.146-0.263
	c-0.068-0.058-0.18-0.094-0.335-0.107l0.054-0.238h1.274l0.292,3.837c0.457-0.746,0.787-1.313,0.99-1.702
	c0.202-0.389,0.353-0.725,0.45-1.009s0.172-0.58,0.224-0.888l0.054-0.238h0.7L93.829,22.186z"/>
<text transform="matrix(1 0 0 1 97.0898 19.3936)" font-family="'CambriaMath'" font-size="7.32">′</text>
<path d="M21.515,34.856c-0.094,0-0.172-0.023-0.236-0.07c-0.063-0.047-0.114-0.113-0.153-0.199
	c-0.039-0.086-0.067-0.188-0.083-0.304s-0.024-0.245-0.024-0.384c0-0.185,0.012-0.382,0.034-0.593
	c0.023-0.21,0.052-0.423,0.087-0.637l0.205-1.347c0.013-0.078,0.023-0.152,0.032-0.222c0.008-0.069,0.012-0.121,0.012-0.153
	c0-0.101-0.016-0.183-0.048-0.248c-0.033-0.065-0.087-0.098-0.166-0.098c-0.062,0-0.128,0.019-0.199,0.056s-0.144,0.085-0.216,0.144
	c-0.073,0.058-0.144,0.121-0.212,0.187c-0.068,0.066-0.131,0.129-0.189,0.188l-0.233-0.272c0.101-0.104,0.208-0.207,0.321-0.309
	c0.114-0.102,0.233-0.194,0.36-0.277c0.126-0.083,0.259-0.149,0.399-0.2c0.139-0.05,0.282-0.075,0.428-0.075
	c0.124,0,0.224,0.021,0.302,0.061s0.139,0.094,0.182,0.16c0.044,0.066,0.074,0.14,0.09,0.219c0.016,0.08,0.024,0.158,0.024,0.236
	c0,0.046-0.002,0.089-0.005,0.131c-0.003,0.042-0.008,0.081-0.015,0.117l-0.272,1.761c-0.029,0.185-0.054,0.366-0.073,0.542
	c-0.02,0.177-0.029,0.333-0.029,0.47s0.008,0.246,0.024,0.331c0.016,0.084,0.047,0.126,0.092,0.126c0.107,0,0.241-0.043,0.403-0.129
	s0.333-0.204,0.511-0.355s0.357-0.329,0.535-0.535c0.178-0.206,0.339-0.429,0.481-0.668c0.143-0.24,0.258-0.493,0.348-0.759
	c0.089-0.266,0.134-0.533,0.134-0.802c0-0.117-0.025-0.207-0.075-0.27c-0.05-0.063-0.129-0.095-0.236-0.095
	c-0.136,0-0.262,0.053-0.377,0.158c-0.115,0.105-0.234,0.244-0.357,0.416l-0.277-0.248c0.078-0.117,0.169-0.229,0.275-0.335
	c0.105-0.107,0.217-0.201,0.335-0.282c0.118-0.081,0.241-0.146,0.367-0.194c0.126-0.049,0.25-0.073,0.37-0.073
	c0.233,0,0.402,0.061,0.506,0.183c0.104,0.122,0.155,0.284,0.155,0.489c0,0.155-0.027,0.334-0.083,0.535
	c-0.055,0.201-0.133,0.414-0.233,0.637s-0.221,0.453-0.36,0.688c-0.14,0.235-0.293,0.464-0.462,0.686
	c-0.169,0.222-0.349,0.431-0.54,0.627c-0.191,0.196-0.39,0.367-0.596,0.513c-0.206,0.146-0.415,0.262-0.627,0.348
	C21.938,34.813,21.726,34.856,21.515,34.856z"/>
<text transform="matrix(1 0 0 1 25.7842 31.1533)" font-family="'CambriaMath'" font-size="7.344">′</text>
<path d="M33.291,33.203c-0.071,0.312-0.107,0.551-0.107,0.72c0,0.13,0.021,0.224,0.063,0.282c0.042,0.058,0.108,0.087,0.199,0.087
	c0.097,0,0.201-0.04,0.311-0.119c0.11-0.08,0.266-0.231,0.467-0.455l0.277,0.272c-0.295,0.314-0.546,0.537-0.753,0.666
	c-0.208,0.13-0.428,0.194-0.662,0.194c-0.201,0-0.361-0.066-0.481-0.199s-0.18-0.31-0.18-0.53c0-0.175,0.039-0.366,0.117-0.574
	l-0.058-0.02c-0.321,0.451-0.625,0.783-0.912,0.997c-0.287,0.214-0.581,0.321-0.882,0.321c-0.302,0-0.534-0.087-0.696-0.26
	s-0.243-0.414-0.243-0.722c0-0.205,0.047-0.495,0.141-0.871l0.316-1.274c0.087-0.353,0.131-0.603,0.131-0.749
	c0-0.129-0.021-0.224-0.063-0.282c-0.042-0.059-0.108-0.088-0.199-0.088c-0.101,0-0.207,0.042-0.319,0.124
	c-0.112,0.083-0.265,0.233-0.459,0.45l-0.277-0.272c0.276-0.279,0.483-0.47,0.623-0.574c0.14-0.104,0.273-0.178,0.401-0.222
	c0.128-0.043,0.271-0.065,0.43-0.065c0.208,0,0.372,0.07,0.491,0.209c0.12,0.14,0.18,0.328,0.18,0.564
	c0,0.256-0.05,0.575-0.151,0.958l-0.214,0.841c-0.055,0.214-0.095,0.381-0.119,0.501c-0.024,0.12-0.042,0.224-0.054,0.311
	c-0.011,0.088-0.017,0.161-0.017,0.219c0,0.224,0.037,0.385,0.112,0.484c0.074,0.099,0.196,0.148,0.365,0.148
	c0.136,0,0.283-0.054,0.44-0.163c0.157-0.109,0.324-0.272,0.501-0.491c0.177-0.219,0.318-0.431,0.425-0.637s0.195-0.459,0.263-0.761
	l0.462-2.106H34L33.291,33.203z"/>
<text transform="matrix(1 0 0 1 34.9038 31.1533)" font-family="'CambriaMath'" font-size="7.344">′</text>
<path d="M51.635,34.856c-0.094,0-0.172-0.023-0.236-0.07c-0.063-0.047-0.114-0.113-0.153-0.199
	c-0.039-0.086-0.066-0.188-0.083-0.304s-0.024-0.245-0.024-0.384c0-0.185,0.011-0.382,0.034-0.593
	c0.022-0.21,0.052-0.423,0.087-0.637l0.205-1.347c0.013-0.078,0.023-0.152,0.031-0.222c0.008-0.069,0.012-0.121,0.012-0.153
	c0-0.101-0.016-0.183-0.048-0.248c-0.033-0.065-0.088-0.098-0.166-0.098c-0.062,0-0.128,0.019-0.199,0.056
	c-0.072,0.037-0.144,0.085-0.217,0.144c-0.073,0.058-0.143,0.121-0.211,0.187c-0.068,0.066-0.131,0.129-0.189,0.188l-0.233-0.272
	c0.1-0.104,0.207-0.207,0.321-0.309c0.113-0.102,0.233-0.194,0.36-0.277c0.126-0.083,0.259-0.149,0.399-0.2
	c0.139-0.05,0.282-0.075,0.428-0.075c0.123,0,0.224,0.021,0.302,0.061c0.078,0.041,0.139,0.094,0.182,0.16
	c0.044,0.066,0.074,0.14,0.09,0.219c0.017,0.08,0.024,0.158,0.024,0.236c0,0.046-0.001,0.089-0.005,0.131
	c-0.003,0.042-0.008,0.081-0.015,0.117l-0.272,1.761c-0.029,0.185-0.054,0.366-0.073,0.542c-0.02,0.177-0.029,0.333-0.029,0.47
	s0.008,0.246,0.024,0.331s0.047,0.126,0.093,0.126c0.107,0,0.241-0.043,0.403-0.129s0.333-0.204,0.511-0.355
	s0.356-0.329,0.535-0.535c0.178-0.206,0.338-0.429,0.481-0.668c0.143-0.24,0.258-0.493,0.348-0.759
	c0.089-0.266,0.134-0.533,0.134-0.802c0-0.117-0.025-0.207-0.076-0.27c-0.05-0.063-0.129-0.095-0.236-0.095
	c-0.136,0-0.262,0.053-0.377,0.158c-0.115,0.105-0.234,0.244-0.357,0.416l-0.277-0.248c0.078-0.117,0.169-0.229,0.274-0.335
	c0.105-0.107,0.217-0.201,0.336-0.282c0.118-0.081,0.241-0.146,0.367-0.194c0.126-0.049,0.25-0.073,0.37-0.073
	c0.233,0,0.402,0.061,0.505,0.183c0.104,0.122,0.156,0.284,0.156,0.489c0,0.155-0.027,0.334-0.083,0.535
	c-0.055,0.201-0.133,0.414-0.233,0.637c-0.101,0.224-0.221,0.453-0.36,0.688c-0.14,0.235-0.293,0.464-0.462,0.686
	c-0.168,0.222-0.348,0.431-0.54,0.627c-0.191,0.196-0.39,0.367-0.596,0.513c-0.206,0.146-0.415,0.262-0.627,0.348
	C52.058,34.813,51.846,34.856,51.635,34.856z"/>
<text transform="matrix(1 0 0 1 55.7842 31.1533)" font-family="'CambriaMath'" font-size="7.344">′</text>
<path d="M60.755,34.856c-0.094,0-0.173-0.023-0.236-0.07c-0.063-0.047-0.114-0.113-0.153-0.199s-0.066-0.188-0.083-0.304
	s-0.024-0.245-0.024-0.384c0-0.185,0.011-0.382,0.034-0.593c0.022-0.21,0.052-0.423,0.087-0.637l0.204-1.347
	c0.013-0.078,0.023-0.152,0.032-0.222c0.008-0.069,0.012-0.121,0.012-0.153c0-0.101-0.016-0.183-0.049-0.248
	c-0.032-0.065-0.087-0.098-0.165-0.098c-0.062,0-0.128,0.019-0.2,0.056s-0.143,0.085-0.216,0.144
	c-0.073,0.058-0.144,0.121-0.211,0.187c-0.068,0.066-0.131,0.129-0.19,0.188l-0.233-0.272c0.101-0.104,0.208-0.207,0.321-0.309
	c0.113-0.102,0.233-0.194,0.36-0.277c0.126-0.083,0.259-0.149,0.398-0.2c0.14-0.05,0.282-0.075,0.428-0.075
	c0.123,0,0.224,0.021,0.301,0.061c0.078,0.041,0.139,0.094,0.183,0.16s0.074,0.14,0.09,0.219c0.016,0.08,0.024,0.158,0.024,0.236
	c0,0.046-0.001,0.089-0.005,0.131c-0.003,0.042-0.008,0.081-0.015,0.117l-0.272,1.761c-0.029,0.185-0.053,0.366-0.073,0.542
	c-0.02,0.177-0.029,0.333-0.029,0.47s0.008,0.246,0.024,0.331s0.047,0.126,0.092,0.126c0.107,0,0.242-0.043,0.404-0.129
	s0.333-0.204,0.511-0.355s0.356-0.329,0.535-0.535c0.178-0.206,0.339-0.429,0.481-0.668c0.143-0.24,0.259-0.493,0.348-0.759
	c0.089-0.266,0.133-0.533,0.133-0.802c0-0.117-0.025-0.207-0.075-0.27c-0.05-0.063-0.129-0.095-0.236-0.095
	c-0.136,0-0.262,0.053-0.377,0.158c-0.115,0.105-0.234,0.244-0.357,0.416l-0.277-0.248c0.078-0.117,0.169-0.229,0.275-0.335
	s0.217-0.201,0.335-0.282c0.119-0.081,0.241-0.146,0.367-0.194c0.126-0.049,0.25-0.073,0.37-0.073c0.233,0,0.402,0.061,0.506,0.183
	c0.104,0.122,0.156,0.284,0.156,0.489c0,0.155-0.028,0.334-0.083,0.535c-0.055,0.201-0.133,0.414-0.234,0.637
	c-0.1,0.224-0.22,0.453-0.36,0.688c-0.139,0.235-0.293,0.464-0.462,0.686s-0.349,0.431-0.54,0.627
	c-0.191,0.196-0.39,0.367-0.596,0.513c-0.206,0.146-0.415,0.262-0.627,0.348C61.178,34.813,60.966,34.856,60.755,34.856z"/>
<text transform="matrix(1 0 0 1 65.0239 31.1533)" font-family="'CambriaMath'" font-size="7.344">′</text>
<path d="M81.751,34.856c-0.094,0-0.173-0.023-0.236-0.07c-0.063-0.047-0.114-0.113-0.153-0.199s-0.066-0.188-0.083-0.304
	c-0.017-0.117-0.024-0.245-0.024-0.384c0-0.185,0.011-0.382,0.034-0.593c0.022-0.21,0.052-0.423,0.087-0.637l0.204-1.347
	c0.013-0.078,0.023-0.152,0.032-0.222c0.008-0.069,0.012-0.121,0.012-0.153c0-0.101-0.017-0.183-0.049-0.248
	s-0.087-0.098-0.165-0.098c-0.062,0-0.128,0.019-0.2,0.056s-0.144,0.085-0.216,0.144c-0.073,0.058-0.144,0.121-0.211,0.187
	c-0.068,0.066-0.131,0.129-0.19,0.188l-0.233-0.272c0.101-0.104,0.208-0.207,0.321-0.309c0.113-0.102,0.233-0.194,0.36-0.277
	c0.126-0.083,0.259-0.149,0.398-0.2c0.14-0.05,0.282-0.075,0.428-0.075c0.123,0,0.224,0.021,0.301,0.061
	c0.078,0.041,0.139,0.094,0.183,0.16c0.043,0.066,0.074,0.14,0.09,0.219c0.016,0.08,0.024,0.158,0.024,0.236
	c0,0.046-0.002,0.089-0.005,0.131c-0.003,0.042-0.008,0.081-0.015,0.117l-0.272,1.761c-0.029,0.185-0.053,0.366-0.073,0.542
	c-0.02,0.177-0.029,0.333-0.029,0.47s0.008,0.246,0.024,0.331s0.047,0.126,0.092,0.126c0.107,0,0.242-0.043,0.404-0.129
	s0.332-0.204,0.511-0.355c0.178-0.151,0.356-0.329,0.535-0.535c0.178-0.206,0.339-0.429,0.481-0.668
	c0.143-0.24,0.259-0.493,0.348-0.759c0.089-0.266,0.134-0.533,0.134-0.802c0-0.117-0.025-0.207-0.075-0.27
	c-0.05-0.063-0.129-0.095-0.236-0.095c-0.136,0-0.262,0.053-0.377,0.158c-0.115,0.105-0.234,0.244-0.357,0.416l-0.277-0.248
	c0.078-0.117,0.169-0.229,0.275-0.335s0.217-0.201,0.335-0.282s0.241-0.146,0.367-0.194c0.126-0.049,0.25-0.073,0.37-0.073
	c0.233,0,0.402,0.061,0.506,0.183c0.104,0.122,0.156,0.284,0.156,0.489c0,0.155-0.028,0.334-0.083,0.535
	c-0.055,0.201-0.133,0.414-0.233,0.637s-0.22,0.453-0.36,0.688c-0.139,0.235-0.293,0.464-0.462,0.686s-0.349,0.431-0.54,0.627
	c-0.191,0.196-0.39,0.367-0.596,0.513c-0.206,0.146-0.415,0.262-0.627,0.348C82.174,34.813,81.962,34.856,81.751,34.856z"/>
<text transform="matrix(1 0 0 1 86.02 31.1533)" font-family="'CambriaMath'" font-size="7.344">′</text>
<path d="M93.829,33.966c0.506-0.72,0.891-1.348,1.155-1.885s0.396-0.973,0.396-1.311c0-0.152-0.032-0.256-0.097-0.311
	s-0.175-0.088-0.331-0.098l0.048-0.238h1.255l0.131,0.243c-0.114,0.289-0.205,0.511-0.272,0.667s-0.157,0.343-0.268,0.562
	s-0.227,0.437-0.35,0.654s-0.268,0.457-0.435,0.717c-0.167,0.261-0.354,0.544-0.562,0.851c-0.208,0.306-0.452,0.651-0.734,1.033
	h-0.579l-0.199-2.033c-0.017-0.159-0.033-0.366-0.051-0.623c-0.018-0.256-0.03-0.454-0.037-0.593l-0.053-0.005
	c-0.175,0.431-0.414,0.911-0.715,1.439c-0.302,0.529-0.674,1.133-1.119,1.814h-0.652l-0.37-3.662
	c-0.019-0.188-0.043-0.341-0.073-0.458s-0.078-0.204-0.146-0.262c-0.068-0.059-0.18-0.094-0.335-0.107l0.054-0.238h1.274
	l0.292,3.837c0.457-0.746,0.787-1.313,0.99-1.702c0.202-0.389,0.353-0.726,0.45-1.009s0.172-0.58,0.224-0.888l0.054-0.238h0.7
	L93.829,33.966z"/>
<text transform="matrix(1 0 0 1 97.0898 31.1533)" font-family="'CambriaMath'" font-size="7.344">′</text>
<path d="M23.483,45.606c0.506-0.72,0.891-1.348,1.155-1.884c0.264-0.537,0.396-0.974,0.396-1.311c0-0.152-0.032-0.256-0.097-0.312
	s-0.175-0.087-0.331-0.097l0.049-0.238h1.254l0.131,0.243c-0.113,0.289-0.204,0.511-0.272,0.667
	c-0.068,0.155-0.157,0.343-0.267,0.562c-0.11,0.219-0.227,0.437-0.35,0.654c-0.124,0.217-0.269,0.456-0.436,0.717
	c-0.167,0.261-0.354,0.544-0.562,0.851c-0.208,0.306-0.453,0.651-0.734,1.033h-0.579l-0.2-2.033
	c-0.016-0.159-0.033-0.366-0.051-0.623c-0.018-0.256-0.03-0.454-0.037-0.593L22.5,43.238c-0.175,0.431-0.413,0.911-0.715,1.439
	c-0.301,0.528-0.674,1.133-1.119,1.814h-0.651l-0.37-3.662c-0.02-0.188-0.044-0.34-0.073-0.457
	c-0.029-0.117-0.078-0.204-0.146-0.263c-0.068-0.058-0.18-0.094-0.336-0.107l0.054-0.238h1.274l0.292,3.837
	c0.457-0.746,0.787-1.313,0.99-1.702c0.203-0.389,0.353-0.726,0.45-1.009s0.172-0.58,0.224-0.888l0.054-0.238h0.7L23.483,45.606z"/>
<text transform="matrix(1 0 0 1 26.7441 42.8135)" font-family="'CambriaMath'" font-size="7.32">′</text>
<path d="M34.25,44.843c-0.071,0.311-0.107,0.551-0.107,0.72c0,0.129,0.021,0.224,0.063,0.282c0.042,0.058,0.108,0.087,0.199,0.087
	c0.097,0,0.201-0.04,0.312-0.119c0.11-0.08,0.266-0.231,0.467-0.455l0.277,0.272c-0.295,0.314-0.546,0.537-0.753,0.667
	c-0.208,0.129-0.428,0.194-0.662,0.194c-0.201,0-0.361-0.066-0.481-0.199s-0.18-0.31-0.18-0.53c0-0.175,0.039-0.366,0.117-0.574
	l-0.059-0.02c-0.321,0.451-0.625,0.783-0.912,0.997c-0.287,0.214-0.582,0.321-0.883,0.321c-0.302,0-0.534-0.086-0.695-0.26
	c-0.163-0.173-0.243-0.414-0.243-0.722c0-0.204,0.047-0.494,0.141-0.871l0.316-1.274c0.087-0.354,0.131-0.603,0.131-0.749
	c0-0.129-0.021-0.224-0.063-0.282c-0.042-0.058-0.108-0.087-0.199-0.087c-0.101,0-0.207,0.042-0.319,0.124
	c-0.112,0.083-0.265,0.233-0.459,0.45l-0.277-0.272c0.275-0.279,0.483-0.47,0.622-0.574c0.14-0.104,0.273-0.177,0.401-0.221
	c0.128-0.043,0.271-0.065,0.431-0.065c0.207,0,0.371,0.07,0.491,0.209c0.12,0.14,0.18,0.328,0.18,0.564
	c0,0.256-0.05,0.576-0.151,0.958l-0.214,0.841c-0.055,0.214-0.095,0.381-0.119,0.5c-0.024,0.12-0.042,0.224-0.054,0.312
	c-0.011,0.087-0.017,0.161-0.017,0.219c0,0.224,0.037,0.385,0.112,0.484c0.074,0.099,0.196,0.148,0.365,0.148
	c0.136,0,0.283-0.054,0.44-0.163c0.157-0.108,0.324-0.272,0.501-0.491s0.318-0.431,0.425-0.637c0.107-0.206,0.195-0.46,0.263-0.761
	l0.462-2.106h0.842L34.25,44.843z"/>
<text transform="matrix(1 0 0 1 35.8638 42.8135)" font-family="'CambriaMath'" font-size="7.32">′</text>
<path d="M53.603,45.606c0.506-0.72,0.891-1.348,1.155-1.884c0.265-0.537,0.396-0.974,0.396-1.311c0-0.152-0.032-0.256-0.097-0.312
	s-0.175-0.087-0.331-0.097l0.048-0.238h1.255l0.131,0.243c-0.114,0.289-0.204,0.511-0.272,0.667
	c-0.068,0.155-0.157,0.343-0.268,0.562c-0.11,0.219-0.227,0.437-0.35,0.654c-0.123,0.217-0.268,0.456-0.435,0.717
	c-0.167,0.261-0.354,0.544-0.562,0.851c-0.208,0.306-0.452,0.651-0.734,1.033h-0.579l-0.199-2.033
	c-0.016-0.159-0.033-0.366-0.051-0.623c-0.018-0.256-0.03-0.454-0.036-0.593l-0.054-0.005c-0.175,0.431-0.414,0.911-0.715,1.439
	c-0.302,0.528-0.674,1.133-1.119,1.814h-0.651l-0.37-3.662c-0.02-0.188-0.044-0.34-0.073-0.457s-0.078-0.204-0.146-0.263
	c-0.068-0.058-0.18-0.094-0.335-0.107l0.054-0.238h1.274l0.292,3.837c0.457-0.746,0.787-1.313,0.99-1.702
	c0.203-0.389,0.353-0.726,0.45-1.009s0.172-0.58,0.224-0.888l0.054-0.238h0.7L53.603,45.606z"/>
<text transform="matrix(1 0 0 1 56.8638 42.8135)" font-family="'CambriaMath'" font-size="7.32">′</text>
<path d="M61.715,46.496c-0.094,0-0.173-0.023-0.236-0.07c-0.063-0.047-0.114-0.114-0.153-0.2c-0.039-0.085-0.066-0.187-0.083-0.304
	s-0.024-0.245-0.024-0.384c0-0.185,0.011-0.382,0.034-0.593c0.022-0.211,0.052-0.423,0.087-0.637l0.204-1.347
	c0.013-0.078,0.023-0.151,0.032-0.221s0.012-0.121,0.012-0.153c0-0.1-0.016-0.183-0.049-0.248c-0.032-0.064-0.087-0.097-0.165-0.097
	c-0.062,0-0.128,0.019-0.2,0.056c-0.071,0.037-0.143,0.085-0.216,0.144c-0.073,0.058-0.144,0.121-0.211,0.187
	s-0.131,0.129-0.189,0.187l-0.234-0.272c0.101-0.104,0.208-0.207,0.321-0.309c0.113-0.102,0.233-0.194,0.36-0.277
	c0.126-0.083,0.259-0.149,0.399-0.2c0.139-0.05,0.282-0.075,0.428-0.075c0.123,0,0.224,0.02,0.302,0.061
	c0.078,0.041,0.138,0.094,0.182,0.161s0.074,0.14,0.09,0.219c0.016,0.08,0.024,0.158,0.024,0.236c0,0.045-0.001,0.089-0.005,0.131
	s-0.008,0.081-0.015,0.117l-0.272,1.761c-0.029,0.185-0.054,0.365-0.073,0.542s-0.029,0.333-0.029,0.469s0.008,0.247,0.024,0.331
	c0.016,0.084,0.047,0.126,0.092,0.126c0.107,0,0.242-0.043,0.404-0.129s0.333-0.205,0.511-0.355
	c0.178-0.151,0.356-0.329,0.535-0.535c0.179-0.206,0.339-0.429,0.482-0.669c0.143-0.24,0.258-0.493,0.348-0.758
	c0.089-0.266,0.134-0.533,0.134-0.803c0-0.117-0.025-0.207-0.076-0.27c-0.05-0.063-0.129-0.095-0.236-0.095
	c-0.136,0-0.262,0.053-0.377,0.158s-0.234,0.244-0.357,0.416l-0.277-0.248c0.078-0.117,0.169-0.229,0.275-0.336
	c0.105-0.107,0.217-0.201,0.335-0.282c0.119-0.081,0.241-0.146,0.367-0.195c0.126-0.048,0.25-0.073,0.37-0.073
	c0.233,0,0.402,0.061,0.506,0.182c0.104,0.122,0.156,0.285,0.156,0.489c0,0.156-0.028,0.334-0.083,0.535
	c-0.055,0.201-0.133,0.414-0.233,0.637c-0.101,0.224-0.221,0.453-0.36,0.688c-0.139,0.235-0.293,0.464-0.462,0.686
	c-0.168,0.222-0.349,0.432-0.54,0.627c-0.191,0.196-0.39,0.367-0.596,0.513c-0.206,0.146-0.415,0.262-0.627,0.348
	S61.926,46.496,61.715,46.496z"/>
<text transform="matrix(1 0 0 1 65.8638 42.8135)" font-family="'CambriaMath'" font-size="7.32">′</text>
<path d="M83.719,45.606c0.505-0.72,0.891-1.348,1.155-1.884s0.396-0.974,0.396-1.311c0-0.152-0.033-0.256-0.097-0.312
	c-0.065-0.055-0.175-0.087-0.331-0.097l0.049-0.238h1.255l0.131,0.243c-0.114,0.289-0.205,0.511-0.272,0.667
	c-0.068,0.155-0.157,0.343-0.268,0.562s-0.227,0.437-0.35,0.654c-0.124,0.217-0.269,0.456-0.436,0.717
	c-0.167,0.261-0.354,0.544-0.562,0.851c-0.208,0.306-0.452,0.651-0.734,1.033h-0.579l-0.2-2.033
	c-0.016-0.159-0.033-0.366-0.051-0.623c-0.018-0.256-0.03-0.454-0.037-0.593l-0.053-0.005c-0.175,0.431-0.414,0.911-0.715,1.439
	c-0.302,0.528-0.675,1.133-1.119,1.814h-0.652l-0.37-3.662c-0.02-0.188-0.044-0.34-0.073-0.457
	c-0.029-0.117-0.078-0.204-0.146-0.263c-0.068-0.058-0.18-0.094-0.335-0.107l0.053-0.238h1.274l0.292,3.837
	c0.458-0.746,0.787-1.313,0.99-1.702c0.203-0.389,0.353-0.726,0.45-1.009c0.097-0.284,0.171-0.58,0.224-0.888l0.053-0.238h0.7
	L83.719,45.606z"/>
<text transform="matrix(1 0 0 1 86.98 42.8135)" font-family="'CambriaMath'" font-size="7.32">′</text>
<path d="M94.789,45.606c0.506-0.72,0.891-1.348,1.155-1.884c0.265-0.537,0.396-0.974,0.396-1.311c0-0.152-0.032-0.256-0.097-0.312
	s-0.175-0.087-0.331-0.097l0.048-0.238h1.255l0.131,0.243c-0.114,0.289-0.204,0.511-0.272,0.667
	c-0.068,0.155-0.157,0.343-0.268,0.562c-0.11,0.219-0.227,0.437-0.35,0.654s-0.268,0.456-0.435,0.717
	c-0.167,0.261-0.354,0.544-0.562,0.851c-0.208,0.306-0.452,0.651-0.734,1.033h-0.579l-0.199-2.033
	c-0.016-0.159-0.033-0.366-0.051-0.623c-0.018-0.256-0.03-0.454-0.036-0.593l-0.054-0.005c-0.175,0.431-0.414,0.911-0.715,1.439
	c-0.302,0.528-0.674,1.133-1.119,1.814h-0.652l-0.37-3.662c-0.019-0.188-0.043-0.34-0.073-0.457s-0.078-0.204-0.146-0.263
	c-0.068-0.058-0.18-0.094-0.335-0.107l0.054-0.238h1.274l0.292,3.837c0.457-0.746,0.787-1.313,0.99-1.702
	c0.202-0.389,0.353-0.726,0.45-1.009s0.172-0.58,0.224-0.888l0.054-0.238h0.7L94.789,45.606z"/>
<text transform="matrix(1 0 0 1 98.0498 42.8135)" font-family="'CambriaMath'" font-size="7.32">′</text>
<text transform="matrix(1 0 0 1 58.4238 56.1333)" font-family="'CambriaMath'" font-size="9.96">⋮</text>
<text transform="matrix(1 0 0 1 112.0898 38.7334)" font-family="'CambriaMath'" font-size="9.96">∈</text>
<path d="M125.217,35.723c0.156,0.117,0.281,0.256,0.377,0.418c0.096,0.163,0.173,0.388,0.231,0.676l0.112,0.564
	c0.036,0.179,0.076,0.339,0.122,0.481c0.045,0.143,0.1,0.256,0.163,0.341c0.063,0.084,0.134,0.147,0.214,0.189
	s0.195,0.076,0.348,0.102l-0.048,0.238h-1.347c-0.104-0.289-0.196-0.632-0.277-1.031l-0.214-1.031
	c-0.036-0.178-0.079-0.328-0.129-0.45s-0.11-0.216-0.18-0.282s-0.15-0.11-0.243-0.131c-0.092-0.021-0.205-0.031-0.338-0.031h-0.554
	l-0.341,1.542c-0.029,0.126-0.049,0.227-0.061,0.301c-0.011,0.075-0.021,0.153-0.029,0.236c-0.008,0.083-0.012,0.157-0.012,0.222
	c0,0.1,0.016,0.179,0.049,0.236c0.032,0.057,0.081,0.098,0.146,0.124c0.064,0.026,0.177,0.045,0.335,0.058l-0.054,0.238h-1.999
	l0.053-0.238c0.124-0.02,0.216-0.051,0.277-0.095s0.113-0.104,0.156-0.183c0.042-0.078,0.081-0.172,0.117-0.284
	s0.089-0.329,0.161-0.649l0.827-3.745c0.071-0.324,0.107-0.581,0.107-0.769c0-0.159-0.038-0.269-0.112-0.331
	c-0.075-0.062-0.196-0.097-0.365-0.107l0.053-0.238h2.165c0.343,0,0.624,0.02,0.841,0.061c0.217,0.041,0.403,0.102,0.557,0.183
	s0.283,0.186,0.387,0.313c0.104,0.128,0.182,0.272,0.233,0.433c0.052,0.16,0.078,0.332,0.078,0.513c0,0.5-0.152,0.924-0.457,1.274
	s-0.754,0.616-1.347,0.797V35.723z M124.118,35.358c0.47,0,0.841-0.063,1.114-0.19c0.272-0.126,0.488-0.333,0.647-0.622
	c0.159-0.289,0.238-0.6,0.238-0.934c0-0.139-0.013-0.263-0.039-0.372c-0.026-0.108-0.06-0.198-0.102-0.27s-0.096-0.135-0.161-0.19
	s-0.146-0.103-0.243-0.144s-0.21-0.069-0.338-0.087c-0.128-0.018-0.302-0.027-0.523-0.027c-0.172,0-0.354,0.007-0.544,0.02
	l-0.623,2.816H124.118z"/>
<path d="M131.396,33.684c0.026-0.153,0.06-0.333,0.1-0.542s0.088-0.425,0.143-0.649c0.041-0.169,0.082-0.343,0.123-0.522
	c0.042-0.179,0.081-0.35,0.116-0.515s0.065-0.316,0.088-0.456c0.022-0.14,0.034-0.254,0.034-0.345c0-0.104-0.027-0.179-0.081-0.223
	c-0.053-0.044-0.153-0.067-0.298-0.07l0.05-0.225h1.326l-0.046,0.214c-0.081,0.024-0.146,0.045-0.193,0.063
	c-0.048,0.018-0.088,0.053-0.122,0.104s-0.065,0.125-0.095,0.223s-0.065,0.238-0.105,0.422l-0.808,3.61h-0.54
	c-0.126-0.324-0.255-0.65-0.388-0.979c-0.132-0.329-0.262-0.657-0.39-0.986c-0.127-0.329-0.25-0.655-0.366-0.979
	c-0.117-0.324-0.223-0.643-0.318-0.958h-0.047c-0.012,0.074-0.026,0.16-0.042,0.257c-0.017,0.098-0.035,0.203-0.056,0.316
	c-0.02,0.113-0.042,0.229-0.064,0.348c-0.022,0.119-0.046,0.238-0.069,0.357c-0.021,0.091-0.047,0.196-0.077,0.316
	c-0.03,0.121-0.06,0.249-0.091,0.386c-0.031,0.137-0.063,0.276-0.095,0.416c-0.032,0.141-0.062,0.275-0.088,0.402
	s-0.047,0.244-0.063,0.349c-0.016,0.104-0.023,0.187-0.023,0.247c0,0.1,0.028,0.171,0.085,0.212
	c0.057,0.042,0.155,0.067,0.293,0.077l-0.039,0.218h-1.333l0.046-0.218c0.071-0.012,0.131-0.026,0.179-0.043
	c0.047-0.017,0.089-0.051,0.125-0.102s0.07-0.128,0.102-0.23c0.032-0.103,0.068-0.247,0.109-0.433l0.586-2.605
	c0.021-0.095,0.038-0.184,0.048-0.266c0.011-0.083,0.016-0.156,0.016-0.22c0-0.104-0.027-0.179-0.082-0.223
	c-0.055-0.044-0.155-0.067-0.3-0.07l0.054-0.225h1.233c0.112,0.298,0.227,0.598,0.345,0.899c0.118,0.301,0.234,0.603,0.349,0.902
	c0.114,0.3,0.225,0.597,0.331,0.888c0.106,0.292,0.203,0.578,0.292,0.856H131.396z"/>
<path d="M135.513,35.507c-0.219,0.271-0.419,0.467-0.602,0.587s-0.376,0.18-0.582,0.18c-0.24,0-0.426-0.086-0.557-0.259
	s-0.196-0.427-0.196-0.763c0-0.33,0.076-0.666,0.229-1.008s0.359-0.613,0.62-0.813s0.549-0.3,0.866-0.3
	c0.178,0,0.327,0.02,0.448,0.059s0.224,0.084,0.308,0.135l0.287-0.193l0.27,0.064l-0.48,2.194c-0.07,0.373-0.121,0.62-0.152,0.741
	c-0.059,0.238-0.129,0.439-0.212,0.602s-0.188,0.301-0.316,0.413s-0.288,0.2-0.48,0.264s-0.431,0.095-0.716,0.095
	c-0.434,0-0.762-0.057-0.986-0.17s-0.335-0.285-0.335-0.516c0-0.119,0.034-0.225,0.103-0.316s0.183-0.188,0.343-0.29l0.308,0.211
	c-0.07,0.074-0.118,0.142-0.144,0.202s-0.038,0.123-0.038,0.188c0,0.115,0.058,0.207,0.173,0.274s0.301,0.101,0.557,0.101
	c0.23,0,0.418-0.035,0.563-0.105s0.263-0.175,0.356-0.315s0.169-0.306,0.23-0.5s0.122-0.441,0.185-0.744L135.513,35.507z
	 M135.768,34.248c0.029-0.139,0.044-0.257,0.044-0.354c0-0.158-0.04-0.271-0.119-0.34s-0.196-0.103-0.35-0.103
	c-0.227,0-0.428,0.09-0.604,0.271s-0.31,0.415-0.401,0.702s-0.138,0.554-0.138,0.8c0,0.215,0.032,0.374,0.097,0.476
	s0.16,0.154,0.287,0.154c0.113,0,0.223-0.029,0.328-0.086s0.223-0.16,0.353-0.308s0.224-0.286,0.281-0.416s0.111-0.295,0.16-0.497
	L135.768,34.248z"/>
<text transform="matrix(1 0 0 1 137.29 34.7734)" font-family="'CambriaMath'" font-size="7.32">×</text>
<text transform="matrix(1 0 0 1 142.5698 34.7734)" font-family="'CambriaMath'" font-size="7.32">3</text>
<text transform="matrix(1 0 0 1 146.77 34.7734)" font-family="'CambriaMath'" font-size="7.32">×</text>
<text transform="matrix(1 0 0 1 152.0498 34.7734)" font-family="'CambriaMath'" font-size="7.32">3</text>
<text transform="matrix(1 0 0 1 12.1758 70.3433)"><tspan x="0" y="0" font-family="'ArialMT'" font-size="9">Re</tspan><tspan x="11.505" y="0" font-family="'ArialMT'" font-size="9">y</tspan><tspan x="15.96" y="0" font-family="'ArialMT'" font-size="9">no</tspan><tspan x="26.007" y="0" font-family="'ArialMT'" font-size="9">l</tspan><tspan x="28.033" y="0" font-family="'ArialMT'" font-size="9">d</tspan><tspan x="33.057" y="0" font-family="'ArialMT'" font-size="9">s</tspan><tspan x="37.61" y="0" font-family="'ArialMT'" font-size="9"> </tspan><tspan x="39.895" y="0" font-family="'ArialMT'" font-size="9">s</tspan><tspan x="44.449" y="0" font-family="'ArialMT'" font-size="9">tr</tspan><tspan x="49.947" y="0" font-family="'ArialMT'" font-size="9">e</tspan><tspan x="54.988" y="0" font-family="'ArialMT'" font-size="9">ss</tspan><tspan x="64.096" y="0" font-family="'ArialMT'" font-size="9"> </tspan><tspan x="66.38" y="0" font-family="'ArialMT'" font-size="9">t</tspan><tspan x="68.881" y="0" font-family="'ArialMT'" font-size="9">e</tspan><tspan x="73.922" y="0" font-family="'ArialMT'" font-size="9">n</tspan><tspan x="78.946" y="0" font-family="'ArialMT'" font-size="9">s</tspan><tspan x="83.5" y="0" font-family="'ArialMT'" font-size="9">o</tspan><tspan x="88.523" y="0" font-family="'ArialMT'" font-size="9">r</tspan></text>
<path fill-rule="evenodd" clip-rule="evenodd" d="M111.49,120.627h2.93v10.568v1.478v8.242v2.438v8.354v1.366v10.68h-2.93v-0.437
	h1.91v-10.243v-1.366v-8.354v-2.438v-8.242v-1.478v-10.13h-1.91V120.627z M6.928,120.627h2.928v0.438H7.95v10.13v1.478v8.242v2.438
	v8.354v1.366v10.243h1.906v0.437H6.928v-10.68v-1.366v-8.354v-2.438v-8.242v-1.478V120.627z"/>
<path fill-rule="evenodd" clip-rule="evenodd" d="M11.133,119.127h2.743v0.521h-1.732v35.478h1.732v0.53h-2.743V119.127z
	 M107.45,119.127h2.74v36.528h-2.74v-0.53h1.73v-35.478h-1.73V119.127z"/>
<path d="M18.244,126.366c-0.311,0.453-0.606,0.786-0.885,0.997c-0.279,0.21-0.574,0.315-0.885,0.315
	c-0.357,0-0.633-0.134-0.829-0.403c-0.196-0.27-0.294-0.646-0.294-1.133c0-0.558,0.109-1.094,0.328-1.607
	c0.219-0.515,0.52-0.92,0.902-1.216c0.382-0.297,0.809-0.445,1.279-0.445c0.198,0,0.38,0.021,0.547,0.061
	c0.167,0.041,0.338,0.111,0.513,0.212l0.253-1.124c0.026-0.106,0.048-0.225,0.068-0.354s0.029-0.243,0.029-0.341
	c0-0.097-0.018-0.171-0.054-0.221c-0.036-0.051-0.086-0.087-0.153-0.109c-0.067-0.022-0.186-0.039-0.357-0.049l0.058-0.253
	l1.221-0.044h0.287l-1.211,5.384c-0.072,0.317-0.107,0.558-0.107,0.72c0,0.13,0.021,0.224,0.063,0.282s0.108,0.088,0.199,0.088
	c0.098,0,0.201-0.04,0.312-0.119c0.11-0.08,0.266-0.231,0.467-0.455l0.277,0.272c-0.298,0.314-0.55,0.536-0.754,0.666
	s-0.425,0.194-0.662,0.194c-0.201,0-0.361-0.066-0.481-0.199c-0.12-0.133-0.18-0.31-0.18-0.53c0-0.178,0.037-0.368,0.112-0.568
	L18.244,126.366z M18.57,124.644c0.048-0.233,0.073-0.454,0.073-0.662c0-0.253-0.054-0.437-0.161-0.552s-0.285-0.173-0.535-0.173
	c-0.331,0-0.627,0.134-0.89,0.401s-0.469,0.629-0.62,1.082c-0.151,0.454-0.226,0.906-0.226,1.357c0,0.337,0.046,0.589,0.139,0.756
	s0.247,0.251,0.464,0.251c0.101,0,0.203-0.022,0.307-0.066c0.104-0.043,0.211-0.114,0.323-0.211
	c0.112-0.098,0.222-0.216,0.331-0.355c0.109-0.14,0.208-0.279,0.299-0.421c0.091-0.141,0.175-0.308,0.253-0.501
	c0.078-0.192,0.144-0.425,0.199-0.697L18.57,124.644z"/>
<path d="M24.987,126.035c-0.071,0.312-0.107,0.551-0.107,0.72c0,0.13,0.021,0.224,0.063,0.282s0.108,0.088,0.199,0.088
	c0.098,0,0.201-0.04,0.312-0.119c0.11-0.08,0.266-0.231,0.467-0.455l0.277,0.272c-0.295,0.314-0.546,0.536-0.754,0.666
	s-0.428,0.194-0.662,0.194c-0.201,0-0.361-0.066-0.481-0.199c-0.12-0.133-0.18-0.31-0.18-0.53c0-0.175,0.039-0.366,0.117-0.573
	l-0.059-0.02c-0.321,0.45-0.625,0.782-0.912,0.997c-0.287,0.214-0.581,0.32-0.883,0.32c-0.301,0-0.533-0.087-0.695-0.26
	c-0.162-0.174-0.243-0.414-0.243-0.723c0-0.204,0.047-0.494,0.141-0.87l0.316-1.274c0.087-0.354,0.131-0.603,0.131-0.749
	c0-0.13-0.021-0.224-0.063-0.282c-0.042-0.058-0.109-0.087-0.2-0.087c-0.101,0-0.207,0.041-0.318,0.124
	c-0.112,0.082-0.265,0.232-0.459,0.449l-0.277-0.272c0.275-0.278,0.483-0.47,0.623-0.573c0.139-0.104,0.273-0.178,0.401-0.222
	c0.128-0.044,0.271-0.065,0.431-0.065c0.208,0,0.371,0.069,0.491,0.209c0.12,0.14,0.18,0.327,0.18,0.564
	c0,0.256-0.05,0.575-0.15,0.958l-0.214,0.841c-0.055,0.215-0.095,0.382-0.119,0.501c-0.024,0.12-0.042,0.224-0.053,0.312
	c-0.012,0.088-0.017,0.16-0.017,0.219c0,0.224,0.037,0.385,0.112,0.484c0.075,0.099,0.196,0.148,0.365,0.148
	c0.136,0,0.283-0.055,0.44-0.163s0.324-0.272,0.501-0.491s0.319-0.432,0.426-0.638c0.107-0.205,0.194-0.459,0.263-0.761l0.462-2.105
	h0.841L24.987,126.035z M29.751,126.366c-0.312,0.453-0.606,0.786-0.885,0.997c-0.279,0.21-0.574,0.315-0.885,0.315
	c-0.356,0-0.633-0.134-0.829-0.403s-0.294-0.646-0.294-1.133c0-0.558,0.109-1.094,0.328-1.607c0.219-0.515,0.52-0.92,0.902-1.216
	c0.383-0.297,0.809-0.445,1.279-0.445c0.198,0,0.38,0.021,0.547,0.061c0.167,0.041,0.338,0.111,0.513,0.212l0.253-1.124
	c0.026-0.106,0.049-0.225,0.068-0.354c0.019-0.13,0.029-0.243,0.029-0.341c0-0.097-0.018-0.171-0.053-0.221
	c-0.036-0.051-0.087-0.087-0.153-0.109s-0.186-0.039-0.357-0.049l0.058-0.253l1.221-0.044h0.287l-1.211,5.384
	c-0.071,0.317-0.107,0.558-0.107,0.72c0,0.13,0.021,0.224,0.063,0.282c0.042,0.059,0.109,0.088,0.2,0.088
	c0.097,0,0.201-0.04,0.311-0.119c0.11-0.08,0.266-0.231,0.467-0.455l0.277,0.272c-0.298,0.314-0.549,0.536-0.754,0.666
	c-0.204,0.13-0.425,0.194-0.661,0.194c-0.201,0-0.362-0.066-0.481-0.199c-0.12-0.133-0.18-0.31-0.18-0.53
	c0-0.178,0.037-0.368,0.112-0.568L29.751,126.366z M30.077,124.644c0.049-0.233,0.073-0.454,0.073-0.662
	c0-0.253-0.053-0.437-0.16-0.552s-0.286-0.173-0.535-0.173c-0.331,0-0.627,0.134-0.89,0.401c-0.262,0.268-0.469,0.629-0.62,1.082
	c-0.151,0.454-0.227,0.906-0.227,1.357c0,0.337,0.046,0.589,0.139,0.756c0.093,0.167,0.248,0.251,0.464,0.251
	c0.101,0,0.203-0.022,0.307-0.066c0.104-0.043,0.211-0.114,0.323-0.211c0.112-0.098,0.222-0.216,0.331-0.355
	c0.108-0.14,0.208-0.279,0.299-0.421c0.091-0.141,0.175-0.308,0.253-0.501c0.078-0.192,0.144-0.425,0.199-0.697L30.077,124.644z
	 M34.444,125.408c-0.049-0.257-0.099-0.503-0.151-0.739c-0.052-0.237-0.105-0.458-0.161-0.662s-0.101-0.338-0.136-0.401
	c-0.036-0.063-0.074-0.106-0.114-0.131s-0.091-0.036-0.153-0.036c-0.068,0-0.129,0.015-0.185,0.046s-0.115,0.084-0.18,0.16
	c-0.064,0.076-0.15,0.195-0.257,0.357l-0.316-0.209c0.204-0.308,0.4-0.538,0.588-0.69s0.41-0.229,0.667-0.229
	c0.101,0,0.189,0.012,0.265,0.034s0.143,0.058,0.202,0.104s0.11,0.107,0.156,0.183c0.045,0.074,0.089,0.176,0.131,0.304
	c0.042,0.128,0.082,0.287,0.119,0.477c0.037,0.189,0.07,0.387,0.1,0.591h0.048c0.312-0.438,0.547-0.758,0.708-0.961
	c0.16-0.202,0.295-0.353,0.406-0.452c0.11-0.099,0.217-0.168,0.319-0.209c0.102-0.04,0.237-0.061,0.406-0.061
	c0.152,0,0.277,0.02,0.375,0.059l-0.194,0.88h-0.34c-0.02-0.136-0.076-0.204-0.17-0.204c-0.029,0-0.06,0.005-0.092,0.015
	c-0.033,0.01-0.072,0.03-0.119,0.063c-0.047,0.032-0.116,0.096-0.207,0.189c-0.09,0.094-0.193,0.209-0.306,0.345
	c-0.113,0.137-0.23,0.279-0.35,0.429l-0.331,0.413c0.058,0.312,0.113,0.58,0.165,0.808c0.052,0.227,0.098,0.415,0.139,0.566
	c0.041,0.15,0.076,0.27,0.107,0.357c0.031,0.087,0.064,0.153,0.1,0.197c0.036,0.043,0.072,0.074,0.11,0.092
	c0.037,0.018,0.08,0.027,0.128,0.027c0.088,0,0.173-0.034,0.255-0.103c0.083-0.068,0.202-0.222,0.357-0.462l0.316,0.209
	c-0.227,0.337-0.432,0.574-0.615,0.713c-0.183,0.138-0.401,0.206-0.654,0.206c-0.139,0-0.258-0.025-0.355-0.075
	s-0.182-0.131-0.253-0.24c-0.071-0.11-0.134-0.282-0.189-0.516c-0.101-0.415-0.162-0.733-0.185-0.953h-0.048
	c-0.344,0.482-0.599,0.829-0.766,1.04s-0.305,0.366-0.414,0.467c-0.108,0.101-0.214,0.172-0.316,0.212s-0.237,0.061-0.406,0.061
	c-0.152,0-0.277-0.02-0.375-0.059l0.195-0.88h0.34c0.02,0.137,0.076,0.204,0.17,0.204c0.045,0,0.093-0.012,0.143-0.036
	s0.123-0.083,0.217-0.175c0.094-0.093,0.224-0.238,0.389-0.436C33.889,126.099,34.129,125.803,34.444,125.408z"/>
<path d="M52.804,126.366c-0.311,0.453-0.606,0.786-0.885,0.997c-0.279,0.21-0.574,0.315-0.885,0.315
	c-0.357,0-0.633-0.134-0.829-0.403c-0.196-0.27-0.294-0.646-0.294-1.133c0-0.558,0.109-1.094,0.328-1.607
	c0.219-0.515,0.52-0.92,0.902-1.216c0.382-0.297,0.809-0.445,1.279-0.445c0.198,0,0.38,0.021,0.547,0.061
	c0.167,0.041,0.338,0.111,0.513,0.212l0.253-1.124c0.026-0.106,0.048-0.225,0.068-0.354s0.029-0.243,0.029-0.341
	c0-0.097-0.018-0.171-0.054-0.221c-0.036-0.051-0.086-0.087-0.153-0.109c-0.066-0.022-0.186-0.039-0.357-0.049l0.059-0.253
	l1.221-0.044h0.287l-1.211,5.384c-0.071,0.317-0.107,0.558-0.107,0.72c0,0.13,0.021,0.224,0.063,0.282
	c0.042,0.059,0.108,0.088,0.199,0.088c0.097,0,0.201-0.04,0.312-0.119c0.11-0.08,0.266-0.231,0.467-0.455l0.277,0.272
	c-0.298,0.314-0.55,0.536-0.754,0.666c-0.205,0.13-0.425,0.194-0.662,0.194c-0.201,0-0.361-0.066-0.481-0.199s-0.18-0.31-0.18-0.53
	c0-0.178,0.037-0.368,0.112-0.568L52.804,126.366z M53.13,124.644c0.048-0.233,0.073-0.454,0.073-0.662
	c0-0.253-0.054-0.437-0.161-0.552s-0.285-0.173-0.535-0.173c-0.331,0-0.627,0.134-0.89,0.401s-0.469,0.629-0.62,1.082
	c-0.151,0.454-0.226,0.906-0.226,1.357c0,0.337,0.046,0.589,0.139,0.756s0.247,0.251,0.464,0.251c0.101,0,0.203-0.022,0.306-0.066
	c0.104-0.043,0.212-0.114,0.324-0.211c0.112-0.098,0.222-0.216,0.331-0.355s0.208-0.279,0.299-0.421
	c0.09-0.141,0.175-0.308,0.253-0.501c0.078-0.192,0.144-0.425,0.199-0.697L53.13,124.644z"/>
<path d="M59.547,126.035c-0.072,0.312-0.107,0.551-0.107,0.72c0,0.13,0.021,0.224,0.063,0.282s0.108,0.088,0.199,0.088
	c0.098,0,0.201-0.04,0.312-0.119c0.11-0.08,0.266-0.231,0.467-0.455l0.277,0.272c-0.295,0.314-0.546,0.536-0.754,0.666
	s-0.428,0.194-0.662,0.194c-0.201,0-0.361-0.066-0.481-0.199c-0.12-0.133-0.18-0.31-0.18-0.53c0-0.175,0.039-0.366,0.117-0.573
	l-0.059-0.02c-0.321,0.45-0.625,0.782-0.912,0.997c-0.287,0.214-0.581,0.32-0.883,0.32s-0.533-0.087-0.695-0.26
	c-0.162-0.174-0.243-0.414-0.243-0.723c0-0.204,0.047-0.494,0.141-0.87l0.316-1.274c0.087-0.354,0.131-0.603,0.131-0.749
	c0-0.13-0.021-0.224-0.063-0.282c-0.042-0.058-0.108-0.087-0.199-0.087c-0.101,0-0.207,0.041-0.318,0.124
	c-0.112,0.082-0.265,0.232-0.46,0.449l-0.277-0.272c0.275-0.278,0.483-0.47,0.623-0.573c0.139-0.104,0.273-0.178,0.401-0.222
	c0.128-0.044,0.271-0.065,0.431-0.065c0.208,0,0.371,0.069,0.491,0.209c0.12,0.14,0.18,0.327,0.18,0.564
	c0,0.256-0.05,0.575-0.151,0.958l-0.214,0.841c-0.055,0.215-0.095,0.382-0.119,0.501c-0.024,0.12-0.042,0.224-0.053,0.312
	c-0.012,0.088-0.017,0.16-0.017,0.219c0,0.224,0.037,0.385,0.112,0.484c0.075,0.099,0.196,0.148,0.365,0.148
	c0.136,0,0.283-0.055,0.44-0.163s0.324-0.272,0.501-0.491s0.319-0.432,0.426-0.638c0.107-0.205,0.194-0.459,0.262-0.761l0.462-2.105
	h0.841L59.547,126.035z M64.312,126.366c-0.312,0.453-0.606,0.786-0.885,0.997c-0.279,0.21-0.574,0.315-0.885,0.315
	c-0.356,0-0.633-0.134-0.829-0.403s-0.294-0.646-0.294-1.133c0-0.558,0.11-1.094,0.329-1.607c0.219-0.515,0.52-0.92,0.902-1.216
	c0.383-0.297,0.809-0.445,1.279-0.445c0.198,0,0.38,0.021,0.547,0.061c0.167,0.041,0.338,0.111,0.513,0.212l0.253-1.124
	c0.026-0.106,0.049-0.225,0.068-0.354c0.02-0.13,0.029-0.243,0.029-0.341c0-0.097-0.018-0.171-0.053-0.221
	c-0.036-0.051-0.087-0.087-0.153-0.109s-0.186-0.039-0.357-0.049l0.058-0.253l1.221-0.044h0.287l-1.211,5.384
	c-0.071,0.317-0.107,0.558-0.107,0.72c0,0.13,0.021,0.224,0.063,0.282s0.109,0.088,0.2,0.088c0.097,0,0.201-0.04,0.311-0.119
	c0.11-0.08,0.266-0.231,0.467-0.455l0.277,0.272c-0.298,0.314-0.55,0.536-0.754,0.666s-0.425,0.194-0.661,0.194
	c-0.201,0-0.362-0.066-0.481-0.199c-0.12-0.133-0.18-0.31-0.18-0.53c0-0.178,0.037-0.368,0.112-0.568L64.312,126.366z
	 M64.637,124.644c0.049-0.233,0.073-0.454,0.073-0.662c0-0.253-0.053-0.437-0.16-0.552s-0.286-0.173-0.535-0.173
	c-0.331,0-0.627,0.134-0.89,0.401c-0.262,0.268-0.469,0.629-0.62,1.082c-0.15,0.454-0.226,0.906-0.226,1.357
	c0,0.337,0.046,0.589,0.139,0.756s0.247,0.251,0.464,0.251c0.101,0,0.203-0.022,0.307-0.066c0.104-0.043,0.211-0.114,0.323-0.211
	c0.112-0.098,0.222-0.216,0.331-0.355c0.109-0.14,0.208-0.279,0.299-0.421c0.091-0.141,0.175-0.308,0.253-0.501
	c0.078-0.192,0.144-0.425,0.199-0.697L64.637,124.644z M69.062,127.615c-0.094-0.566-0.222-1.251-0.384-2.052
	c-0.172-0.856-0.285-1.386-0.34-1.591c-0.068-0.246-0.14-0.403-0.214-0.472c-0.045-0.042-0.102-0.063-0.17-0.063
	c-0.104,0-0.201,0.042-0.292,0.126c-0.09,0.085-0.203,0.23-0.335,0.438l-0.316-0.209c0.224-0.334,0.433-0.569,0.627-0.707
	c0.194-0.138,0.412-0.207,0.651-0.207c0.133,0,0.247,0.018,0.341,0.054c0.064,0.025,0.129,0.068,0.194,0.129
	c0.065,0.06,0.122,0.144,0.173,0.25c0.05,0.107,0.094,0.228,0.131,0.36c0.038,0.133,0.079,0.324,0.124,0.573
	c0.078,0.419,0.153,0.858,0.227,1.32c0.073,0.463,0.135,0.892,0.187,1.287c0.314-0.454,0.581-0.898,0.8-1.333
	c0.219-0.435,0.376-0.813,0.472-1.133c0.095-0.321,0.143-0.582,0.143-0.783c0-0.152-0.032-0.256-0.097-0.312
	c-0.065-0.055-0.175-0.087-0.331-0.097l0.048-0.238h1.279l0.131,0.243c-0.247,0.674-0.581,1.396-1.002,2.164
	c-0.415,0.752-0.89,1.501-1.425,2.247c-0.512,0.71-0.938,1.224-1.279,1.541c-0.236,0.218-0.465,0.373-0.686,0.467
	c-0.175,0.071-0.361,0.107-0.559,0.107c-0.068,0-0.147-0.006-0.236-0.018c-0.089-0.011-0.158-0.026-0.207-0.046l0.209-0.943h0.384
	c0,0.207,0.071,0.312,0.214,0.312c0.188,0,0.407-0.118,0.656-0.353C68.431,128.443,68.725,128.088,69.062,127.615z"/>
<path d="M87.504,126.366c-0.312,0.453-0.606,0.786-0.885,0.997c-0.279,0.21-0.574,0.315-0.885,0.315
	c-0.356,0-0.633-0.134-0.829-0.403s-0.294-0.646-0.294-1.133c0-0.558,0.109-1.094,0.328-1.607c0.219-0.515,0.52-0.92,0.902-1.216
	c0.383-0.297,0.809-0.445,1.279-0.445c0.198,0,0.38,0.021,0.547,0.061c0.167,0.041,0.338,0.111,0.513,0.212l0.253-1.124
	c0.026-0.106,0.049-0.225,0.068-0.354c0.019-0.13,0.029-0.243,0.029-0.341c0-0.097-0.018-0.171-0.053-0.221
	c-0.036-0.051-0.087-0.087-0.153-0.109s-0.186-0.039-0.357-0.049l0.059-0.253l1.22-0.044h0.287l-1.211,5.384
	c-0.071,0.317-0.107,0.558-0.107,0.72c0,0.13,0.021,0.224,0.063,0.282c0.042,0.059,0.109,0.088,0.2,0.088
	c0.097,0,0.201-0.04,0.311-0.119c0.11-0.08,0.266-0.231,0.467-0.455l0.277,0.272c-0.298,0.314-0.549,0.536-0.754,0.666
	c-0.204,0.13-0.425,0.194-0.661,0.194c-0.201,0-0.362-0.066-0.481-0.199c-0.12-0.133-0.18-0.31-0.18-0.53
	c0-0.178,0.037-0.368,0.112-0.568L87.504,126.366z M87.83,124.644c0.049-0.233,0.073-0.454,0.073-0.662
	c0-0.253-0.054-0.437-0.161-0.552s-0.286-0.173-0.535-0.173c-0.331,0-0.627,0.134-0.89,0.401c-0.263,0.268-0.47,0.629-0.62,1.082
	c-0.151,0.454-0.226,0.906-0.226,1.357c0,0.337,0.046,0.589,0.138,0.756c0.093,0.167,0.248,0.251,0.465,0.251
	c0.1,0,0.202-0.022,0.306-0.066c0.104-0.043,0.211-0.114,0.323-0.211c0.112-0.098,0.222-0.216,0.331-0.355
	c0.108-0.14,0.208-0.279,0.299-0.421c0.091-0.141,0.175-0.308,0.253-0.501c0.078-0.192,0.145-0.425,0.199-0.697L87.83,124.644z"/>
<path d="M94.247,126.035c-0.071,0.312-0.107,0.551-0.107,0.72c0,0.13,0.021,0.224,0.063,0.282c0.042,0.059,0.108,0.088,0.199,0.088
	c0.097,0,0.201-0.04,0.311-0.119c0.11-0.08,0.266-0.231,0.467-0.455l0.277,0.272c-0.295,0.314-0.546,0.536-0.754,0.666
	s-0.428,0.194-0.661,0.194c-0.201,0-0.362-0.066-0.481-0.199c-0.12-0.133-0.18-0.31-0.18-0.53c0-0.175,0.039-0.366,0.117-0.573
	l-0.058-0.02c-0.321,0.45-0.625,0.782-0.912,0.997c-0.287,0.214-0.581,0.32-0.882,0.32c-0.302,0-0.534-0.087-0.696-0.26
	c-0.162-0.174-0.243-0.414-0.243-0.723c0-0.204,0.047-0.494,0.141-0.87l0.316-1.274c0.087-0.354,0.131-0.603,0.131-0.749
	c0-0.13-0.021-0.224-0.063-0.282c-0.042-0.058-0.109-0.087-0.199-0.087c-0.101,0-0.207,0.041-0.319,0.124
	c-0.112,0.082-0.265,0.232-0.459,0.449l-0.277-0.272c0.276-0.278,0.483-0.47,0.623-0.573c0.14-0.104,0.273-0.178,0.401-0.222
	s0.271-0.065,0.43-0.065c0.208,0,0.372,0.069,0.491,0.209c0.12,0.14,0.18,0.327,0.18,0.564c0,0.256-0.05,0.575-0.151,0.958
	l-0.214,0.841c-0.055,0.215-0.095,0.382-0.119,0.501c-0.024,0.12-0.042,0.224-0.054,0.312s-0.017,0.16-0.017,0.219
	c0,0.224,0.038,0.385,0.112,0.484c0.075,0.099,0.196,0.148,0.365,0.148c0.136,0,0.283-0.055,0.44-0.163s0.324-0.272,0.501-0.491
	s0.318-0.432,0.425-0.638c0.107-0.205,0.195-0.459,0.263-0.761l0.462-2.105h0.841L94.247,126.035z M99.011,126.366
	c-0.311,0.453-0.606,0.786-0.885,0.997c-0.279,0.21-0.574,0.315-0.885,0.315c-0.357,0-0.633-0.134-0.829-0.403
	c-0.196-0.27-0.294-0.646-0.294-1.133c0-0.558,0.109-1.094,0.328-1.607c0.219-0.515,0.52-0.92,0.902-1.216
	c0.382-0.297,0.809-0.445,1.279-0.445c0.198,0,0.38,0.021,0.547,0.061c0.167,0.041,0.338,0.111,0.513,0.212l0.253-1.124
	c0.026-0.106,0.048-0.225,0.068-0.354s0.029-0.243,0.029-0.341c0-0.097-0.018-0.171-0.054-0.221
	c-0.036-0.051-0.086-0.087-0.153-0.109c-0.066-0.022-0.186-0.039-0.357-0.049l0.059-0.253l1.221-0.044h0.287l-1.211,5.384
	c-0.071,0.317-0.107,0.558-0.107,0.72c0,0.13,0.021,0.224,0.063,0.282c0.042,0.059,0.108,0.088,0.199,0.088
	c0.097,0,0.201-0.04,0.312-0.119c0.11-0.08,0.266-0.231,0.467-0.455l0.277,0.272c-0.298,0.314-0.55,0.536-0.754,0.666
	c-0.205,0.13-0.425,0.194-0.662,0.194c-0.201,0-0.361-0.066-0.481-0.199s-0.18-0.31-0.18-0.53c0-0.178,0.037-0.368,0.112-0.568
	L99.011,126.366z M99.337,124.644c0.048-0.233,0.073-0.454,0.073-0.662c0-0.253-0.054-0.437-0.161-0.552s-0.285-0.173-0.535-0.173
	c-0.331,0-0.627,0.134-0.89,0.401s-0.469,0.629-0.62,1.082c-0.151,0.454-0.226,0.906-0.226,1.357c0,0.337,0.046,0.589,0.139,0.756
	s0.247,0.251,0.464,0.251c0.101,0,0.203-0.022,0.306-0.066c0.104-0.043,0.212-0.114,0.324-0.211
	c0.112-0.098,0.222-0.216,0.331-0.355s0.208-0.279,0.299-0.421c0.09-0.141,0.175-0.308,0.253-0.501
	c0.078-0.192,0.144-0.425,0.199-0.697L99.337,124.644z M105.416,126.239l-0.297,1.367h-3.521l-0.092-0.238l2.66-3.064
	c0.376-0.431,0.652-0.737,0.827-0.919l-0.029-0.034h-1.138c-0.168,0-0.292,0.012-0.37,0.034s-0.156,0.063-0.233,0.119
	s-0.161,0.141-0.25,0.253c-0.089,0.111-0.189,0.271-0.299,0.479h-0.433l0.287-1.278h3.458l0.093,0.243l-2.32,2.665
	c-0.451,0.516-0.841,0.953-1.172,1.313l0.029,0.034h1.099c0.194,0,0.344-0.011,0.447-0.031c0.104-0.021,0.195-0.061,0.272-0.119
	s0.158-0.146,0.241-0.266c0.083-0.118,0.186-0.304,0.309-0.557H105.416z"/>
<path d="M18.364,138.605c-0.311,0.454-0.606,0.787-0.885,0.997c-0.279,0.211-0.574,0.316-0.885,0.316
	c-0.357,0-0.633-0.135-0.83-0.403c-0.196-0.27-0.294-0.647-0.294-1.134c0-0.558,0.109-1.093,0.328-1.607
	c0.219-0.514,0.52-0.919,0.902-1.216c0.382-0.296,0.809-0.444,1.279-0.444c0.198,0,0.38,0.021,0.547,0.061
	c0.167,0.041,0.338,0.111,0.513,0.212l0.252-1.124c0.026-0.106,0.049-0.225,0.068-0.354s0.029-0.243,0.029-0.341
	c0-0.097-0.018-0.171-0.054-0.221c-0.036-0.051-0.087-0.087-0.153-0.11c-0.066-0.022-0.186-0.038-0.357-0.048l0.059-0.253
	l1.221-0.044h0.287l-1.211,5.384c-0.071,0.317-0.107,0.558-0.107,0.72c0,0.13,0.021,0.224,0.063,0.282
	c0.042,0.058,0.108,0.087,0.199,0.087c0.097,0,0.201-0.039,0.312-0.119c0.11-0.079,0.266-0.23,0.467-0.454l0.277,0.271
	c-0.298,0.315-0.549,0.537-0.753,0.667c-0.205,0.13-0.425,0.194-0.662,0.194c-0.201,0-0.361-0.066-0.481-0.199s-0.18-0.31-0.18-0.53
	c0-0.179,0.038-0.368,0.112-0.569L18.364,138.605z M18.69,136.883c0.049-0.233,0.073-0.453,0.073-0.661
	c0-0.253-0.054-0.437-0.161-0.552s-0.285-0.173-0.535-0.173c-0.331,0-0.627,0.134-0.89,0.401s-0.469,0.628-0.62,1.082
	s-0.226,0.906-0.226,1.356c0,0.338,0.046,0.59,0.139,0.757c0.092,0.167,0.247,0.25,0.464,0.25c0.101,0,0.203-0.021,0.306-0.065
	c0.104-0.044,0.212-0.114,0.324-0.212c0.112-0.097,0.222-0.215,0.331-0.354c0.108-0.14,0.208-0.279,0.299-0.421
	c0.091-0.141,0.175-0.308,0.253-0.501c0.078-0.192,0.145-0.426,0.2-0.697L18.69,136.883z"/>
<path d="M22.451,139.928c-0.094,0-0.172-0.023-0.236-0.07c-0.063-0.047-0.114-0.113-0.153-0.199
	c-0.039-0.086-0.067-0.188-0.083-0.305c-0.016-0.116-0.024-0.244-0.024-0.384c0-0.185,0.012-0.383,0.034-0.594
	c0.022-0.21,0.052-0.423,0.087-0.637l0.205-1.348c0.013-0.077,0.023-0.151,0.031-0.221c0.008-0.069,0.012-0.121,0.012-0.153
	c0-0.101-0.016-0.184-0.048-0.248c-0.033-0.064-0.088-0.098-0.166-0.098c-0.062,0-0.128,0.02-0.199,0.057s-0.144,0.085-0.216,0.144
	c-0.073,0.058-0.144,0.12-0.212,0.187c-0.068,0.066-0.131,0.129-0.189,0.188l-0.233-0.272c0.101-0.104,0.208-0.206,0.321-0.309
	s0.233-0.194,0.36-0.277s0.259-0.149,0.399-0.199c0.139-0.051,0.282-0.075,0.428-0.075c0.124,0,0.224,0.021,0.302,0.061
	c0.078,0.041,0.139,0.094,0.182,0.16c0.044,0.066,0.074,0.14,0.09,0.219c0.016,0.08,0.024,0.158,0.024,0.236
	c0,0.045-0.001,0.089-0.005,0.131c-0.003,0.043-0.008,0.081-0.014,0.117l-0.272,1.761c-0.029,0.185-0.054,0.365-0.073,0.542
	c-0.019,0.177-0.029,0.333-0.029,0.47c0,0.136,0.008,0.246,0.024,0.33c0.017,0.085,0.047,0.127,0.093,0.127
	c0.107,0,0.241-0.043,0.403-0.129s0.333-0.204,0.511-0.355c0.178-0.15,0.357-0.329,0.535-0.535c0.178-0.205,0.339-0.429,0.481-0.668
	c0.143-0.24,0.258-0.493,0.348-0.759s0.134-0.533,0.134-0.803c0-0.116-0.025-0.207-0.076-0.27c-0.05-0.063-0.128-0.095-0.236-0.095
	c-0.136,0-0.262,0.053-0.376,0.157c-0.115,0.105-0.234,0.244-0.358,0.416l-0.277-0.248c0.078-0.116,0.169-0.229,0.274-0.335
	c0.105-0.107,0.217-0.201,0.336-0.282c0.118-0.081,0.241-0.146,0.367-0.194c0.126-0.049,0.25-0.073,0.37-0.073
	c0.233,0,0.402,0.061,0.506,0.183c0.104,0.121,0.155,0.284,0.155,0.488c0,0.155-0.027,0.334-0.083,0.535s-0.133,0.413-0.233,0.637
	s-0.221,0.453-0.36,0.688c-0.14,0.235-0.293,0.464-0.462,0.686c-0.169,0.223-0.349,0.432-0.54,0.628
	c-0.191,0.195-0.39,0.367-0.596,0.513s-0.415,0.262-0.627,0.348S22.662,139.928,22.451,139.928z M29.524,138.605
	c-0.312,0.454-0.606,0.787-0.885,0.997c-0.279,0.211-0.574,0.316-0.885,0.316c-0.356,0-0.633-0.135-0.829-0.403
	c-0.196-0.27-0.294-0.647-0.294-1.134c0-0.558,0.109-1.093,0.328-1.607c0.219-0.514,0.52-0.919,0.902-1.216
	c0.382-0.296,0.809-0.444,1.279-0.444c0.198,0,0.38,0.021,0.547,0.061c0.167,0.041,0.338,0.111,0.513,0.212l0.253-1.124
	c0.026-0.106,0.049-0.225,0.068-0.354s0.029-0.243,0.029-0.341c0-0.097-0.018-0.171-0.053-0.221
	c-0.036-0.051-0.087-0.087-0.153-0.11c-0.066-0.022-0.186-0.038-0.357-0.048l0.059-0.253l1.221-0.044h0.287l-1.211,5.384
	c-0.071,0.317-0.107,0.558-0.107,0.72c0,0.13,0.021,0.224,0.063,0.282c0.042,0.058,0.108,0.087,0.199,0.087
	c0.097,0,0.201-0.039,0.311-0.119c0.11-0.079,0.266-0.23,0.467-0.454l0.277,0.271c-0.298,0.315-0.549,0.537-0.754,0.667
	c-0.204,0.13-0.425,0.194-0.661,0.194c-0.201,0-0.362-0.066-0.481-0.199c-0.12-0.133-0.18-0.31-0.18-0.53
	c0-0.179,0.038-0.368,0.112-0.569L29.524,138.605z M29.85,136.883c0.049-0.233,0.073-0.453,0.073-0.661
	c0-0.253-0.054-0.437-0.161-0.552s-0.285-0.173-0.535-0.173c-0.331,0-0.627,0.134-0.89,0.401s-0.469,0.628-0.62,1.082
	s-0.226,0.906-0.226,1.356c0,0.338,0.046,0.59,0.138,0.757c0.093,0.167,0.248,0.25,0.465,0.25c0.1,0,0.203-0.021,0.306-0.065
	c0.104-0.044,0.211-0.114,0.323-0.212c0.112-0.097,0.222-0.215,0.331-0.354c0.108-0.14,0.208-0.279,0.299-0.421
	c0.091-0.141,0.175-0.308,0.253-0.501c0.078-0.192,0.145-0.426,0.2-0.697L29.85,136.883z M34.198,137.647
	c-0.048-0.256-0.099-0.502-0.15-0.739c-0.052-0.236-0.105-0.457-0.161-0.661s-0.101-0.338-0.136-0.401s-0.074-0.106-0.114-0.131
	s-0.092-0.037-0.153-0.037c-0.068,0-0.129,0.016-0.185,0.047c-0.055,0.03-0.115,0.084-0.18,0.16s-0.15,0.195-0.258,0.357
	l-0.316-0.209c0.204-0.308,0.4-0.538,0.588-0.69s0.41-0.229,0.667-0.229c0.1,0,0.188,0.011,0.265,0.034
	c0.076,0.022,0.144,0.058,0.202,0.104c0.058,0.047,0.11,0.107,0.156,0.182c0.045,0.075,0.089,0.177,0.131,0.305
	c0.042,0.128,0.082,0.286,0.119,0.477c0.038,0.189,0.071,0.387,0.1,0.591h0.048c0.312-0.438,0.547-0.758,0.708-0.961
	c0.161-0.202,0.296-0.354,0.406-0.452s0.216-0.169,0.318-0.209c0.103-0.041,0.238-0.061,0.406-0.061c0.152,0,0.277,0.02,0.375,0.058
	l-0.194,0.881h-0.341c-0.019-0.137-0.076-0.204-0.17-0.204c-0.029,0-0.06,0.005-0.092,0.015c-0.033,0.01-0.072,0.03-0.119,0.063
	c-0.047,0.033-0.116,0.096-0.207,0.19c-0.091,0.094-0.193,0.209-0.306,0.345c-0.114,0.137-0.23,0.279-0.35,0.428l-0.331,0.414
	c0.059,0.311,0.114,0.58,0.166,0.807c0.052,0.228,0.098,0.416,0.139,0.567c0.041,0.15,0.076,0.27,0.107,0.357
	c0.031,0.087,0.064,0.152,0.1,0.196s0.072,0.075,0.109,0.093c0.038,0.018,0.081,0.026,0.129,0.026c0.088,0,0.173-0.034,0.255-0.102
	c0.083-0.068,0.202-0.223,0.357-0.462l0.316,0.209c-0.227,0.337-0.432,0.574-0.615,0.712c-0.184,0.138-0.401,0.207-0.654,0.207
	c-0.139,0-0.258-0.025-0.355-0.075c-0.097-0.051-0.182-0.131-0.253-0.241s-0.135-0.282-0.189-0.516
	c-0.101-0.415-0.162-0.732-0.185-0.953h-0.048c-0.344,0.483-0.599,0.83-0.766,1.041s-0.305,0.366-0.414,0.467
	c-0.108,0.101-0.214,0.171-0.316,0.212c-0.102,0.04-0.238,0.061-0.406,0.061c-0.152,0-0.277-0.02-0.375-0.059l0.195-0.88h0.34
	c0.02,0.136,0.076,0.204,0.17,0.204c0.045,0,0.093-0.012,0.144-0.036s0.123-0.083,0.217-0.176c0.094-0.092,0.224-0.237,0.389-0.435
	C33.644,138.339,33.884,138.042,34.198,137.647z"/>
<path d="M52.924,138.605c-0.311,0.454-0.606,0.787-0.885,0.997c-0.279,0.211-0.574,0.316-0.885,0.316
	c-0.357,0-0.633-0.135-0.83-0.403c-0.196-0.27-0.294-0.647-0.294-1.134c0-0.558,0.109-1.093,0.328-1.607
	c0.219-0.514,0.52-0.919,0.902-1.216c0.382-0.296,0.809-0.444,1.279-0.444c0.198,0,0.38,0.021,0.547,0.061
	c0.167,0.041,0.338,0.111,0.513,0.212l0.253-1.124c0.026-0.106,0.049-0.225,0.068-0.354s0.029-0.243,0.029-0.341
	c0-0.097-0.018-0.171-0.054-0.221c-0.036-0.051-0.087-0.087-0.153-0.11c-0.066-0.022-0.186-0.038-0.357-0.048l0.059-0.253
	l1.221-0.044h0.287l-1.211,5.384c-0.071,0.317-0.107,0.558-0.107,0.72c0,0.13,0.021,0.224,0.063,0.282
	c0.042,0.058,0.108,0.087,0.199,0.087c0.097,0,0.201-0.039,0.311-0.119c0.11-0.079,0.266-0.23,0.467-0.454l0.277,0.271
	c-0.298,0.315-0.549,0.537-0.754,0.667c-0.204,0.13-0.424,0.194-0.661,0.194c-0.201,0-0.362-0.066-0.481-0.199
	c-0.12-0.133-0.18-0.31-0.18-0.53c0-0.179,0.038-0.368,0.112-0.569L52.924,138.605z M53.25,136.883
	c0.049-0.233,0.073-0.453,0.073-0.661c0-0.253-0.054-0.437-0.161-0.552s-0.285-0.173-0.535-0.173c-0.331,0-0.627,0.134-0.89,0.401
	s-0.469,0.628-0.62,1.082s-0.226,0.906-0.226,1.356c0,0.338,0.046,0.59,0.139,0.757c0.092,0.167,0.247,0.25,0.464,0.25
	c0.1,0,0.203-0.021,0.306-0.065c0.104-0.044,0.211-0.114,0.324-0.212c0.112-0.097,0.222-0.215,0.331-0.354
	c0.108-0.14,0.208-0.279,0.299-0.421c0.091-0.141,0.175-0.308,0.253-0.501c0.078-0.192,0.145-0.426,0.2-0.697L53.25,136.883z"/>
<path d="M57.011,139.928c-0.094,0-0.172-0.023-0.236-0.07c-0.063-0.047-0.114-0.113-0.153-0.199
	c-0.039-0.086-0.066-0.188-0.083-0.305c-0.016-0.116-0.024-0.244-0.024-0.384c0-0.185,0.011-0.383,0.034-0.594
	c0.022-0.21,0.052-0.423,0.087-0.637l0.205-1.348c0.013-0.077,0.023-0.151,0.031-0.221c0.008-0.069,0.012-0.121,0.012-0.153
	c0-0.101-0.016-0.184-0.048-0.248c-0.033-0.064-0.088-0.098-0.166-0.098c-0.062,0-0.128,0.02-0.199,0.057s-0.144,0.085-0.217,0.144
	c-0.073,0.058-0.143,0.12-0.211,0.187c-0.068,0.066-0.131,0.129-0.189,0.188l-0.233-0.272c0.1-0.104,0.208-0.206,0.321-0.309
	s0.233-0.194,0.36-0.277s0.259-0.149,0.399-0.199c0.139-0.051,0.282-0.075,0.428-0.075c0.123,0,0.224,0.021,0.302,0.061
	c0.078,0.041,0.139,0.094,0.182,0.16c0.044,0.066,0.074,0.14,0.09,0.219c0.016,0.08,0.024,0.158,0.024,0.236
	c0,0.045-0.001,0.089-0.005,0.131c-0.003,0.043-0.008,0.081-0.015,0.117l-0.272,1.761c-0.029,0.185-0.054,0.365-0.073,0.542
	s-0.029,0.333-0.029,0.47c0,0.136,0.008,0.246,0.024,0.33c0.017,0.085,0.047,0.127,0.093,0.127c0.107,0,0.241-0.043,0.403-0.129
	s0.333-0.204,0.511-0.355c0.178-0.15,0.356-0.329,0.535-0.535c0.178-0.205,0.338-0.429,0.481-0.668
	c0.143-0.24,0.258-0.493,0.348-0.759c0.089-0.266,0.134-0.533,0.134-0.803c0-0.116-0.025-0.207-0.076-0.27
	c-0.05-0.063-0.129-0.095-0.236-0.095c-0.136,0-0.262,0.053-0.377,0.157c-0.115,0.105-0.234,0.244-0.357,0.416l-0.277-0.248
	c0.078-0.116,0.169-0.229,0.274-0.335c0.105-0.107,0.217-0.201,0.336-0.282c0.118-0.081,0.241-0.146,0.367-0.194
	c0.126-0.049,0.25-0.073,0.37-0.073c0.233,0,0.402,0.061,0.505,0.183c0.104,0.121,0.156,0.284,0.156,0.488
	c0,0.155-0.027,0.334-0.083,0.535s-0.133,0.413-0.233,0.637c-0.101,0.224-0.221,0.453-0.36,0.688
	c-0.14,0.235-0.293,0.464-0.462,0.686c-0.168,0.223-0.348,0.432-0.54,0.628c-0.191,0.195-0.39,0.367-0.596,0.513
	c-0.206,0.146-0.415,0.262-0.627,0.348S57.222,139.928,57.011,139.928z M64.084,138.605c-0.312,0.454-0.606,0.787-0.885,0.997
	c-0.279,0.211-0.574,0.316-0.885,0.316c-0.356,0-0.633-0.135-0.829-0.403c-0.196-0.27-0.294-0.647-0.294-1.134
	c0-0.558,0.109-1.093,0.328-1.607c0.219-0.514,0.52-0.919,0.902-1.216c0.383-0.296,0.809-0.444,1.279-0.444
	c0.198,0,0.38,0.021,0.547,0.061c0.167,0.041,0.338,0.111,0.513,0.212l0.253-1.124c0.026-0.106,0.049-0.225,0.068-0.354
	c0.019-0.13,0.029-0.243,0.029-0.341c0-0.097-0.018-0.171-0.053-0.221c-0.036-0.051-0.087-0.087-0.153-0.11
	c-0.066-0.022-0.186-0.038-0.357-0.048l0.058-0.253l1.221-0.044h0.287l-1.211,5.384c-0.071,0.317-0.107,0.558-0.107,0.72
	c0,0.13,0.021,0.224,0.063,0.282c0.042,0.058,0.109,0.087,0.2,0.087c0.097,0,0.201-0.039,0.311-0.119
	c0.11-0.079,0.266-0.23,0.467-0.454l0.277,0.271c-0.298,0.315-0.549,0.537-0.754,0.667c-0.204,0.13-0.425,0.194-0.661,0.194
	c-0.201,0-0.362-0.066-0.481-0.199c-0.12-0.133-0.18-0.31-0.18-0.53c0-0.179,0.037-0.368,0.112-0.569L64.084,138.605z
	 M64.41,136.883c0.049-0.233,0.073-0.453,0.073-0.661c0-0.253-0.054-0.437-0.161-0.552s-0.286-0.173-0.535-0.173
	c-0.331,0-0.627,0.134-0.89,0.401c-0.263,0.268-0.47,0.628-0.62,1.082c-0.151,0.454-0.226,0.906-0.226,1.356
	c0,0.338,0.046,0.59,0.138,0.757c0.093,0.167,0.248,0.25,0.465,0.25c0.1,0,0.202-0.021,0.306-0.065
	c0.104-0.044,0.211-0.114,0.323-0.212c0.112-0.097,0.222-0.215,0.331-0.354c0.108-0.14,0.208-0.279,0.299-0.421
	c0.091-0.141,0.175-0.308,0.253-0.501c0.078-0.192,0.144-0.426,0.199-0.697L64.41,136.883z M68.817,139.855
	c-0.094-0.567-0.222-1.251-0.384-2.052c-0.172-0.856-0.285-1.387-0.34-1.591c-0.068-0.246-0.14-0.403-0.214-0.472
	c-0.045-0.042-0.102-0.063-0.17-0.063c-0.104,0-0.201,0.043-0.292,0.127s-0.203,0.23-0.335,0.438l-0.316-0.209
	c0.224-0.334,0.433-0.569,0.627-0.708c0.195-0.138,0.412-0.206,0.652-0.206c0.133,0,0.247,0.018,0.34,0.053
	c0.065,0.026,0.13,0.069,0.195,0.129c0.064,0.061,0.122,0.144,0.172,0.251c0.05,0.106,0.094,0.227,0.131,0.359
	c0.038,0.134,0.079,0.324,0.124,0.574c0.078,0.418,0.153,0.858,0.226,1.32c0.073,0.462,0.136,0.891,0.188,1.286
	c0.314-0.453,0.581-0.897,0.8-1.332s0.376-0.813,0.472-1.133c0.096-0.321,0.144-0.582,0.144-0.783c0-0.152-0.032-0.256-0.097-0.312
	c-0.065-0.055-0.175-0.088-0.331-0.098l0.048-0.238h1.279l0.131,0.243c-0.247,0.675-0.581,1.396-1.002,2.164
	c-0.415,0.753-0.89,1.502-1.425,2.247c-0.513,0.71-0.939,1.225-1.279,1.542c-0.237,0.217-0.465,0.373-0.686,0.467
	c-0.175,0.071-0.362,0.107-0.56,0.107c-0.068,0-0.146-0.006-0.236-0.018c-0.089-0.012-0.158-0.026-0.207-0.046l0.209-0.943h0.384
	c0,0.207,0.071,0.311,0.214,0.311c0.188,0,0.407-0.117,0.657-0.353C68.186,140.683,68.479,140.329,68.817,139.855z"/>
<path d="M87.625,138.605c-0.312,0.454-0.606,0.787-0.885,0.997c-0.279,0.211-0.574,0.316-0.885,0.316
	c-0.356,0-0.633-0.135-0.829-0.403c-0.196-0.27-0.294-0.647-0.294-1.134c0-0.558,0.109-1.093,0.329-1.607
	c0.219-0.514,0.52-0.919,0.902-1.216c0.383-0.296,0.809-0.444,1.279-0.444c0.198,0,0.38,0.021,0.547,0.061
	c0.167,0.041,0.338,0.111,0.513,0.212l0.253-1.124c0.026-0.106,0.049-0.225,0.068-0.354c0.02-0.13,0.029-0.243,0.029-0.341
	c0-0.097-0.018-0.171-0.053-0.221c-0.036-0.051-0.087-0.087-0.153-0.11c-0.066-0.022-0.186-0.038-0.357-0.048l0.058-0.253
	l1.221-0.044h0.287l-1.211,5.384c-0.071,0.317-0.107,0.558-0.107,0.72c0,0.13,0.021,0.224,0.063,0.282
	c0.042,0.058,0.109,0.087,0.2,0.087c0.097,0,0.201-0.039,0.311-0.119c0.11-0.079,0.266-0.23,0.467-0.454l0.277,0.271
	c-0.298,0.315-0.55,0.537-0.754,0.667s-0.425,0.194-0.661,0.194c-0.201,0-0.362-0.066-0.482-0.199c-0.12-0.133-0.18-0.31-0.18-0.53
	c0-0.179,0.037-0.368,0.112-0.569L87.625,138.605z M87.95,136.883c0.048-0.233,0.073-0.453,0.073-0.661
	c0-0.253-0.053-0.437-0.16-0.552c-0.107-0.115-0.286-0.173-0.535-0.173c-0.331,0-0.627,0.134-0.89,0.401s-0.469,0.628-0.62,1.082
	c-0.15,0.454-0.226,0.906-0.226,1.356c0,0.338,0.046,0.59,0.139,0.757s0.247,0.25,0.464,0.25c0.101,0,0.203-0.021,0.307-0.065
	c0.104-0.044,0.211-0.114,0.323-0.212c0.112-0.097,0.222-0.215,0.331-0.354c0.109-0.14,0.208-0.279,0.299-0.421
	c0.091-0.141,0.175-0.308,0.253-0.501c0.078-0.192,0.144-0.426,0.199-0.697L87.95,136.883z"/>
<path d="M91.711,139.928c-0.094,0-0.173-0.023-0.236-0.07c-0.063-0.047-0.114-0.113-0.153-0.199s-0.066-0.188-0.083-0.305
	c-0.017-0.116-0.024-0.244-0.024-0.384c0-0.185,0.011-0.383,0.034-0.594c0.022-0.21,0.052-0.423,0.087-0.637l0.204-1.348
	c0.013-0.077,0.023-0.151,0.032-0.221c0.008-0.069,0.012-0.121,0.012-0.153c0-0.101-0.016-0.184-0.049-0.248
	c-0.032-0.064-0.087-0.098-0.165-0.098c-0.062,0-0.128,0.02-0.2,0.057s-0.144,0.085-0.216,0.144
	c-0.073,0.058-0.144,0.12-0.211,0.187c-0.068,0.066-0.131,0.129-0.19,0.188l-0.233-0.272c0.101-0.104,0.208-0.206,0.321-0.309
	c0.113-0.103,0.233-0.194,0.36-0.277s0.259-0.149,0.398-0.199c0.14-0.051,0.282-0.075,0.428-0.075c0.123,0,0.224,0.021,0.301,0.061
	c0.078,0.041,0.139,0.094,0.183,0.16s0.074,0.14,0.09,0.219c0.016,0.08,0.024,0.158,0.024,0.236c0,0.045-0.001,0.089-0.005,0.131
	c-0.003,0.043-0.008,0.081-0.015,0.117l-0.272,1.761c-0.029,0.185-0.053,0.365-0.073,0.542s-0.029,0.333-0.029,0.47
	c0,0.136,0.008,0.246,0.024,0.33c0.016,0.085,0.047,0.127,0.092,0.127c0.107,0,0.242-0.043,0.404-0.129s0.332-0.204,0.511-0.355
	c0.178-0.15,0.356-0.329,0.535-0.535c0.178-0.205,0.339-0.429,0.481-0.668c0.143-0.24,0.259-0.493,0.348-0.759
	c0.089-0.266,0.134-0.533,0.134-0.803c0-0.116-0.025-0.207-0.075-0.27c-0.05-0.063-0.129-0.095-0.236-0.095
	c-0.136,0-0.262,0.053-0.377,0.157c-0.115,0.105-0.234,0.244-0.357,0.416l-0.277-0.248c0.078-0.116,0.169-0.229,0.275-0.335
	c0.105-0.107,0.217-0.201,0.335-0.282c0.119-0.081,0.241-0.146,0.367-0.194c0.126-0.049,0.25-0.073,0.37-0.073
	c0.233,0,0.402,0.061,0.506,0.183c0.104,0.121,0.156,0.284,0.156,0.488c0,0.155-0.028,0.334-0.083,0.535s-0.133,0.413-0.233,0.637
	s-0.22,0.453-0.36,0.688c-0.139,0.235-0.293,0.464-0.462,0.686c-0.168,0.223-0.349,0.432-0.54,0.628
	c-0.191,0.195-0.39,0.367-0.596,0.513c-0.206,0.146-0.415,0.262-0.627,0.348C92.134,139.885,91.922,139.928,91.711,139.928z
	 M98.784,138.605c-0.311,0.454-0.606,0.787-0.885,0.997c-0.279,0.211-0.574,0.316-0.885,0.316c-0.357,0-0.633-0.135-0.829-0.403
	c-0.196-0.27-0.294-0.647-0.294-1.134c0-0.558,0.109-1.093,0.328-1.607c0.219-0.514,0.52-0.919,0.902-1.216
	c0.382-0.296,0.809-0.444,1.279-0.444c0.197,0,0.38,0.021,0.547,0.061c0.167,0.041,0.338,0.111,0.513,0.212l0.253-1.124
	c0.026-0.106,0.048-0.225,0.068-0.354s0.029-0.243,0.029-0.341c0-0.097-0.018-0.171-0.054-0.221
	c-0.036-0.051-0.086-0.087-0.153-0.11c-0.067-0.022-0.186-0.038-0.357-0.048l0.058-0.253l1.221-0.044h0.287l-1.211,5.384
	c-0.071,0.317-0.107,0.558-0.107,0.72c0,0.13,0.021,0.224,0.063,0.282c0.042,0.058,0.108,0.087,0.199,0.087
	c0.098,0,0.201-0.039,0.312-0.119c0.11-0.079,0.266-0.23,0.467-0.454l0.277,0.271c-0.298,0.315-0.55,0.537-0.754,0.667
	s-0.425,0.194-0.662,0.194c-0.201,0-0.361-0.066-0.481-0.199c-0.12-0.133-0.18-0.31-0.18-0.53c0-0.179,0.037-0.368,0.112-0.569
	L98.784,138.605z M99.11,136.883c0.048-0.233,0.073-0.453,0.073-0.661c0-0.253-0.053-0.437-0.161-0.552
	c-0.107-0.115-0.285-0.173-0.535-0.173c-0.331,0-0.627,0.134-0.89,0.401s-0.469,0.628-0.62,1.082s-0.226,0.906-0.226,1.356
	c0,0.338,0.046,0.59,0.139,0.757s0.247,0.25,0.464,0.25c0.101,0,0.203-0.021,0.307-0.065c0.104-0.044,0.211-0.114,0.323-0.212
	c0.112-0.097,0.222-0.215,0.331-0.354c0.109-0.14,0.208-0.279,0.299-0.421c0.091-0.141,0.175-0.308,0.253-0.501
	c0.078-0.192,0.144-0.426,0.199-0.697L99.11,136.883z M105.17,138.479l-0.297,1.366h-3.521l-0.092-0.238l2.66-3.063
	c0.376-0.432,0.652-0.737,0.827-0.919l-0.029-0.034h-1.138c-0.168,0-0.292,0.011-0.37,0.034c-0.078,0.022-0.156,0.063-0.233,0.119
	c-0.078,0.057-0.162,0.141-0.25,0.253c-0.089,0.111-0.189,0.271-0.299,0.479h-0.433l0.287-1.279h3.458l0.092,0.243l-2.32,2.665
	c-0.451,0.516-0.841,0.954-1.172,1.313l0.029,0.034h1.099c0.194,0,0.344-0.011,0.447-0.031c0.104-0.021,0.195-0.062,0.272-0.119
	c0.078-0.059,0.158-0.147,0.241-0.266s0.186-0.304,0.309-0.557H105.17z"/>
<path d="M17.533,150.962c-0.312,0.455-0.608,0.788-0.888,0.999c-0.279,0.212-0.575,0.317-0.887,0.317
	c-0.357,0-0.634-0.135-0.831-0.405c-0.197-0.27-0.295-0.647-0.295-1.136c0-0.559,0.11-1.096,0.329-1.611
	c0.219-0.515,0.521-0.921,0.904-1.219c0.383-0.297,0.811-0.445,1.282-0.445c0.198,0,0.381,0.021,0.548,0.061
	c0.167,0.041,0.339,0.111,0.514,0.212l0.253-1.126c0.026-0.107,0.049-0.226,0.068-0.355s0.029-0.244,0.029-0.342
	s-0.018-0.171-0.054-0.222c-0.036-0.05-0.087-0.087-0.153-0.109c-0.067-0.022-0.186-0.039-0.358-0.049l0.059-0.254l1.224-0.044
	h0.288l-1.214,5.397c-0.072,0.318-0.107,0.559-0.107,0.721c0,0.13,0.021,0.225,0.063,0.283c0.042,0.059,0.109,0.088,0.2,0.088
	c0.098,0,0.202-0.04,0.312-0.12c0.111-0.079,0.267-0.231,0.468-0.455l0.278,0.272c-0.299,0.315-0.551,0.538-0.756,0.668
	c-0.205,0.13-0.426,0.195-0.663,0.195c-0.202,0-0.363-0.066-0.483-0.2c-0.12-0.133-0.18-0.311-0.18-0.531
	c0-0.179,0.037-0.369,0.112-0.57L17.533,150.962z M17.859,149.237c0.049-0.234,0.073-0.455,0.073-0.663
	c0-0.254-0.054-0.438-0.161-0.554c-0.107-0.115-0.286-0.173-0.536-0.173c-0.332,0-0.629,0.134-0.893,0.402
	c-0.263,0.268-0.47,0.63-0.622,1.085c-0.151,0.455-0.227,0.908-0.227,1.359c0,0.339,0.046,0.591,0.139,0.759
	c0.092,0.167,0.248,0.251,0.465,0.251c0.101,0,0.203-0.022,0.307-0.066s0.212-0.114,0.324-0.212
	c0.112-0.098,0.223-0.216,0.332-0.355s0.209-0.28,0.3-0.422s0.176-0.309,0.253-0.502c0.078-0.193,0.145-0.427,0.2-0.7
	L17.859,149.237z"/>
<path d="M24.55,151.396c0.507-0.722,0.893-1.351,1.158-1.889c0.265-0.538,0.397-0.976,0.397-1.313c0-0.153-0.033-0.257-0.098-0.313
	s-0.175-0.088-0.332-0.098l0.049-0.238h1.258l0.132,0.243c-0.114,0.289-0.205,0.512-0.273,0.668
	c-0.068,0.156-0.158,0.344-0.268,0.563c-0.11,0.219-0.228,0.438-0.351,0.655s-0.269,0.458-0.436,0.719
	c-0.167,0.262-0.355,0.546-0.563,0.854c-0.208,0.307-0.454,0.652-0.736,1.036h-0.58l-0.2-2.038
	c-0.017-0.159-0.034-0.367-0.051-0.624c-0.018-0.257-0.03-0.455-0.037-0.595l-0.054-0.005c-0.175,0.433-0.414,0.913-0.716,1.443
	c-0.302,0.529-0.676,1.136-1.122,1.818h-0.653l-0.37-3.671c-0.02-0.188-0.044-0.342-0.073-0.458
	c-0.029-0.117-0.078-0.205-0.146-0.264s-0.18-0.094-0.336-0.107l0.054-0.238h1.277l0.292,3.846c0.458-0.747,0.789-1.316,0.992-1.706
	s0.354-0.728,0.451-1.012c0.098-0.284,0.172-0.581,0.225-0.89l0.053-0.238h0.702L24.55,151.396z M30.611,150.962
	c-0.312,0.455-0.608,0.788-0.887,0.999c-0.28,0.212-0.575,0.317-0.887,0.317c-0.358,0-0.635-0.135-0.832-0.405
	c-0.196-0.27-0.295-0.647-0.295-1.136c0-0.559,0.11-1.096,0.329-1.611c0.22-0.515,0.521-0.921,0.904-1.219
	c0.384-0.297,0.811-0.445,1.282-0.445c0.198,0,0.381,0.021,0.548,0.061c0.167,0.041,0.339,0.111,0.515,0.212l0.253-1.126
	c0.026-0.107,0.049-0.226,0.068-0.355s0.029-0.244,0.029-0.342s-0.018-0.171-0.054-0.222c-0.036-0.05-0.087-0.087-0.154-0.109
	c-0.066-0.022-0.186-0.039-0.358-0.049l0.059-0.254l1.224-0.044h0.288l-1.214,5.397c-0.071,0.318-0.107,0.559-0.107,0.721
	c0,0.13,0.021,0.225,0.063,0.283c0.042,0.059,0.109,0.088,0.2,0.088c0.097,0,0.201-0.04,0.312-0.12
	c0.11-0.079,0.266-0.231,0.468-0.455l0.278,0.272c-0.299,0.315-0.551,0.538-0.755,0.668c-0.205,0.13-0.426,0.195-0.663,0.195
	c-0.202,0-0.362-0.066-0.483-0.2c-0.12-0.133-0.18-0.311-0.18-0.531c0-0.179,0.037-0.369,0.112-0.57L30.611,150.962z
	 M30.938,149.237c0.049-0.234,0.073-0.455,0.073-0.663c0-0.254-0.054-0.438-0.161-0.554s-0.286-0.173-0.536-0.173
	c-0.332,0-0.629,0.134-0.892,0.402c-0.263,0.268-0.471,0.63-0.622,1.085c-0.151,0.455-0.227,0.908-0.227,1.359
	c0,0.339,0.046,0.591,0.139,0.759c0.093,0.167,0.248,0.251,0.466,0.251c0.101,0,0.203-0.022,0.307-0.066
	c0.104-0.044,0.212-0.114,0.324-0.212c0.112-0.098,0.222-0.216,0.331-0.355s0.209-0.28,0.3-0.422
	c0.091-0.142,0.176-0.309,0.254-0.502c0.078-0.193,0.145-0.427,0.2-0.7L30.938,149.237z M35.284,150.002
	c-0.048-0.257-0.099-0.504-0.151-0.741c-0.052-0.237-0.105-0.458-0.161-0.663c-0.055-0.205-0.101-0.339-0.136-0.402
	s-0.074-0.107-0.115-0.132s-0.092-0.036-0.153-0.036c-0.068,0-0.13,0.016-0.186,0.046c-0.055,0.031-0.115,0.085-0.18,0.161
	s-0.151,0.195-0.258,0.358l-0.317-0.21c0.205-0.309,0.401-0.539,0.59-0.692c0.188-0.152,0.411-0.229,0.668-0.229
	c0.101,0,0.189,0.011,0.266,0.034c0.076,0.022,0.144,0.058,0.202,0.104s0.11,0.108,0.156,0.183c0.045,0.075,0.089,0.177,0.131,0.305
	c0.042,0.129,0.082,0.288,0.12,0.478c0.037,0.19,0.071,0.388,0.1,0.593h0.048c0.312-0.438,0.549-0.76,0.709-0.963
	c0.161-0.203,0.296-0.354,0.407-0.453c0.11-0.1,0.217-0.169,0.319-0.21c0.102-0.04,0.238-0.061,0.407-0.061
	c0.153,0,0.278,0.02,0.375,0.059l-0.195,0.882H37.59c-0.02-0.137-0.077-0.205-0.171-0.205c-0.029,0-0.06,0.005-0.092,0.015
	c-0.033,0.01-0.072,0.031-0.12,0.063c-0.047,0.033-0.116,0.097-0.207,0.19c-0.091,0.095-0.193,0.21-0.307,0.346
	c-0.114,0.137-0.231,0.28-0.351,0.43l-0.332,0.414c0.059,0.313,0.114,0.582,0.166,0.81c0.052,0.228,0.098,0.417,0.139,0.567
	c0.041,0.151,0.076,0.271,0.107,0.358c0.031,0.088,0.064,0.153,0.1,0.197c0.036,0.044,0.072,0.075,0.11,0.093
	c0.037,0.019,0.081,0.027,0.129,0.027c0.087,0,0.173-0.034,0.256-0.103c0.083-0.068,0.202-0.223,0.358-0.463l0.317,0.209
	c-0.228,0.338-0.433,0.576-0.617,0.715c-0.184,0.138-0.402,0.207-0.656,0.207c-0.14,0-0.258-0.025-0.356-0.076
	c-0.098-0.05-0.182-0.131-0.253-0.241c-0.072-0.11-0.135-0.282-0.19-0.517c-0.101-0.416-0.163-0.734-0.185-0.955h-0.049
	c-0.344,0.484-0.601,0.832-0.768,1.043c-0.167,0.211-0.306,0.367-0.415,0.468s-0.214,0.172-0.317,0.212
	c-0.103,0.041-0.238,0.062-0.407,0.062c-0.153,0-0.278-0.02-0.375-0.059l0.195-0.883h0.341c0.02,0.137,0.076,0.205,0.17,0.205
	c0.045,0,0.094-0.012,0.144-0.036s0.123-0.083,0.217-0.176s0.224-0.238,0.39-0.437C34.729,150.696,34.969,150.399,35.284,150.002z"
	/>
<path d="M52.092,150.962c-0.312,0.455-0.607,0.788-0.887,0.999c-0.279,0.212-0.575,0.317-0.887,0.317
	c-0.357,0-0.634-0.135-0.831-0.405c-0.197-0.27-0.295-0.647-0.295-1.136c0-0.559,0.11-1.096,0.329-1.611
	c0.219-0.515,0.521-0.921,0.904-1.219c0.383-0.297,0.811-0.445,1.282-0.445c0.198,0,0.381,0.021,0.548,0.061
	c0.167,0.041,0.339,0.111,0.514,0.212l0.253-1.126c0.026-0.107,0.049-0.226,0.068-0.355s0.029-0.244,0.029-0.342
	s-0.018-0.171-0.054-0.222c-0.036-0.05-0.087-0.087-0.153-0.109c-0.067-0.022-0.186-0.039-0.358-0.049l0.059-0.254l1.224-0.044
	h0.288l-1.214,5.397c-0.072,0.318-0.107,0.559-0.107,0.721c0,0.13,0.021,0.225,0.063,0.283c0.042,0.059,0.109,0.088,0.2,0.088
	c0.098,0,0.202-0.04,0.312-0.12c0.11-0.079,0.267-0.231,0.468-0.455l0.278,0.272c-0.299,0.315-0.551,0.538-0.756,0.668
	c-0.205,0.13-0.426,0.195-0.663,0.195c-0.201,0-0.362-0.066-0.482-0.2c-0.12-0.133-0.18-0.311-0.18-0.531
	c0-0.179,0.037-0.369,0.112-0.57L52.092,150.962z M52.419,149.237c0.049-0.234,0.073-0.455,0.073-0.663
	c0-0.254-0.054-0.438-0.161-0.554c-0.107-0.115-0.286-0.173-0.537-0.173c-0.331,0-0.629,0.134-0.892,0.402
	c-0.263,0.268-0.47,0.63-0.622,1.085c-0.151,0.455-0.227,0.908-0.227,1.359c0,0.339,0.046,0.591,0.139,0.759
	c0.092,0.167,0.248,0.251,0.465,0.251c0.101,0,0.203-0.022,0.307-0.066s0.212-0.114,0.324-0.212s0.223-0.216,0.332-0.355
	s0.209-0.28,0.3-0.422s0.175-0.309,0.253-0.502s0.145-0.427,0.2-0.7L52.419,149.237z"/>
<path d="M59.11,151.396c0.507-0.722,0.893-1.351,1.158-1.889c0.265-0.538,0.397-0.976,0.397-1.313c0-0.153-0.033-0.257-0.098-0.313
	s-0.175-0.088-0.332-0.098l0.049-0.238h1.258l0.131,0.243c-0.114,0.289-0.205,0.512-0.273,0.668s-0.158,0.344-0.268,0.563
	c-0.11,0.219-0.228,0.438-0.351,0.655s-0.269,0.458-0.436,0.719c-0.167,0.262-0.355,0.546-0.563,0.854
	c-0.208,0.307-0.454,0.652-0.736,1.036h-0.58l-0.2-2.038c-0.017-0.159-0.034-0.367-0.051-0.624c-0.018-0.257-0.03-0.455-0.037-0.595
	l-0.054-0.005c-0.175,0.433-0.415,0.913-0.717,1.443c-0.302,0.529-0.676,1.136-1.121,1.818h-0.653l-0.371-3.671
	c-0.02-0.188-0.043-0.342-0.073-0.458c-0.029-0.117-0.078-0.205-0.146-0.264s-0.18-0.094-0.336-0.107l0.054-0.238h1.277l0.292,3.846
	c0.458-0.747,0.789-1.316,0.992-1.706s0.353-0.728,0.451-1.012s0.172-0.581,0.224-0.89l0.054-0.238h0.702L59.11,151.396z
	 M65.171,150.962c-0.312,0.455-0.608,0.788-0.887,0.999c-0.28,0.212-0.575,0.317-0.887,0.317c-0.358,0-0.635-0.135-0.832-0.405
	c-0.196-0.27-0.295-0.647-0.295-1.136c0-0.559,0.11-1.096,0.329-1.611c0.22-0.515,0.521-0.921,0.904-1.219
	c0.384-0.297,0.811-0.445,1.282-0.445c0.198,0,0.381,0.021,0.548,0.061c0.167,0.041,0.339,0.111,0.515,0.212l0.253-1.126
	c0.026-0.107,0.049-0.226,0.068-0.355c0.019-0.13,0.029-0.244,0.029-0.342s-0.018-0.171-0.053-0.222
	c-0.036-0.05-0.087-0.087-0.154-0.109s-0.186-0.039-0.358-0.049l0.059-0.254l1.224-0.044h0.288l-1.214,5.397
	c-0.071,0.318-0.107,0.559-0.107,0.721c0,0.13,0.021,0.225,0.063,0.283c0.042,0.059,0.109,0.088,0.2,0.088
	c0.097,0,0.201-0.04,0.312-0.12c0.11-0.079,0.266-0.231,0.468-0.455l0.278,0.272c-0.299,0.315-0.551,0.538-0.755,0.668
	c-0.205,0.13-0.426,0.195-0.663,0.195c-0.202,0-0.362-0.066-0.483-0.2c-0.12-0.133-0.18-0.311-0.18-0.531
	c0-0.179,0.037-0.369,0.112-0.57L65.171,150.962z M65.498,149.237c0.049-0.234,0.073-0.455,0.073-0.663
	c0-0.254-0.053-0.438-0.161-0.554s-0.286-0.173-0.536-0.173c-0.332,0-0.629,0.134-0.892,0.402c-0.263,0.268-0.471,0.63-0.622,1.085
	c-0.151,0.455-0.227,0.908-0.227,1.359c0,0.339,0.046,0.591,0.139,0.759c0.093,0.167,0.248,0.251,0.465,0.251
	c0.101,0,0.203-0.022,0.308-0.066c0.104-0.044,0.212-0.114,0.324-0.212c0.112-0.098,0.223-0.216,0.332-0.355s0.209-0.28,0.3-0.422
	c0.091-0.142,0.176-0.309,0.254-0.502c0.078-0.193,0.145-0.427,0.2-0.7L65.498,149.237z M69.903,152.215
	c-0.094-0.568-0.223-1.255-0.385-2.058c-0.172-0.857-0.286-1.389-0.341-1.594c-0.068-0.247-0.14-0.404-0.215-0.473
	c-0.045-0.043-0.102-0.063-0.17-0.063c-0.104,0-0.202,0.042-0.292,0.127c-0.091,0.084-0.203,0.23-0.336,0.438l-0.317-0.21
	c0.224-0.335,0.434-0.571,0.629-0.709c0.195-0.139,0.413-0.207,0.653-0.207c0.133,0,0.247,0.018,0.341,0.054
	c0.065,0.025,0.13,0.068,0.195,0.129s0.123,0.144,0.173,0.251s0.094,0.228,0.132,0.36c0.037,0.134,0.079,0.325,0.125,0.575
	c0.078,0.42,0.153,0.861,0.227,1.324s0.136,0.893,0.188,1.289c0.315-0.455,0.583-0.9,0.802-1.336
	c0.219-0.436,0.377-0.813,0.473-1.136c0.096-0.321,0.144-0.583,0.144-0.784c0-0.153-0.032-0.257-0.097-0.313
	s-0.176-0.088-0.332-0.098l0.049-0.238h1.282l0.131,0.243c-0.247,0.676-0.582,1.399-1.004,2.17
	c-0.416,0.754-0.892,1.504-1.428,2.252c-0.514,0.712-0.941,1.227-1.282,1.545c-0.237,0.218-0.466,0.374-0.687,0.469
	c-0.176,0.071-0.363,0.106-0.561,0.106c-0.068,0-0.147-0.005-0.236-0.017s-0.158-0.026-0.207-0.046l0.209-0.946h0.385
	c0,0.208,0.071,0.313,0.214,0.313c0.188,0,0.408-0.118,0.658-0.354C69.271,153.044,69.565,152.69,69.903,152.215z"/>
<path d="M86.792,150.962c-0.312,0.455-0.608,0.788-0.887,0.999c-0.28,0.212-0.575,0.317-0.887,0.317
	c-0.357,0-0.635-0.135-0.831-0.405c-0.197-0.27-0.295-0.647-0.295-1.136c0-0.559,0.109-1.096,0.329-1.611
	c0.22-0.515,0.521-0.921,0.905-1.219c0.383-0.297,0.811-0.445,1.282-0.445c0.198,0,0.381,0.021,0.549,0.061
	c0.167,0.041,0.338,0.111,0.514,0.212l0.253-1.126c0.026-0.107,0.049-0.226,0.068-0.355s0.029-0.244,0.029-0.342
	s-0.018-0.171-0.054-0.222c-0.036-0.05-0.087-0.087-0.154-0.109c-0.066-0.022-0.186-0.039-0.358-0.049l0.058-0.254l1.224-0.044
	h0.288l-1.214,5.397c-0.071,0.318-0.107,0.559-0.107,0.721c0,0.13,0.021,0.225,0.063,0.283c0.042,0.059,0.109,0.088,0.2,0.088
	c0.098,0,0.201-0.04,0.312-0.12c0.11-0.079,0.267-0.231,0.468-0.455l0.278,0.272c-0.299,0.315-0.551,0.538-0.755,0.668
	s-0.426,0.195-0.663,0.195c-0.202,0-0.362-0.066-0.482-0.2c-0.121-0.133-0.181-0.311-0.181-0.531c0-0.179,0.038-0.369,0.112-0.57
	L86.792,150.962z M87.119,149.237c0.049-0.234,0.073-0.455,0.073-0.663c0-0.254-0.054-0.438-0.161-0.554
	c-0.107-0.115-0.286-0.173-0.536-0.173c-0.332,0-0.629,0.134-0.892,0.402c-0.263,0.268-0.47,0.63-0.622,1.085
	s-0.227,0.908-0.227,1.359c0,0.339,0.046,0.591,0.139,0.759c0.093,0.167,0.248,0.251,0.466,0.251c0.101,0,0.203-0.022,0.307-0.066
	s0.212-0.114,0.324-0.212c0.112-0.098,0.223-0.216,0.332-0.355s0.208-0.28,0.3-0.422c0.091-0.142,0.175-0.309,0.253-0.502
	s0.145-0.427,0.2-0.7L87.119,149.237z"/>
<path d="M93.81,151.396c0.507-0.722,0.893-1.351,1.158-1.889c0.265-0.538,0.397-0.976,0.397-1.313c0-0.153-0.032-0.257-0.097-0.313
	c-0.065-0.056-0.176-0.088-0.332-0.098l0.049-0.238h1.257l0.132,0.243c-0.114,0.289-0.205,0.512-0.273,0.668
	s-0.158,0.344-0.268,0.563c-0.111,0.219-0.228,0.438-0.351,0.655s-0.269,0.458-0.437,0.719c-0.167,0.262-0.355,0.546-0.563,0.854
	c-0.208,0.307-0.453,0.652-0.736,1.036h-0.58l-0.2-2.038c-0.016-0.159-0.033-0.367-0.051-0.624c-0.018-0.257-0.03-0.455-0.037-0.595
	l-0.053-0.005c-0.176,0.433-0.415,0.913-0.717,1.443c-0.302,0.529-0.676,1.136-1.121,1.818h-0.653l-0.371-3.671
	c-0.02-0.188-0.044-0.342-0.073-0.458c-0.029-0.117-0.078-0.205-0.146-0.264s-0.181-0.094-0.336-0.107l0.054-0.238h1.277
	l0.293,3.846c0.458-0.747,0.789-1.316,0.992-1.706s0.354-0.728,0.451-1.012c0.097-0.284,0.172-0.581,0.224-0.89l0.054-0.238h0.702
	L93.81,151.396z M99.871,150.962c-0.312,0.455-0.607,0.788-0.887,0.999c-0.279,0.212-0.575,0.317-0.887,0.317
	c-0.357,0-0.634-0.135-0.831-0.405c-0.197-0.27-0.295-0.647-0.295-1.136c0-0.559,0.11-1.096,0.329-1.611
	c0.219-0.515,0.521-0.921,0.904-1.219c0.383-0.297,0.811-0.445,1.282-0.445c0.198,0,0.381,0.021,0.548,0.061
	c0.167,0.041,0.339,0.111,0.514,0.212l0.253-1.126c0.026-0.107,0.049-0.226,0.068-0.355s0.029-0.244,0.029-0.342
	s-0.018-0.171-0.054-0.222c-0.036-0.05-0.087-0.087-0.153-0.109c-0.067-0.022-0.186-0.039-0.358-0.049l0.059-0.254l1.224-0.044
	h0.288l-1.214,5.397c-0.072,0.318-0.107,0.559-0.107,0.721c0,0.13,0.021,0.225,0.063,0.283c0.042,0.059,0.109,0.088,0.2,0.088
	c0.098,0,0.202-0.04,0.312-0.12c0.11-0.079,0.267-0.231,0.468-0.455l0.278,0.272c-0.299,0.315-0.551,0.538-0.756,0.668
	c-0.205,0.13-0.426,0.195-0.663,0.195c-0.201,0-0.362-0.066-0.482-0.2c-0.12-0.133-0.18-0.311-0.18-0.531
	c0-0.179,0.037-0.369,0.112-0.57L99.871,150.962z M100.197,149.237c0.049-0.234,0.073-0.455,0.073-0.663
	c0-0.254-0.054-0.438-0.161-0.554c-0.107-0.115-0.286-0.173-0.537-0.173c-0.332,0-0.629,0.134-0.892,0.402
	c-0.263,0.268-0.47,0.63-0.622,1.085c-0.151,0.455-0.227,0.908-0.227,1.359c0,0.339,0.046,0.591,0.139,0.759
	c0.092,0.167,0.248,0.251,0.465,0.251c0.101,0,0.203-0.022,0.307-0.066s0.212-0.114,0.324-0.212s0.223-0.216,0.332-0.355
	s0.209-0.28,0.3-0.422s0.175-0.309,0.253-0.502s0.145-0.427,0.2-0.7L100.197,149.237z M106.26,150.835l-0.297,1.37h-3.529
	l-0.093-0.239l2.667-3.071c0.377-0.432,0.653-0.739,0.829-0.921l-0.029-0.034h-1.141c-0.169,0-0.292,0.012-0.371,0.034
	s-0.156,0.063-0.234,0.119c-0.078,0.057-0.162,0.142-0.251,0.254s-0.189,0.272-0.3,0.479h-0.434l0.288-1.281h3.466l0.093,0.243
	l-2.325,2.672c-0.452,0.517-0.843,0.955-1.175,1.316l0.029,0.034h1.102c0.195,0,0.344-0.011,0.448-0.032
	c0.104-0.021,0.195-0.061,0.273-0.119c0.078-0.059,0.158-0.147,0.241-0.266c0.083-0.119,0.186-0.305,0.31-0.559H106.26z"/>
<text transform="matrix(1 0 0 1 59.1201 165.4292)" font-family="'CambriaMath'" font-size="9.96">⋮</text>
<text transform="matrix(1 0 0 1 117.5801 145.1255)" font-family="'CambriaMath'" font-size="9.96">∈</text>
<path d="M130.587,142.115c0.156,0.117,0.281,0.257,0.377,0.419s0.172,0.387,0.231,0.676l0.112,0.564
	c0.036,0.178,0.076,0.339,0.122,0.481s0.1,0.256,0.163,0.34c0.063,0.085,0.134,0.147,0.214,0.189
	c0.079,0.043,0.195,0.076,0.348,0.103l-0.049,0.238h-1.347c-0.104-0.288-0.196-0.632-0.277-1.031l-0.214-1.031
	c-0.036-0.178-0.079-0.328-0.129-0.449c-0.05-0.122-0.11-0.216-0.18-0.282s-0.151-0.11-0.243-0.131
	c-0.092-0.021-0.205-0.032-0.338-0.032h-0.555l-0.34,1.542c-0.029,0.126-0.049,0.227-0.061,0.302
	c-0.012,0.074-0.021,0.152-0.029,0.235c-0.008,0.083-0.012,0.156-0.012,0.222c0,0.101,0.016,0.179,0.049,0.235
	c0.032,0.057,0.081,0.099,0.146,0.124c0.065,0.026,0.177,0.046,0.336,0.059l-0.054,0.238h-1.999l0.053-0.238
	c0.123-0.02,0.216-0.051,0.277-0.095s0.113-0.104,0.156-0.183c0.042-0.078,0.081-0.173,0.117-0.284
	c0.036-0.112,0.089-0.328,0.16-0.649l0.827-3.745c0.071-0.324,0.107-0.58,0.107-0.768c0-0.159-0.038-0.27-0.112-0.331
	c-0.075-0.062-0.196-0.098-0.365-0.107l0.053-0.238h2.164c0.344,0,0.624,0.021,0.841,0.062c0.217,0.04,0.403,0.101,0.557,0.182
	c0.154,0.081,0.283,0.186,0.387,0.314c0.104,0.128,0.181,0.271,0.233,0.433c0.052,0.16,0.078,0.331,0.078,0.513
	c0,0.499-0.152,0.924-0.457,1.274c-0.305,0.35-0.754,0.616-1.347,0.798V142.115z M129.488,141.75c0.47,0,0.841-0.063,1.114-0.189
	c0.272-0.127,0.488-0.334,0.646-0.623c0.159-0.288,0.238-0.6,0.238-0.934c0-0.14-0.013-0.264-0.039-0.372s-0.06-0.198-0.102-0.27
	c-0.042-0.071-0.096-0.135-0.161-0.19c-0.065-0.055-0.146-0.103-0.243-0.143c-0.097-0.041-0.21-0.07-0.338-0.088
	c-0.128-0.018-0.303-0.026-0.523-0.026c-0.172,0-0.354,0.006-0.544,0.019l-0.623,2.816H129.488z"/>
<path d="M136.767,140.076c0.026-0.152,0.06-0.333,0.1-0.542c0.041-0.208,0.088-0.425,0.143-0.648
	c0.041-0.169,0.082-0.343,0.124-0.521s0.081-0.351,0.116-0.516c0.036-0.164,0.065-0.315,0.087-0.455
	c0.023-0.14,0.034-0.255,0.034-0.345c0-0.105-0.027-0.18-0.081-0.224s-0.153-0.067-0.298-0.069l0.05-0.226h1.326l-0.046,0.215
	c-0.081,0.023-0.146,0.044-0.193,0.063c-0.048,0.018-0.088,0.052-0.122,0.104c-0.034,0.051-0.065,0.125-0.095,0.223
	c-0.03,0.099-0.065,0.239-0.105,0.422l-0.808,3.61h-0.54c-0.126-0.324-0.255-0.65-0.388-0.979s-0.262-0.657-0.39-0.986
	s-0.25-0.655-0.366-0.979s-0.223-0.644-0.318-0.958h-0.046c-0.012,0.074-0.026,0.16-0.043,0.258s-0.035,0.203-0.055,0.316
	c-0.021,0.113-0.042,0.229-0.064,0.349s-0.046,0.238-0.07,0.357c-0.021,0.09-0.047,0.195-0.077,0.315
	c-0.03,0.121-0.06,0.249-0.091,0.387c-0.031,0.137-0.063,0.275-0.095,0.416s-0.061,0.274-0.087,0.402
	c-0.026,0.127-0.047,0.243-0.063,0.349c-0.016,0.104-0.023,0.187-0.023,0.246c0,0.101,0.029,0.171,0.086,0.213
	s0.155,0.067,0.293,0.077l-0.039,0.218h-1.333l0.046-0.218c0.072-0.012,0.131-0.026,0.179-0.043c0.048-0.017,0.09-0.051,0.125-0.103
	c0.036-0.051,0.069-0.128,0.102-0.23c0.032-0.102,0.069-0.246,0.109-0.432l0.586-2.606c0.021-0.095,0.038-0.184,0.048-0.266
	s0.016-0.155,0.016-0.22c0-0.105-0.027-0.18-0.083-0.224c-0.055-0.044-0.155-0.067-0.3-0.069l0.053-0.226h1.233
	c0.112,0.298,0.227,0.598,0.345,0.898c0.118,0.302,0.234,0.603,0.349,0.903c0.114,0.3,0.225,0.596,0.331,0.888
	s0.203,0.577,0.292,0.856H136.767z"/>
<path d="M140.883,141.9c-0.219,0.271-0.419,0.467-0.602,0.587s-0.376,0.181-0.582,0.181c-0.24,0-0.426-0.087-0.557-0.26
	c-0.131-0.173-0.196-0.427-0.196-0.763c0-0.33,0.076-0.666,0.229-1.008s0.359-0.613,0.62-0.813s0.549-0.3,0.866-0.3
	c0.177,0,0.327,0.02,0.448,0.059c0.121,0.039,0.224,0.084,0.308,0.135l0.287-0.193l0.27,0.064l-0.48,2.194
	c-0.07,0.373-0.122,0.62-0.152,0.741c-0.059,0.238-0.129,0.438-0.212,0.602s-0.188,0.301-0.316,0.413s-0.288,0.2-0.48,0.264
	s-0.431,0.096-0.716,0.096c-0.434,0-0.762-0.057-0.986-0.17s-0.335-0.285-0.335-0.516c0-0.119,0.034-0.225,0.103-0.316
	c0.068-0.092,0.183-0.189,0.343-0.29l0.308,0.211c-0.07,0.074-0.119,0.142-0.144,0.202c-0.025,0.061-0.038,0.123-0.038,0.188
	c0,0.115,0.057,0.206,0.173,0.273c0.115,0.067,0.3,0.102,0.557,0.102c0.23,0,0.417-0.035,0.563-0.105
	c0.145-0.07,0.263-0.176,0.356-0.315s0.169-0.306,0.23-0.499c0.06-0.193,0.122-0.441,0.185-0.744L140.883,141.9z M141.138,140.64
	c0.029-0.139,0.044-0.257,0.044-0.354c0-0.158-0.04-0.271-0.119-0.34s-0.196-0.103-0.35-0.103c-0.227,0-0.428,0.09-0.604,0.271
	s-0.31,0.415-0.401,0.702c-0.092,0.287-0.138,0.554-0.138,0.8c0,0.215,0.032,0.373,0.097,0.476s0.16,0.154,0.287,0.154
	c0.113,0,0.223-0.029,0.328-0.087s0.223-0.16,0.353-0.308s0.224-0.286,0.281-0.416s0.111-0.295,0.16-0.496L141.138,140.64z"/>
<text transform="matrix(1 0 0 1 142.7798 141.1655)" font-family="'CambriaMath'" font-size="7.32">×</text>
<text transform="matrix(1 0 0 1 148.0601 141.1655)" font-family="'CambriaMath'" font-size="7.32">3</text>
<text transform="matrix(1 0 0 1 152.2598 141.1655)" font-family="'CambriaMath'" font-size="7.32">×</text>
<text transform="matrix(1 0 0 1 157.54 141.1655)" font-family="'CambriaMath'" font-size="7.32">3</text>
<polygon fill="none" stroke="#BFBFBF" stroke-width="0.75" stroke-miterlimit="10" points="219.68,71.133 254.66,10.773 
	289.64,71.133 "/>
<text transform="matrix(1 0 0 1 10.856 178.269)"><tspan x="0" y="0" font-family="'ArialMT'" font-size="9.024">Ve</tspan><tspan x="11.038" y="0" font-family="'ArialMT'" font-size="9.024">l</tspan><tspan x="13.061" y="0" font-family="'ArialMT'" font-size="9.024">o</tspan><tspan x="18.079" y="0" font-family="'ArialMT'" font-size="9.024">c</tspan><tspan x="22.646" y="0" font-family="'ArialMT'" font-size="9.024">i</tspan><tspan x="24.668" y="0" font-family="'ArialMT'" font-size="9.024">t</tspan><tspan x="27.175" y="0" font-family="'ArialMT'" font-size="9.024">y</tspan><tspan x="31.633" y="0" font-family="'ArialMT'" font-size="9.024"> </tspan><tspan x="33.924" y="0" font-family="'ArialMT'" font-size="9.024">gr</tspan><tspan x="41.948" y="0" font-family="'ArialMT'" font-size="9.024">a</tspan><tspan x="46.984" y="0" font-family="'ArialMT'" font-size="9.024">d</tspan><tspan x="52.003" y="0" font-family="'ArialMT'" font-size="9.024">i</tspan><tspan x="54.053" y="0" font-family="'ArialMT'" font-size="9.024">e</tspan><tspan x="59.072" y="0" font-family="'ArialMT'" font-size="9.024">n</tspan><tspan x="64.118" y="0" font-family="'ArialMT'" font-size="9.024">t</tspan><tspan x="66.625" y="0" font-family="'ArialMT'" font-size="9.024"> </tspan><tspan x="68.924" y="0" font-family="'ArialMT'" font-size="9.024">t</tspan><tspan x="71.432" y="0" font-family="'ArialMT'" font-size="9.024">e</tspan><tspan x="76.468" y="0" font-family="'ArialMT'" font-size="9.024">n</tspan><tspan x="81.487" y="0" font-family="'ArialMT'" font-size="9.024">s</tspan><tspan x="86.053" y="0" font-family="'ArialMT'" font-size="9.024">or</tspan></text>
<text transform="matrix(1 0 0 1 210.0303 85.9634)"><tspan x="0" y="0" font-family="'ArialMT'" font-size="9">T</tspan><tspan x="5.407" y="0" font-family="'ArialMT'" font-size="9">u</tspan><tspan x="10.431" y="0" font-family="'ArialMT'" font-size="9">r</tspan><tspan x="13.428" y="0" font-family="'ArialMT'" font-size="9">bu</tspan><tspan x="23.475" y="0" font-family="'ArialMT'" font-size="9">l</tspan><tspan x="25.501" y="0" font-family="'ArialMT'" font-size="9">en</tspan><tspan x="35.548" y="0" font-family="'ArialMT'" font-size="9">c</tspan><tspan x="40.102" y="0" font-family="'ArialMT'" font-size="9">e</tspan><tspan x="45.125" y="0" font-family="'ArialMT'" font-size="9"> </tspan><tspan x="47.41" y="0" font-family="'ArialMT'" font-size="9">an</tspan><tspan x="57.457" y="0" font-family="'ArialMT'" font-size="9">i</tspan><tspan x="59.483" y="0" font-family="'ArialMT'" font-size="9">s</tspan><tspan x="64.037" y="0" font-family="'ArialMT'" font-size="9">o</tspan><tspan x="69.061" y="0" font-family="'ArialMT'" font-size="9">tr</tspan><tspan x="74.558" y="0" font-family="'ArialMT'" font-size="9">o</tspan><tspan x="79.6" y="0" font-family="'ArialMT'" font-size="9">p</tspan><tspan x="84.623" y="0" font-family="'ArialMT'" font-size="9">y</tspan></text>
<linearGradient id="SVGID_1_" gradientUnits="userSpaceOnUse" x1="249.3594" y1="32.8833" x2="249.3594" y2="70.1235">
	<stop  offset="0" style="stop-color:#FF31FF"/>
	<stop  offset="0.23" style="stop-color:#0000FF"/>
	<stop  offset="0.44" style="stop-color:#00B0F0"/>
	<stop  offset="1" style="stop-color:#00FF00"/>
</linearGradient>
<path fill="url(#SVGID_1_)" d="M265.13,35.974l0.22,0.38l0.2,0.5l-1.859,0.74l-0.171-0.43l0.061,0.13l-0.18-0.32L265.13,35.974z
	 M261.4,33.213l0.47,0.15l0.67,0.3l0.6,0.34l0.311,0.22l-1.13,1.65l-0.28-0.19l0.07,0.04l-0.521-0.3l0.09,0.05l-0.569-0.26l0.1,0.04
	l-0.42-0.13L261.4,33.213z M256.85,33.273l0.351-0.12l0.84-0.19l0.83-0.08h0.27l-0.02,2h-0.22l0.119-0.01l-0.72,0.08l0.12-0.02
	l-0.729,0.16l0.1-0.02l-0.3,0.1L256.85,33.273z M253.13,35.414l0.65-0.48l0.899-0.59l0.181-0.12l1.02,1.73l-0.16,0.09l0.04-0.03
	l-0.85,0.57l0.04-0.02l-0.63,0.46L253.13,35.414z M249.98,38.034l0.81-0.74l0.72-0.6l1.29,1.53l-0.71,0.59l0.03-0.02l-0.811,0.72
	L249.98,38.034z M247.04,40.854l0.53-0.55l0.91-0.89l1.399,1.44l-0.899,0.87l0.029-0.03l-0.52,0.55L247.04,40.854z M244.29,43.833
	l0.11-0.13l1.04-1.17l0.22-0.23l1.45,1.38l-0.21,0.22l0.02-0.03l-1.02,1.15l0.02-0.02l-0.11,0.13L244.29,43.833z M241.74,46.983
	l0.71-0.93l0.54-0.67l1.55,1.26l-0.53,0.66l0.021-0.03l-0.7,0.92L241.74,46.983z M239.46,50.414l0.51-0.86l0.57-0.87l1.68,1.09
	l-0.56,0.85l0.02-0.04l-0.489,0.85L239.46,50.414z M237.65,54.113l0.46-1.05l0.38-0.8l1.8,0.86l-0.37,0.79l0.01-0.04l-0.449,1.04
	L237.65,54.113z M236.27,57.974l0.391-1.24l0.26-0.7l1.87,0.7l-0.25,0.67l0.02-0.05l-0.39,1.22L236.27,57.974z M235.13,61.874
	l0.021-0.08l0.529-1.87l1.92,0.54l-0.52,1.86l0.01-0.03l-0.02,0.07L235.13,61.874z M234.15,65.753l0.35-1.37l0.14-0.57l1.94,0.49
	l-0.14,0.57v-0.01l-0.351,1.38L234.15,65.753z M233.17,69.624l0.5-1.94l1.93,0.5l-0.489,1.94L233.17,69.624z"/>
<text transform="matrix(1 0 0 1 291.7803 73.2236)"><tspan x="0" y="0" font-family="'ArialMT'" font-size="6.96">1</tspan><tspan x="3.843" y="0" font-family="'ArialMT'" font-size="6.96">C</tspan></text>
<text transform="matrix(1 0 0 1 250.2598 8.4736)"><tspan x="0" y="0" font-family="'ArialMT'" font-size="6.96">3</tspan><tspan x="3.843" y="0" font-family="'ArialMT'" font-size="6.96">C</tspan></text>
<text transform="matrix(1 0 0 1 208.5898 73.2236)"><tspan x="0" y="0" font-family="'ArialMT'" font-size="6.96">2</tspan><tspan x="3.843" y="0" font-family="'ArialMT'" font-size="6.96">C</tspan></text>
<polygon fill-rule="evenodd" clip-rule="evenodd" fill="#BFBFBF" points="171.44,30.843 184.82,30.843 184.82,26.733 193.04,34.954 
	184.82,43.173 184.82,39.063 171.44,39.063 "/>
<polygon fill-rule="evenodd" clip-rule="evenodd" fill="#BFBFBF" points="171.8,136.923 185.18,136.923 185.18,132.814 
	193.4,141.034 185.18,149.253 185.18,145.143 171.8,145.143 "/>
<polygon fill-rule="evenodd" clip-rule="evenodd" fill="#BFBFBF" points="62.09,85.534 62.09,98.914 66.2,98.914 57.98,107.133 
	49.76,98.914 53.87,98.914 53.87,85.534 "/>
<text transform="matrix(1 0 0 1 176.98 53.6333)" fill="#BFBFBF" font-family="'ArialMT'" font-size="12.024">=</text>
<text transform="matrix(1 0 0 1 176.6001 157.6772)" fill="#BFBFBF" font-family="'ArialMT'" font-size="12">=</text>
<text transform="matrix(1 0 0 1 70.0161 98.9937)" fill="#BFBFBF" font-family="'ArialMT'" font-size="12.024">+</text>
<path fill="#BFBFBF" d="M216,118.293l2-6l2,6H216z M218.5,117.293v53.904h-1v-53.904H218.5z"/>
<path fill="#BFBFBF" d="M296.19,169.213l6,2l-6,2V169.213z M297.19,171.713H218v-1h79.19V171.713z"/>
<text transform="matrix(1 0 0 1 216.5098 193.1255)"><tspan x="0" y="0" font-family="'ArialMT'" font-size="9">T</tspan><tspan x="5.407" y="0" font-family="'ArialMT'" font-size="9">u</tspan><tspan x="10.431" y="0" font-family="'ArialMT'" font-size="9">r</tspan><tspan x="13.428" y="0" font-family="'ArialMT'" font-size="9">bu</tspan><tspan x="23.475" y="0" font-family="'ArialMT'" font-size="9">l</tspan><tspan x="25.501" y="0" font-family="'ArialMT'" font-size="9">en</tspan><tspan x="35.548" y="0" font-family="'ArialMT'" font-size="9">t</tspan><tspan x="38.049" y="0" font-family="'ArialMT'" font-size="9"> </tspan><tspan x="40.351" y="0" font-family="'ArialMT'" font-size="9">v</tspan><tspan x="44.797" y="0" font-family="'ArialMT'" font-size="9">i</tspan><tspan x="46.823" y="0" font-family="'ArialMT'" font-size="9">s</tspan><tspan x="51.368" y="0" font-family="'ArialMT'" font-size="9">c</tspan><tspan x="55.923" y="0" font-family="'ArialMT'" font-size="9">o</tspan><tspan x="60.946" y="0" font-family="'ArialMT'" font-size="9">s</tspan><tspan x="65.491" y="0" font-family="'ArialMT'" font-size="9">i</tspan><tspan x="67.518" y="0" font-family="'ArialMT'" font-size="9">ty</tspan></text>
<text transform="matrix(1 0 0 1 210.3398 117.9331)" font-family="'Calibri-Light'" font-size="6.96">y</text>
<text transform="matrix(1 0 0 1 274.2305 180.1177)"><tspan x="0" y="0" font-family="'Calibri-Light'" font-size="6.96">x</tspan><tspan x="2.885" y="0" font-family="'Calibri-Light'" font-size="6.96"> + </tspan></text>
<text transform="matrix(1 0 0 1 283.8301 180.1177)" font-family="'Calibri-Light'" font-size="6.96">ν</text>
<text transform="matrix(1 0 0 1 286.8301 181.7974)" font-family="'Calibri-Light'" font-size="4.68">t</text>
<text transform="matrix(1 0 0 1 289.9502 180.1177)" font-family="'Calibri-Light'" font-size="6.96">/ </text>
<text transform="matrix(1 0 0 1 294.1504 180.1177)" font-family="'Calibri-Light'" font-size="6.96">ν</text>
<path fill="none" stroke="#C00000" stroke-miterlimit="10" d="M223.77,171.093c5.4-1.118,10.801-3.294,14.181-5.646
	c3.37-2.354,6.33-5.294,6.069-8.472c-0.25-3.176-4.979-7.058-7.59-10.588c-2.62-3.528-6.25-6.412-8.1-10.588
	c-1.86-4.177-4.73-9.324-4.561-12.706"/>
<path fill="none" stroke="#C00000" stroke-miterlimit="10" d="M251.85,170.973c5.15-1.849,5.24-2.117,7.101-4.588
	c1.85-2.471,4.05-7,4.05-10.235s-2.7-5.823-4.05-9.177c-1.351-3.353-2.2-6.765-4.061-10.94c-1.85-4.177-3.199-9.677-3.04-13.06"/>
<path fill="none" stroke="#C00000" stroke-miterlimit="10" d="M277.53,170.973c4.18-3.51,4.52-6.097,5.43-9.728
	s0.55-7.856,0.03-12.059c-0.521-4.201-1.29-8.979-3.141-13.154c-0.899-3.465-2.489-9.677-2.319-13.06"/>
</svg>
